<svg id="Layer_1" data-name="Layer 1" xmlns="http://www.w3.org/2000/svg" width="16mm" height="17mm" viewBox="0 0 45.35433 48.18898">
  <title>Ra-01-LoRa-breadboard</title>
  <g id="breadboard">
    <g id="PCB">
      <rect id="back" x="212.72222" y="89.29862" width="48.18898" height="42.6875" transform="translate(-87.94445 260.91119) rotate(-90)" style="fill: #231f20"/>
      <g id="between">
        <rect x="257.1106" y="126.95767" width="2.85417" height="1.87087" transform="translate(-83.47421 299.88291) rotate(-90)" style="fill: #231f20"/>
        <rect x="257.1106" y="121.16002" width="2.85417" height="1.87087" transform="translate(-77.67655 294.08526) rotate(-90)" style="fill: #231f20"/>
        <rect x="257.1106" y="115.49073" width="2.85417" height="1.87087" transform="translate(-72.00726 288.41597) rotate(-90)" style="fill: #231f20"/>
        <rect x="257.1106" y="109.82144" width="2.85417" height="1.87087" transform="translate(-66.33797 282.74667) rotate(-90)" style="fill: #231f20"/>
        <rect x="257.1106" y="104.15214" width="2.85417" height="1.87087" transform="translate(-60.66868 277.07738) rotate(-90)" style="fill: #231f20"/>
        <rect x="257.1106" y="98.48285" width="2.85417" height="1.87087" transform="translate(-54.99939 271.40809) rotate(-90)" style="fill: #231f20"/>
        <rect x="257.1106" y="92.84079" width="2.85417" height="1.87087" transform="translate(-49.35733 265.76603) rotate(-90)" style="fill: #231f20"/>
        <rect x="257.1106" y="87.03953" width="2.85417" height="1.87087" transform="translate(-43.55606 259.96477) rotate(-90)" style="fill: #231f20"/>
        <rect x="257.1106" y="132.37434" width="2.85417" height="1.87087" transform="translate(-88.89087 305.29958) rotate(-90)" style="fill: #231f20"/>
        <rect x="213.62714" y="87.03953" width="2.85417" height="1.87087" transform="translate(-87.03953 216.4813) rotate(-90)" style="fill: #231f20"/>
        <rect x="213.62714" y="92.84079" width="2.85417" height="1.87087" transform="translate(-92.84079 222.28257) rotate(-90)" style="fill: #231f20"/>
        <rect x="213.62714" y="98.48285" width="2.85417" height="1.87087" transform="translate(-98.48285 227.92463) rotate(-90)" style="fill: #231f20"/>
        <rect x="213.62714" y="104.15214" width="2.85417" height="1.87087" transform="translate(-104.15214 233.59392) rotate(-90)" style="fill: #231f20"/>
        <rect x="213.62714" y="109.82144" width="2.85417" height="1.87087" transform="translate(-109.82144 239.26321) rotate(-90)" style="fill: #231f20"/>
        <rect x="213.62714" y="115.49073" width="2.85417" height="1.87087" transform="translate(-115.49073 244.9325) rotate(-90)" style="fill: #231f20"/>
        <rect x="213.62714" y="121.16002" width="2.85417" height="1.87087" transform="translate(-121.16002 250.60179) rotate(-90)" style="fill: #231f20"/>
        <rect x="213.62714" y="126.82931" width="2.85417" height="1.87087" transform="translate(-126.82931 256.27108) rotate(-90)" style="fill: #231f20"/>
        <rect x="213.62714" y="132.37434" width="2.85417" height="1.87087" transform="translate(-132.37434 261.81611) rotate(-90)" style="fill: #231f20"/>
      </g>
      <rect x="255.41045" y="129.32019" width="2.5625" height="2.5625" transform="translate(-88.02852 300.74526) rotate(-90)" style="fill: #fff"/>
    </g>
    <g id="silkscreen">
      <polygon id="Heat_Spreader" data-name="Heat Spreader" points="3.885 46.386 28.969 46.386 28.969 36.636 41.802 36.636 41.802 1.803 3.552 1.803 3.552 46.386 3.885 46.386" style="fill: #efeff0;stroke: #a3a5a8;stroke-miterlimit: 10"/>
      <g>
        <path d="M224.92969,111.292h2.06445v0.63672h-4.99707v-1.2168a2.11,2.11,0,0,1,.35254-1.34375,1.29157,1.29157,0,0,1,1.06641-.43359,1.47944,1.47944,0,0,1,.51953.083,1.23911,1.23911,0,0,1,.38086.22266,1.29607,1.29607,0,0,1,.26465.31543,2.23959,2.23959,0,0,1,.1748.36621l2.23828-1.36035v0.748l-2.06445,1.2002V111.292Zm-0.54,0v-0.56055a1.96757,1.96757,0,0,0-.05957-0.52246,0.91918,0.91918,0,0,0-.17773-0.35352,0.68076,0.68076,0,0,0-.29395-0.20215,1.22329,1.22329,0,0,0-.41211-0.0625,1.09912,1.09912,0,0,0-.417.06934,0.666,0.666,0,0,0-.28027.21191,0.91484,0.91484,0,0,0-.15918.35938,2.32794,2.32794,0,0,0-.04883.51367V111.292h1.84863Z" transform="translate(-214.11879 -86.54788)" style="fill: #231f20"/>
        <path d="M226.99414,105.76855l-0.51953.127v0.02734a2.19283,2.19283,0,0,1,.26465.22559,1.04527,1.04527,0,0,1,.18262.24609,1.0563,1.0563,0,0,1,.10645.29785,1.89365,1.89365,0,0,1,.03418.37891,1.364,1.364,0,0,1-.06641.43359,0.91965,0.91965,0,0,1-.20508.34375,0.961,0.961,0,0,1-.34863.22754,1.36624,1.36624,0,0,1-.49707.082,1.0184,1.0184,0,0,1-.86133-0.39453,2.08878,2.08878,0,0,1-.32812-1.20215l-0.02441-.62891h-0.23535a1.2514,1.2514,0,0,0-.38281.0498,0.60335,0.60335,0,0,0-.248.14355,0.5416,0.5416,0,0,0-.13477.23242,1.1197,1.1197,0,0,0-.041.31641,1.6503,1.6503,0,0,0,.082.52832,3.38116,3.38116,0,0,0,.19727.46973l-0.46777.21875a3.09753,3.09753,0,0,1-.23242-0.56445,2.21481,2.21481,0,0,1-.0957-0.65234,2.28664,2.28664,0,0,1,.07031-0.60352,0.99921,0.99921,0,0,1,.22168-0.41992,0.9294,0.9294,0,0,1,.38867-0.248,1.73846,1.73846,0,0,1,.57031-0.082h2.57031v0.44727Zm-0.43359,1.14258a1.12375,1.12375,0,0,0-.06543-0.38672,0.822,0.822,0,0,0-.19629-0.30762,0.90414,0.90414,0,0,0-.332-0.20312,1.3636,1.3636,0,0,0-.46973-0.07324H225.1582l0.02441,0.48828a2.50318,2.50318,0,0,0,.06836.51563,0.89921,0.89921,0,0,0,.15234.334,0.56048,0.56048,0,0,0,.23535.17969,0.85634,0.85634,0,0,0,.3125.05469,0.5872,0.5872,0,0,0,.46191-0.166A0.634,0.634,0,0,0,226.56055,106.91113Z" transform="translate(-214.11879 -86.54788)" style="fill: #231f20"/>
        <path d="M225.4043,104.4834h-0.57422V98.04395h0.57422v6.43945Z" transform="translate(-214.11879 -86.54788)" style="fill: #231f20"/>
        <path d="M224.48828,94.23633a6.13123,6.13123,0,0,1,1.084.08691,2.502,2.502,0,0,1,.81055.28027,1.36122,1.36122,0,0,1,.50586.498,1.46933,1.46933,0,0,1,.17383.73828,1.379,1.379,0,0,1-.17383.70215,1.399,1.399,0,0,1-.50586.49512,2.59744,2.59744,0,0,1-.81055.29395,5.42238,5.42238,0,0,1-1.084.09766,6.13547,6.13547,0,0,1-1.083-.08691,2.52,2.52,0,0,1-.80859-0.27734,1.32727,1.32727,0,0,1-.50391-0.49219,1.44177,1.44177,0,0,1-.1748-0.73242,1.32363,1.32363,0,0,1,.67578-1.207,2.567,2.567,0,0,1,.80859-0.29687A5.34936,5.34936,0,0,1,224.48828,94.23633Zm0,2.56055a6.85224,6.85224,0,0,0,.89648-0.05176,2.36124,2.36124,0,0,0,.63672-0.16406,0.89,0.89,0,0,0,.38281-0.2959,0.75386,0.75386,0,0,0,.12891-0.44531,0.77651,0.77651,0,0,0-.127-0.44824,0.917,0.917,0,0,0-.37891-0.30273,2.26665,2.26665,0,0,0-.6377-0.1709,6.72834,6.72834,0,0,0-.90137-0.05273,6.63058,6.63058,0,0,0-.89453.05273,2.2592,2.2592,0,0,0-.63672.1709,0.917,0.917,0,0,0-.37891.30273,0.77651,0.77651,0,0,0-.127.44824,0.767,0.767,0,0,0,.127.44531,0.883,0.883,0,0,0,.37891.2959,2.34185,2.34185,0,0,0,.63672.16406A6.81,6.81,0,0,0,224.48828,96.79688Z" transform="translate(-214.11879 -86.54788)" style="fill: #231f20"/>
        <path d="M226.99414,91.47852v0.60156H223.873c-0.09766,0-.20215-0.001-0.31445-0.002-0.11133-.001-0.22266-0.00391-0.333-0.00684-0.11035-.00391-0.21582-0.00684-0.31738-0.01074-0.10156-.00293-0.19141-0.00586-0.26855-0.00781,0.041,0.03809.07617,0.07227,0.10645,0.10156q0.04395,0.04541.085,0.09082c0.02734,0.03125.05664,0.06348,0.08691,0.09766,0.03125,0.03418.06641,0.0752,0.10742,0.123l0.41406,0.50586-0.41992.32813-1.02246-1.30957V91.47852h4.99707Z" transform="translate(-214.11879 -86.54788)" style="fill: #231f20"/>
      </g>
      <g>
        <path d="M230.48779,109.85986l-0.88477.3125v1.06445l0.88477,0.31641v0.36719l-2.86719-1.04883v-0.332l2.86719-1.05078v0.37109Zm-1.207.42773-0.82812.28906-0.08594.02832c-0.03369.01123-.07031,0.02246-0.10937,0.03418s-0.07959.02344-.12207,0.03516-0.0835.02295-.124,0.0332c0.04053,0.00928.082,0.01953,0.125,0.03125s0.08447,0.02344.124,0.03516,0.07617,0.02295.10938,0.03418,0.061,0.02051.083,0.02832l0.82813,0.2832v-0.832Z" transform="translate(-214.11879 -86.54788)" style="fill: #231f20"/>
        <path d="M230.48779,108.29346v1.03516h-0.19922l-0.08008-.33594h-2.29687l-0.08008.33594h-0.19922v-1.03516h0.19922l0.08008,0.33594h2.29688l0.08008-.33594h0.19922Z" transform="translate(-214.11879 -86.54788)" style="fill: #231f20"/>
        <path d="M229.57959,107.97314h-0.32812v-0.96875h0.32813v0.96875Z" transform="translate(-214.11879 -86.54788)" style="fill: #231f20"/>
        <path d="M230.48779,105.82471v0.36523h-2.53516v0.81641h-0.32031v-1.99609h0.32031v0.81445h2.53516Z" transform="translate(-214.11879 -86.54788)" style="fill: #231f20"/>
        <path d="M230.48779,102.55322v0.36328h-1.332v1.30078h1.332v0.36328h-2.85547v-0.36328h1.20313V102.9165h-1.20312v-0.36328h2.85547Z" transform="translate(-214.11879 -86.54788)" style="fill: #231f20"/>
        <path d="M230.48779,100.96924v1.03516h-0.19922l-0.08008-.33594h-2.29687l-0.08008.33594h-0.19922v-1.03516h0.19922l0.08008,0.33594h2.29688l0.08008-.33594h0.19922Z" transform="translate(-214.11879 -86.54788)" style="fill: #231f20"/>
        <path d="M230.48779,98.28174v0.41992l-2.36328,1.4043v0.01563q0.15015-.01172.29883-0.01953c0.08447-.00537.17334-0.00928,0.26563-0.0127s0.17578-.00488.25-0.00488h1.54883v0.33594h-2.85547v-0.416l2.35156-1.39844V98.59229q-0.14868.00586-.293,0.01367c-0.0415.00146-.08447,0.00293-0.12793,0.00488l-0.13086.00586c-0.04346.002-.08545,0.00342-0.126,0.00391s-0.07764.001-.11133,0.001h-1.5625V98.28174h2.85547Z" transform="translate(-214.11879 -86.54788)" style="fill: #231f20"/>
        <path d="M230.48779,95.57666v0.41211l-1.36328.88086,0.22266,0.27148h1.14063v0.36328h-2.85547V97.14111h1.42773l-0.32812-.23633-1.09961-.88281v-0.4082l1.24414,1.01563Z" transform="translate(-214.11879 -86.54788)" style="fill: #231f20"/>
        <path d="M230.48779,93.70557V95.188h-2.85547V93.70557h0.32031v1.11914h0.88281V93.77979h0.31641v1.04492h1.01563V93.70557h0.32031Z" transform="translate(-214.11879 -86.54788)" style="fill: #231f20"/>
        <path d="M229.30811,92.71338h1.17969v0.36328h-2.85547V92.38135a1.20756,1.20756,0,0,1,.20117-0.76758,0.73808,0.73808,0,0,1,.60938-0.248,0.8431,0.8431,0,0,1,.29688.04785,0.70665,0.70665,0,0,1,.21777.127,0.74341,0.74341,0,0,1,.15137.18066,1.20141,1.20141,0,0,1,.09961.209l1.2793-.77734v0.42773l-1.17969.68555v0.44727Zm-0.30859,0V92.39307a1.12316,1.12316,0,0,0-.03418-0.29883,0.525,0.525,0,0,0-.10156-0.20215,0.389,0.389,0,0,0-.168-0.11523,0.69918,0.69918,0,0,0-.23535-0.03613,0.62505,0.62505,0,0,0-.23828.04,0.38055,0.38055,0,0,0-.16016.12109,0.52832,0.52832,0,0,0-.09082.20508,1.32407,1.32407,0,0,0-.02832.29395v0.3125h1.05664Z" transform="translate(-214.11879 -86.54788)" style="fill: #231f20"/>
      </g>
      <g>
        <path d="M245.33838,119.06055v0.90527h-0.17383l-0.07031-.293h-2.00977l-0.07031.293h-0.17383v-0.90527h0.17383l0.07031,0.29395h2.00977l0.07031-.29395h0.17383Z" transform="translate(-214.11879 -86.54788)" style="fill: #231f20"/>
        <path d="M244.67041,117.26465a0.6994,0.6994,0,0,1,.2959.05957,0.59749,0.59749,0,0,1,.22168.168,0.75005,0.75005,0,0,1,.1377.2666,1.23452,1.23452,0,0,1,.04688.35352,1.92609,1.92609,0,0,1-.03027.35449,0.94874,0.94874,0,0,1-.08789.27637h-0.30371c0.01758-.03906.03613-0.083,0.05371-0.13281,0.01758-.04883.0332-0.10156,0.04688-0.15625s0.02441-.11133.0332-0.16895a1.144,1.144,0,0,0,.0127-0.17285,0.65514,0.65514,0,0,0-.10254-0.4043,0.35185,0.35185,0,0,0-.29395-0.13086,0.46311,0.46311,0,0,0-.16016.02539,0.32247,0.32247,0,0,0-.126.08691,0.79751,0.79751,0,0,0-.11133.167c-0.03516.06934-.07422,0.15723-0.11719,0.2627a1.55437,1.55437,0,0,1-.12988.26465,0.78467,0.78467,0,0,1-.16016.18457,0.60061,0.60061,0,0,1-.20215.10742,0.853,0.853,0,0,1-.25586.03516,0.63733,0.63733,0,0,1-.26855-0.05469,0.57123,0.57123,0,0,1-.19922-0.1543,0.7066,0.7066,0,0,1-.124-0.23633,1.02865,1.02865,0,0,1-.042-0.30371,1.60145,1.60145,0,0,1,.03809-0.36523,1.431,1.431,0,0,1,.09863-0.28906l0.2666,0.11426a1.61285,1.61285,0,0,0-.08691.252,1.16118,1.16118,0,0,0-.03613.292,0.48465,0.48465,0,0,0,.09668.32227,0.32176,0.32176,0,0,0,.26074.11523,0.5107,0.5107,0,0,0,.168-0.02539,0.34045,0.34045,0,0,0,.12793-0.08594,0.666,0.666,0,0,0,.10742-0.1582c0.03418-.06543.06934-0.14648,0.10742-0.24219a2.41147,2.41147,0,0,1,.126-0.27246,0.83928,0.83928,0,0,1,.14746-0.19531,0.55613,0.55613,0,0,1,.18945-0.11914A0.735,0.735,0,0,1,244.67041,117.26465Z" transform="translate(-214.11879 -86.54788)" style="fill: #231f20"/>
        <path d="M245.33838,115.73242l-2.1875.75684v0.01367c0.084-.00684.168-0.0127,0.251-0.01758,0.07227-.00391.14746-0.00781,0.22656-0.01074s0.15137-.00391.21582-0.00391h1.49414v0.29395h-2.498V116.293l2.03711-.7041v-0.01074l-2.03711-.707v-0.47168h2.498v0.31738h-1.51562c-0.05957,0-.127-0.001-0.20312-0.00293-0.07715-.00293-0.14941-0.00586-0.21875-0.00879q-0.12158-.00732-0.24609-0.01172V114.707l2.18359,0.76367v0.26172Z" transform="translate(-214.11879 -86.54788)" style="fill: #231f20"/>
        <path d="M243.65186,113.80859a0.3116,0.3116,0,0,1-.1123-0.01758,0.18437,0.18437,0,0,1-.07324-0.0459,0.1668,0.1668,0,0,1-.04-0.06836,0.29975,0.29975,0,0,1-.01172-0.08594,0.29582,0.29582,0,0,1,.01172-0.084,0.16422,0.16422,0,0,1,.04-0.06934,0.18437,0.18437,0,0,1,.07324-0.0459,0.3116,0.3116,0,0,1,.1123-0.01758,0.2911,0.2911,0,0,1,.10742.01758,0.19931,0.19931,0,0,1,.07324.0459,0.16991,0.16991,0,0,1,.043.06934,0.26556,0.26556,0,0,1,.01367.084,0.26872,0.26872,0,0,1-.01367.08594,0.17306,0.17306,0,0,1-.043.06836,0.19931,0.19931,0,0,1-.07324.0459A0.2911,0.2911,0,0,1,243.65186,113.80859Zm1.49707,0a0.304,0.304,0,0,1-.11035-0.01758,0.18437,0.18437,0,0,1-.07324-0.0459,0.1587,0.1587,0,0,1-.041-0.06836,0.26872,0.26872,0,0,1-.01367-0.08594,0.26556,0.26556,0,0,1,.01367-0.084,0.15645,0.15645,0,0,1,.041-0.06934,0.18437,0.18437,0,0,1,.07324-0.0459,0.304,0.304,0,0,1,.11035-0.01758,0.30024,0.30024,0,0,1,.1084.01758,0.19557,0.19557,0,0,1,.07422.0459,0.18093,0.18093,0,0,1,.043.06934,0.26556,0.26556,0,0,1,.01367.084,0.26872,0.26872,0,0,1-.01367.08594,0.18475,0.18475,0,0,1-.043.06836,0.19557,0.19557,0,0,1-.07422.0459A0.30024,0.30024,0,0,1,245.14893,113.80859Z" transform="translate(-214.11879 -86.54788)" style="fill: #231f20"/>
        <path d="M244.77783,110.35449v0.36328h0.56055v0.30078h-0.56055v1.1543h-0.27148L242.82666,111.04v-0.32227h1.668v-0.36328h0.2832Zm-0.2832.66406h-0.60937c-0.06348,0-.12988,0-0.2002-0.002l-0.20508-.00586c-0.06641-.00293-0.12891-0.00488-0.1875-0.00781C243.23486,111,243.186,110.998,243.147,110.99707v0.01563q0.03516,0.01172.07617,0.0293c0.02832,0.01172.05664,0.02539,0.084,0.03906,0.02832,0.01465.05469,0.0293,0.08105,0.04395s0.04883,0.02832.06738,0.041l1.03906,0.70215v-0.84961Z" transform="translate(-214.11879 -86.54788)" style="fill: #231f20"/>
        <path d="M245.33838,109.06934v0.30078h-1.56055c-0.04883,0-.10156-0.001-0.15723-0.001-0.05566-.001-0.11133-0.002-0.166-0.00391-0.05566-.001-0.1084-0.00293-0.15918-0.00488s-0.0957-.00293-0.13477-0.00391c0.02148,0.01953.03906,0.03613,0.05371,0.05078s0.02832,0.03027.042,0.0459l0.04395,0.04785c0.01563,0.01758.0332,0.03809,0.05371,0.0625l0.207,0.252-0.21.16406-0.51074-.6543v-0.25586h2.498Z" transform="translate(-214.11879 -86.54788)" style="fill: #231f20"/>
        <path d="M244.08545,106.59277a3.01334,3.01334,0,0,1,.542.04395,1.22833,1.22833,0,0,1,.40527.13965,0.68061,0.68061,0,0,1,.25293.249,0.73723,0.73723,0,0,1,.08691.36914,0.6889,0.6889,0,0,1-.08691.35059,0.7007,0.7007,0,0,1-.25293.248,1.32368,1.32368,0,0,1-.40527.14746,2.7487,2.7487,0,0,1-.542.04785,3.03431,3.03431,0,0,1-.542-0.043,1.2539,1.2539,0,0,1-.40332-0.13867,0.67356,0.67356,0,0,1-.25293-0.24609,0.72581,0.72581,0,0,1-.08691-0.36621,0.66287,0.66287,0,0,1,.33789-0.60352,1.27452,1.27452,0,0,1,.4043-0.14844A2.67809,2.67809,0,0,1,244.08545,106.59277Zm0,1.28027a3.33582,3.33582,0,0,0,.44824-0.02637,1.15014,1.15014,0,0,0,.31836-0.082,0.43984,0.43984,0,0,0,.19141-0.14746,0.37484,0.37484,0,0,0,.06445-0.22266,0.38451,0.38451,0,0,0-.06348-0.22363,0.44727,0.44727,0,0,0-.18945-0.15137,1.09972,1.09972,0,0,0-.31934-0.08594,3.35642,3.35642,0,0,0-.4502-0.02637,3.31017,3.31017,0,0,0-.44727.02637,1.10128,1.10128,0,0,0-.31836.08594,0.44727,0.44727,0,0,0-.18945.15137,0.424,0.424,0,0,0,0,.44629,0.43352,0.43352,0,0,0,.18945.14746,1.14094,1.14094,0,0,0,.31836.082A3.31019,3.31019,0,0,0,244.08545,107.873Z" transform="translate(-214.11879 -86.54788)" style="fill: #231f20"/>
        <path d="M244.54346,106.28809h-0.28711v-0.84766h0.28711v0.84766Z" transform="translate(-214.11879 -86.54788)" style="fill: #231f20"/>
        <path d="M243.80518,104.37109a1.03087,1.03087,0,0,1,.04688-0.31543,0.73793,0.73793,0,0,1,.13965-0.25391,0.6405,0.6405,0,0,1,.22949-0.1709,0.76073,0.76073,0,0,1,.31543-0.06055,0.989,0.989,0,0,1,.35059.05762,0.69678,0.69678,0,0,1,.26367.17285,0.766,0.766,0,0,1,.16406.28223,1.20393,1.20393,0,0,1,.05762.3877,1.674,1.674,0,0,1-.00879.17188c-0.00586.05566-.01367,0.11035-0.02441,0.16211a0.99171,0.99171,0,0,1-.042.14746,0.80468,0.80468,0,0,1-.05957.127h-0.29395a0.73451,0.73451,0,0,0,.07031-0.13281,1.318,1.318,0,0,0,.05078-0.15918,1.465,1.465,0,0,0,.03125-0.16895,1.14632,1.14632,0,0,0,.01172-0.15625,0.83366,0.83366,0,0,0-.03223-0.24121,0.46423,0.46423,0,0,0-.09766-0.17969,0.44241,0.44241,0,0,0-.168-0.1123,0.65353,0.65353,0,0,0-.23926-0.03906,0.46284,0.46284,0,0,0-.373.15039,0.65353,0.65353,0,0,0-.12891.4375c0,0.03027.001,0.06348,0.00391,0.09961s0.00684,0.07227.01172,0.10742c0.00391,0.03613.00879,0.07031,0.01367,0.10254,0.00586,0.0332.01074,0.06055,0.01465,0.085l-0.09668.15332-1.17578-.09375v-1.17871h0.2832v0.90918l0.71582,0.06641c-0.00684-.03613-0.01367-0.085-0.02246-0.14453A1.66881,1.66881,0,0,1,243.80518,104.37109Z" transform="translate(-214.11879 -86.54788)" style="fill: #231f20"/>
        <path d="M245.33838,101.65234v1.55859h-0.2666l-0.65137-.59766c-0.0918-.08594-0.17676-0.16211-0.25293-0.22949a1.9353,1.9353,0,0,0-.22363-0.17187,1.04129,1.04129,0,0,0-.21973-0.1084,0.72913,0.72913,0,0,0-.24023-0.03711,0.49928,0.49928,0,0,0-.17773.02832,0.35221,0.35221,0,0,0-.21191.21,0.48987,0.48987,0,0,0-.02734.16406,0.64732,0.64732,0,0,0,.06641.29395,1.19414,1.19414,0,0,0,.168.248l-0.20312.1748a1.32433,1.32433,0,0,1-.11523-0.14746,0.97416,0.97416,0,0,1-.09375-0.16895,1.09789,1.09789,0,0,1-.0625-0.19141,0.99271,0.99271,0,0,1-.02246-0.21191,0.88937,0.88937,0,0,1,.0459-0.29687,0.63475,0.63475,0,0,1,.13281-0.22461,0.58885,0.58885,0,0,1,.21-0.14258,0.74152,0.74152,0,0,1,.2793-0.0498,0.83673,0.83673,0,0,1,.27637.04492,1.24094,1.24094,0,0,1,.25977.125,2.044,2.044,0,0,1,.25488.18945c0.08594,0.07324.1748,0.15234,0.2666,0.23828l0.51172,0.48047h0.01367v-1.17773h0.2832Z" transform="translate(-214.11879 -86.54788)" style="fill: #231f20"/>
        <path d="M243.80518,100.51563a1.03087,1.03087,0,0,1,.04688-0.31543,0.73793,0.73793,0,0,1,.13965-0.25391,0.6405,0.6405,0,0,1,.22949-0.1709,0.76073,0.76073,0,0,1,.31543-0.06055,0.989,0.989,0,0,1,.35059.05762,0.69678,0.69678,0,0,1,.26367.17285,0.766,0.766,0,0,1,.16406.28223,1.20393,1.20393,0,0,1,.05762.3877,1.674,1.674,0,0,1-.00879.17188c-0.00586.05566-.01367,0.11035-0.02441,0.16211a0.99171,0.99171,0,0,1-.042.14746,0.80468,0.80468,0,0,1-.05957.127h-0.29395a0.7345,0.7345,0,0,0,.07031-0.13281,1.318,1.318,0,0,0,.05078-0.15918,1.465,1.465,0,0,0,.03125-0.16895,1.14631,1.14631,0,0,0,.01172-0.15625,0.83366,0.83366,0,0,0-.03223-0.24121,0.46423,0.46423,0,0,0-.09766-0.17969,0.44241,0.44241,0,0,0-.168-0.1123,0.65353,0.65353,0,0,0-.23926-0.03906,0.46284,0.46284,0,0,0-.373.15039,0.65353,0.65353,0,0,0-.12891.4375c0,0.03027.001,0.06348,0.00391,0.09961s0.00684,0.07227.01172,0.10742c0.00391,0.03613.00879,0.07031,0.01367,0.10254,0.00586,0.0332.01074,0.06055,0.01465,0.085l-0.09668.15332-1.17578-.09375V99.89746h0.2832v0.90918l0.71582,0.06641c-0.00684-.03613-0.01367-0.085-0.02246-0.14453A1.66881,1.66881,0,0,1,243.80518,100.51563Z" transform="translate(-214.11879 -86.54788)" style="fill: #231f20"/>
        <path d="M245.33838,98.14746l-2.1875.75684V98.918c0.084-.00684.168-0.0127,0.251-0.01758,0.07227-.00391.14746-0.00781,0.22656-0.01074s0.15137-.00391.21582-0.00391h1.49414v0.29395h-2.498V98.708l2.03711-.7041V97.99316l-2.03711-.707V96.81445h2.498v0.31738h-1.51562c-0.05957,0-.127-0.001-0.20312-0.00293-0.07715-.00293-0.14941-0.00586-0.21875-0.00879q-0.12158-.00732-0.24609-0.01172v0.01367l2.18359,0.76367v0.26172Z" transform="translate(-214.11879 -86.54788)" style="fill: #231f20"/>
        <path d="M245.33838,94.35938v0.31836h-1.166v1.1377h1.166v0.31836h-2.498V95.81543h1.05273v-1.1377h-1.05273V94.35938h2.498Z" transform="translate(-214.11879 -86.54788)" style="fill: #231f20"/>
        <path d="M245.33838,92.61621v1.2627h-0.21387l-1.42871-.916v0.86035h-0.23437V92.64746h0.25L245.104,93.543V92.61621h0.23438Z" transform="translate(-214.11879 -86.54788)" style="fill: #231f20"/>
        <path d="M247.771,118.26953a0.9582,0.9582,0,0,1,.2998.04688,0.657,0.657,0,0,1,.25391.1543,0.77007,0.77007,0,0,1,.17578.28516,1.25341,1.25341,0,0,1,.06543.43652v0.25586h0.97266v0.31836h-2.498v-0.61914a1.42086,1.42086,0,0,1,.04785-0.39453,0.73371,0.73371,0,0,1,.14258-0.27344,0.55077,0.55077,0,0,1,.22949-0.15918A0.88152,0.88152,0,0,1,247.771,118.26953Zm0.52539,1.17871v-0.2207a1.28746,1.28746,0,0,0-.02734-0.27734,0.50508,0.50508,0,0,0-.08789-0.19629,0.37937,0.37937,0,0,0-.15723-0.11719,0.62489,0.62489,0,0,0-.23535-0.03906,0.44293,0.44293,0,0,0-.35937.13965,0.67509,0.67509,0,0,0-.11719.4375v0.27344h0.98438Z" transform="translate(-214.11879 -86.54788)" style="fill: #231f20"/>
        <path d="M249.53857,116.42676l-0.77441.27344v0.93164l0.77441,0.27637v0.32129l-2.50879-.918v-0.29l2.50879-.91992v0.3252Zm-1.05664.374-0.72461.25293c-0.01953.00684-.04492,0.01465-0.07422,0.02441-0.03027.00977-.0625,0.02051-0.0957,0.03027-0.03516.00977-.07031,0.02051-0.10742,0.03125-0.03711.00977-.07324,0.01953-0.1084,0.02832,0.03516,0.00781.07129,0.01758,0.10938,0.02734,0.03809,0.01074.07422,0.02051,0.1084,0.03125,0.03516,0.00977.06641,0.01953,0.0957,0.0293s0.05371,0.01855.07227,0.02539l0.72461,0.24707v-0.72754Z" transform="translate(-214.11879 -86.54788)" style="fill: #231f20"/>
        <path d="M247.85205,115.85156a0.3116,0.3116,0,0,1-.1123-0.01758,0.18437,0.18437,0,0,1-.07324-0.0459,0.1668,0.1668,0,0,1-.04-0.06836,0.29975,0.29975,0,0,1-.01172-0.08594,0.29582,0.29582,0,0,1,.01172-0.084,0.16422,0.16422,0,0,1,.04-0.06934,0.18437,0.18437,0,0,1,.07324-0.0459,0.3116,0.3116,0,0,1,.1123-0.01758,0.2911,0.2911,0,0,1,.10742.01758,0.19931,0.19931,0,0,1,.07324.0459,0.16991,0.16991,0,0,1,.043.06934,0.26556,0.26556,0,0,1,.01367.084,0.26872,0.26872,0,0,1-.01367.08594,0.17306,0.17306,0,0,1-.043.06836,0.19931,0.19931,0,0,1-.07324.0459A0.2911,0.2911,0,0,1,247.85205,115.85156Zm1.49707,0a0.304,0.304,0,0,1-.11035-0.01758,0.18437,0.18437,0,0,1-.07324-0.0459,0.1587,0.1587,0,0,1-.041-0.06836,0.26872,0.26872,0,0,1-.01367-0.08594,0.26556,0.26556,0,0,1,.01367-0.084,0.15645,0.15645,0,0,1,.041-0.06934,0.18437,0.18437,0,0,1,.07324-0.0459,0.304,0.304,0,0,1,.11035-0.01758,0.30024,0.30024,0,0,1,.1084.01758,0.19557,0.19557,0,0,1,.07422.0459,0.18093,0.18093,0,0,1,.043.06934,0.26556,0.26556,0,0,1,.01367.084,0.26872,0.26872,0,0,1-.01367.08594,0.18475,0.18475,0,0,1-.043.06836,0.19557,0.19557,0,0,1-.07422.0459A0.30024,0.30024,0,0,1,249.34912,115.85156Z" transform="translate(-214.11879 -86.54788)" style="fill: #231f20"/>
        <path d="M248.43311,113.41895v0.66211h-0.25684v-0.66211h-0.665v-0.25586h0.665V112.501h0.25684v0.66211h0.6582v0.25586h-0.6582Z" transform="translate(-214.11879 -86.54788)" style="fill: #231f20"/>
        <path d="M249.53857,111.1123v0.30078H247.978c-0.04883,0-.10156-0.001-0.15723-0.001-0.05566-.001-0.11133-0.002-0.166-0.00391-0.05566-.001-0.1084-0.00293-0.15918-0.00488s-0.0957-.00293-0.13477-0.00391c0.02148,0.01953.03906,0.03613,0.05371,0.05078s0.02832,0.03027.042,0.0459l0.04395,0.04785c0.01563,0.01758.0332,0.03809,0.05371,0.0625l0.207,0.252-0.21.16406-0.51074-.6543V111.1123h2.498Z" transform="translate(-214.11879 -86.54788)" style="fill: #231f20"/>
        <path d="M247.00049,109.43359a0.93838,0.93838,0,0,1,.03809-0.27051,0.66021,0.66021,0,0,1,.1123-0.22363,0.5442,0.5442,0,0,1,.18848-0.15332,0.58779,0.58779,0,0,1,.2627-0.05664,0.60163,0.60163,0,0,1,.207.03418,0.61133,0.61133,0,0,1,.167.09473,0.70844,0.70844,0,0,1,.13281.1416,1.32037,1.32037,0,0,1,.10742.17773,2.09414,2.09414,0,0,1,.11719-0.19434,0.97931,0.97931,0,0,1,.14648-0.16895,0.66772,0.66772,0,0,1,.18164-0.12012,0.54427,0.54427,0,0,1,.22559-0.04492,0.68861,0.68861,0,0,1,.28516.05762,0.61779,0.61779,0,0,1,.21582.16016,0.72624,0.72624,0,0,1,.13672.248,0.9947,0.9947,0,0,1,.04785.31836,1.11788,1.11788,0,0,1-.0459.334,0.69121,0.69121,0,0,1-.13281.24609,0.548,0.548,0,0,1-.21094.15234,0.71646,0.71646,0,0,1-.28223.05176,0.64411,0.64411,0,0,1-.415-0.1416,0.74967,0.74967,0,0,1-.14551-0.15332,1.252,1.252,0,0,1-.11035-0.18848,1.45358,1.45358,0,0,1-.11621.15723,0.74675,0.74675,0,0,1-.13867.12793,0.6919,0.6919,0,0,1-.16992.085,0.62919,0.62919,0,0,1-.20605.03125,0.56377,0.56377,0,0,1-.26074-0.05664,0.5546,0.5546,0,0,1-.1875-0.1543,0.67905,0.67905,0,0,1-.1123-0.22559A0.91944,0.91944,0,0,1,247.00049,109.43359Zm0.25977,0.00391a0.43156,0.43156,0,0,0,.09082.28809,0.3264,0.3264,0,0,0,.26367.10645,0.41471,0.41471,0,0,0,.167-0.03027,0.408,0.408,0,0,0,.125-0.082,0.59747,0.59747,0,0,0,.09766-0.12793q0.04395-.07471.085-0.16113a1.66128,1.66128,0,0,0-.082-0.15527,0.64789,0.64789,0,0,0-.10059-0.126,0.44305,0.44305,0,0,0-.12793-0.085,0.41983,0.41983,0,0,0-.16406-0.03027,0.324,0.324,0,0,0-.26367.10742A0.44476,0.44476,0,0,0,247.26025,109.4375Zm1.64453,0.47461a0.47763,0.47763,0,0,0,.166-0.02734,0.317,0.317,0,0,0,.12988-0.085,0.39453,0.39453,0,0,0,.084-0.14746,0.648,0.648,0,0,0,.03027-0.21191,0.66656,0.66656,0,0,0-.03027-0.21094,0.412,0.412,0,0,0-.085-0.15234,0.35131,0.35131,0,0,0-.13477-0.09277,0.47079,0.47079,0,0,0-.17383-0.03027,0.37451,0.37451,0,0,0-.16113.0332,0.4364,0.4364,0,0,0-.13281.0957,0.81668,0.81668,0,0,0-.11621.14941,2.19513,2.19513,0,0,0-.1084.19434l-0.02344.05176a0.91941,0.91941,0,0,0,.23535.32422A0.48285,0.48285,0,0,0,248.90479,109.91211Z" transform="translate(-214.11879 -86.54788)" style="fill: #231f20"/>
        <path d="M249.2876,107.01563v0.01367a0.83725,0.83725,0,0,1,.11035.08789,0.598,0.598,0,0,1,.09082.11621,0.57854,0.57854,0,0,1,.06152.14844,0.70537,0.70537,0,0,1,.02246.18359,0.67863,0.67863,0,0,1-.06152.291,0.60764,0.60764,0,0,1-.18359.22559,0.89689,0.89689,0,0,1-.30371.14551,1.54559,1.54559,0,0,1-.41992.05078,1.563,1.563,0,0,1-.42285-0.05078,0.8985,0.8985,0,0,1-.30566-0.14551,0.61311,0.61311,0,0,1-.18555-0.22559,0.67863,0.67863,0,0,1-.06152-0.291,0.70988,0.70988,0,0,1,.02148-0.18262,0.60645,0.60645,0,0,1,.06055-0.14746,0.55336,0.55336,0,0,1,.08691-0.11719,0.6814,0.6814,0,0,1,.10449-0.08887v-0.02051c-0.03906.00391-.07617,0.00684-0.11133,0.00977-0.03027.00293-.06055,0.00488-0.0918,0.00781-0.03125.002-.05566,0.00293-0.07422,0.00293h-0.74512v-0.31152h2.65918v0.252Zm0.02734,0.49023a0.54856,0.54856,0,0,0-.04-0.21973,0.33037,0.33037,0,0,0-.11914-0.14453,0.557,0.557,0,0,0-.20117-0.082,1.44165,1.44165,0,0,0-.28125-0.03027H248.604a1.789,1.789,0,0,0-.30664.02344,0.61988,0.61988,0,0,0-.22559.07813,0.36547,0.36547,0,0,0-.13867.14746,0.51148,0.51148,0,0,0-.04687.23145,0.36438,0.36438,0,0,0,.18555.33887,1.07942,1.07942,0,0,0,.53516.1084,1.03005,1.03005,0,0,0,.53223-0.1084A0.3731,0.3731,0,0,0,249.31494,107.50586Z" transform="translate(-214.11879 -86.54788)" style="fill: #231f20"/>
        <path d="M247.04053,106.08105v-0.68164a1.96442,1.96442,0,0,1,.0332-0.38574,0.75043,0.75043,0,0,1,.10742-0.27832,0.47072,0.47072,0,0,1,.19434-0.16895,0.70965,0.70965,0,0,1,.29688-0.05566,0.57479,0.57479,0,0,1,.19824.0332,0.47518,0.47518,0,0,1,.16211.0957,0.53389,0.53389,0,0,1,.11719.15723,0.63436,0.63436,0,0,1,.0625.21094H248.23a1.26964,1.26964,0,0,1,.05859-0.22168,0.56676,0.56676,0,0,1,.10547-0.17969,0.47442,0.47442,0,0,1,.16992-0.12207,0.63634,0.63634,0,0,1,.25-0.04395,0.78484,0.78484,0,0,1,.30469.05566,0.602,0.602,0,0,1,.22754.16016,0.716,0.716,0,0,1,.14258.25586,1.07682,1.07682,0,0,1,.0498.33984v0.8291h-2.498Zm1.05859-.31836v-0.417a0.94624,0.94624,0,0,0-.02539-0.24121,0.37755,0.37755,0,0,0-.07617-0.15625,0.27957,0.27957,0,0,0-.126-0.08691,0.53867,0.53867,0,0,0-.17676-0.02637,0.32764,0.32764,0,0,0-.29395.13184,0.75306,0.75306,0,0,0-.08887.415v0.38086h0.78711Zm0.26758,0H249.269v-0.4541a0.77531,0.77531,0,0,0-.03516-0.252,0.40781,0.40781,0,0,0-.0957-0.16406,0.34257,0.34257,0,0,0-.14746-0.08984,0.61888,0.61888,0,0,0-.19043-0.02734,0.51068,0.51068,0,0,0-.17578.02832,0.32043,0.32043,0,0,0-.1377.0918,0.43752,0.43752,0,0,0-.08887.16992,0.92426,0.92426,0,0,0-.03125.26367v0.43359Z" transform="translate(-214.11879 -86.54788)" style="fill: #231f20"/>
        <path d="M249.53857,101.70215h-1.208a0.53451,0.53451,0,0,0-.333.08594,0.31124,0.31124,0,0,0-.11133.26465,0.49753,0.49753,0,0,0,.04.21191,0.34992,0.34992,0,0,0,.11816.14258,0.51586,0.51586,0,0,0,.19238.08105,1.20763,1.20763,0,0,0,.2666.02637h1.03516v0.3125h-1.208a0.54823,0.54823,0,0,0-.333.084,0.31124,0.31124,0,0,0-.11133.26465,0.48917,0.48917,0,0,0,.04395.21973,0.35179,0.35179,0,0,0,.13184.14355,0.61315,0.61315,0,0,0,.21387.07617,1.59905,1.59905,0,0,0,.29.02344h0.97266v0.31152h-1.877v-0.25391l0.25391-.04395v-0.0166a0.54042,0.54042,0,0,1-.12793-0.09766,0.58158,0.58158,0,0,1-.08984-0.124,0.60119,0.60119,0,0,1-.05273-0.14355,0.68507,0.68507,0,0,1-.0166-0.1543,0.70543,0.70543,0,0,1,.07422-0.3418,0.455,0.455,0,0,1,.23633-0.2002v-0.01367a0.56569,0.56569,0,0,1-.13867-0.10742,0.641,0.641,0,0,1-.09668-0.13672,0.66347,0.66347,0,0,1-.05664-0.15625,0.73566,0.73566,0,0,1-.01855-0.167,0.5819,0.5819,0,0,1,.16309-0.4502,0.74616,0.74616,0,0,1,.52148-0.15137h1.22559v0.31055Z" transform="translate(-214.11879 -86.54788)" style="fill: #231f20"/>
        <path d="M253.73779,119.7666h-2.498v-0.31836h2.21484v-0.97852h0.2832v1.29688Z" transform="translate(-214.11879 -86.54788)" style="fill: #231f20"/>
        <path d="M252.79639,116.56055a1.386,1.386,0,0,1,.416.05762,0.84809,0.84809,0,0,1,.30566.16406,0.69015,0.69015,0,0,1,.18848.25879,0.85339,0.85339,0,0,1,.06543.3418,0.79637,0.79637,0,0,1-.06543.3252,0.71551,0.71551,0,0,1-.18848.25684,0.87068,0.87068,0,0,1-.30566.16895,1.29565,1.29565,0,0,1-.416.06055,1.36737,1.36737,0,0,1-.41309-0.05664,0.84711,0.84711,0,0,1-.30371-0.16406,0.6751,0.6751,0,0,1-.18848-0.25879,0.87182,0.87182,0,0,1-.06348-0.34277,0.807,0.807,0,0,1,.06348-0.32422,0.7072,0.7072,0,0,1,.18848-0.25684,0.88747,0.88747,0,0,1,.30371-0.16992A1.30431,1.30431,0,0,1,252.79639,116.56055Zm0,1.3125a0.994,0.994,0,0,0,.53711-0.11719,0.4887,0.4887,0,0,0,0-.75879,1.01391,1.01391,0,0,0-.53711-0.11523,0.97819,0.97819,0,0,0-.53418.11719,0.42243,0.42243,0,0,0-.17676.38086,0.41719,0.41719,0,0,0,.17676.37793A0.98866,0.98866,0,0,0,252.79639,117.873Z" transform="translate(-214.11879 -86.54788)" style="fill: #231f20"/>
        <path d="M252.70557,115.71h1.03223v0.31836h-2.498v-0.6084a1.05725,1.05725,0,0,1,.17578-0.67187,0.64579,0.64579,0,0,1,.5332-0.2168,0.72834,0.72834,0,0,1,.25977.042,0.60635,0.60635,0,0,1,.19043.11035,0.67685,0.67685,0,0,1,.13184.1582,1.07948,1.07948,0,0,1,.08789.18262l1.11914-.67969v0.374l-1.03223.60059V115.71Zm-0.27051,0v-0.28027a0.9997,0.9997,0,0,0-.0293-0.26074,0.47479,0.47479,0,0,0-.08887-0.17773,0.3465,0.3465,0,0,0-.14746-0.10059,0.62013,0.62013,0,0,0-.20508-0.03125,0.55,0.55,0,0,0-.209.03516,0.34374,0.34374,0,0,0-.14062.10547,0.46744,0.46744,0,0,0-.0791.17969,1.164,1.164,0,0,0-.02441.25684V115.71h0.92383Z" transform="translate(-214.11879 -86.54788)" style="fill: #231f20"/>
        <path d="M253.73779,112.94824l-0.25977.06348v0.01367a1.24635,1.24635,0,0,1,.13281.1123,0.541,0.541,0,0,1,.09082.123,0.55358,0.55358,0,0,1,.05371.14941,0.99077,0.99077,0,0,1,.0166.18945,0.66439,0.66439,0,0,1-.0332.2168,0.456,0.456,0,0,1-.10254.17188,0.46928,0.46928,0,0,1-.1748.11426,0.67674,0.67674,0,0,1-.248.041,0.50742,0.50742,0,0,1-.43066-0.19824,1.03914,1.03914,0,0,1-.16406-0.60059l-0.01172-.31445h-0.11816a0.62651,0.62651,0,0,0-.19141.02539,0.301,0.301,0,0,0-.124.07129,0.2708,0.2708,0,0,0-.06738.11621,0.555,0.555,0,0,0-.02051.1582,0.82,0.82,0,0,0,.041.26367,1.73193,1.73193,0,0,0,.09863.23535l-0.2334.10938a1.54966,1.54966,0,0,1-.11719-0.28223,1.12093,1.12093,0,0,1-.04687-0.32617,1.14627,1.14627,0,0,1,.03418-0.30176,0.4973,0.4973,0,0,1,.11133-0.21,0.46,0.46,0,0,1,.19434-0.124,0.87127,0.87127,0,0,1,.28516-0.041h1.28516v0.22363Zm-0.2168.57129a0.54351,0.54351,0,0,0-.0332-0.19336,0.40051,0.40051,0,0,0-.09766-0.15332,0.4514,0.4514,0,0,0-.166-0.10254,0.67941,0.67941,0,0,0-.23437-0.03613h-0.16992l0.01172,0.24414a1.2449,1.2449,0,0,0,.03516.25781,0.45672,0.45672,0,0,0,.0752.167,0.292,0.292,0,0,0,.11816.08984,0.43672,0.43672,0,0,0,.15625.02734,0.29346,0.29346,0,0,0,.23047-0.083A0.31345,0.31345,0,0,0,253.521,113.51953Z" transform="translate(-214.11879 -86.54788)" style="fill: #231f20"/>
        <path d="M251.23975,111.17676l2.498,0.92969v0.30566l-2.498-.93164v-0.30371Z" transform="translate(-214.11879 -86.54788)" style="fill: #231f20"/>
        <path d="M253.73779,110.48242v0.31836h-2.498v-1.29687h0.2793v0.97852h0.88281v-0.91406h0.2793v0.91406h1.05664Z" transform="translate(-214.11879 -86.54788)" style="fill: #231f20"/>
        <path d="M253.06982,107.76465a0.6994,0.6994,0,0,1,.2959.05957,0.59749,0.59749,0,0,1,.22168.168,0.75006,0.75006,0,0,1,.1377.2666,1.23452,1.23452,0,0,1,.04688.35352,1.92609,1.92609,0,0,1-.03027.35449,0.94874,0.94874,0,0,1-.08789.27637H253.3501c0.01758-.03906.03613-0.083,0.05371-0.13281,0.01758-.04883.0332-0.10156,0.04688-0.15625s0.02441-.11133.0332-0.16895a1.144,1.144,0,0,0,.0127-0.17285,0.65514,0.65514,0,0,0-.10254-0.4043,0.35185,0.35185,0,0,0-.29395-0.13086,0.46311,0.46311,0,0,0-.16016.02539,0.32247,0.32247,0,0,0-.126.08691,0.79751,0.79751,0,0,0-.11133.167c-0.03516.06934-.07422,0.15723-0.11719,0.2627a1.55437,1.55437,0,0,1-.12988.26465,0.78468,0.78468,0,0,1-.16016.18457,0.60061,0.60061,0,0,1-.20215.10742,0.853,0.853,0,0,1-.25586.03516,0.63733,0.63733,0,0,1-.26855-0.05469,0.57123,0.57123,0,0,1-.19922-0.1543,0.7066,0.7066,0,0,1-.124-0.23633,1.02865,1.02865,0,0,1-.042-0.30371,1.60146,1.60146,0,0,1,.03809-0.36523,1.431,1.431,0,0,1,.09863-0.28906l0.2666,0.11426a1.61286,1.61286,0,0,0-.08691.252,1.16119,1.16119,0,0,0-.03613.292,0.48465,0.48465,0,0,0,.09668.32227,0.32176,0.32176,0,0,0,.26074.11523,0.5107,0.5107,0,0,0,.168-0.02539,0.34045,0.34045,0,0,0,.12793-0.08594,0.666,0.666,0,0,0,.10742-0.1582c0.03418-.06543.06934-0.14648,0.10742-0.24219a2.41149,2.41149,0,0,1,.126-0.27246,0.83928,0.83928,0,0,1,.14746-0.19531,0.55612,0.55612,0,0,1,.18945-0.11914A0.735,0.735,0,0,1,253.06982,107.76465Z" transform="translate(-214.11879 -86.54788)" style="fill: #231f20"/>
        <path d="M253.73779,105.57715v0.36133l-1.19336.77051,0.19531,0.2373h0.998v0.31836h-2.498v-0.31836h1.249l-0.28711-.207-0.96191-.77148v-0.35742l1.08789,0.88867Z" transform="translate(-214.11879 -86.54788)" style="fill: #231f20"/>
        <path d="M251.23975,104.30762l2.498,0.92969V105.543l-2.498-.93164v-0.30371Z" transform="translate(-214.11879 -86.54788)" style="fill: #231f20"/>
        <path d="M252.48486,102.50781a3.01334,3.01334,0,0,1,.542.04395,1.22833,1.22833,0,0,1,.40527.13965,0.68061,0.68061,0,0,1,.25293.249,0.73723,0.73723,0,0,1,.08691.36914,0.6889,0.6889,0,0,1-.08691.35059,0.7007,0.7007,0,0,1-.25293.248,1.32368,1.32368,0,0,1-.40527.14746,2.74871,2.74871,0,0,1-.542.04785,3.03431,3.03431,0,0,1-.542-0.043,1.2539,1.2539,0,0,1-.40332-0.13867,0.67356,0.67356,0,0,1-.25293-0.24609,0.72581,0.72581,0,0,1-.08691-0.36621,0.66287,0.66287,0,0,1,.33789-0.60352,1.27451,1.27451,0,0,1,.4043-0.14844A2.67809,2.67809,0,0,1,252.48486,102.50781Zm0,1.28027a3.33582,3.33582,0,0,0,.44824-0.02637,1.15014,1.15014,0,0,0,.31836-0.082,0.43984,0.43984,0,0,0,.19141-0.14746,0.37484,0.37484,0,0,0,.06445-0.22266,0.38451,0.38451,0,0,0-.06348-0.22363,0.44727,0.44727,0,0,0-.18945-0.15137,1.09972,1.09972,0,0,0-.31934-0.08594,3.35644,3.35644,0,0,0-.4502-0.02637,3.31019,3.31019,0,0,0-.44727.02637,1.10128,1.10128,0,0,0-.31836.08594,0.44727,0.44727,0,0,0-.18945.15137,0.424,0.424,0,0,0,0,.44629,0.43352,0.43352,0,0,0,.18945.14746,1.14095,1.14095,0,0,0,.31836.082A3.31019,3.31019,0,0,0,252.48486,103.78809Z" transform="translate(-214.11879 -86.54788)" style="fill: #231f20"/>
        <path d="M252.48486,100.58008a3.01335,3.01335,0,0,1,.542.04395,1.22833,1.22833,0,0,1,.40527.13965,0.68061,0.68061,0,0,1,.25293.249,0.73723,0.73723,0,0,1,.08691.36914,0.6889,0.6889,0,0,1-.08691.35059,0.7007,0.7007,0,0,1-.25293.248,1.32368,1.32368,0,0,1-.40527.14746,2.7487,2.7487,0,0,1-.542.04785,3.03431,3.03431,0,0,1-.542-0.043,1.2539,1.2539,0,0,1-.40332-0.13867,0.67356,0.67356,0,0,1-.25293-0.24609,0.72581,0.72581,0,0,1-.08691-0.36621,0.66287,0.66287,0,0,1,.33789-0.60352,1.27451,1.27451,0,0,1,.4043-0.14844A2.67809,2.67809,0,0,1,252.48486,100.58008Zm0,1.28027a3.33582,3.33582,0,0,0,.44824-0.02637,1.15014,1.15014,0,0,0,.31836-0.082,0.43984,0.43984,0,0,0,.19141-0.14746,0.37484,0.37484,0,0,0,.06445-0.22266,0.38451,0.38451,0,0,0-.06348-0.22363,0.44727,0.44727,0,0,0-.18945-0.15137,1.09972,1.09972,0,0,0-.31934-0.08594,3.35644,3.35644,0,0,0-.4502-0.02637,3.31019,3.31019,0,0,0-.44727.02637,1.10129,1.10129,0,0,0-.31836.08594,0.44727,0.44727,0,0,0-.18945.15137,0.424,0.424,0,0,0,0,.44629,0.43352,0.43352,0,0,0,.18945.14746,1.14094,1.14094,0,0,0,.31836.082A3.31019,3.31019,0,0,0,252.48486,101.86035Z" transform="translate(-214.11879 -86.54788)" style="fill: #231f20"/>
        <path d="M253.73779,98.38867V98.75l-1.19336.77051,0.19531,0.2373h0.998v0.31836h-2.498V99.75781h1.249l-0.28711-.207-0.96191-.77148V98.42188l1.08789,0.88867Z" transform="translate(-214.11879 -86.54788)" style="fill: #231f20"/>
      </g>
      <g>
        <path d="M226.89733,114.77255h0.88379c0.04257,0.00922.08473,0.02165,0.12778,0.02713,0.28665,0.03647.57688,0.05417,0.85971,0.10973a7.55717,7.55717,0,0,1,6.13848,7.32925,7.17131,7.17131,0,0,1-.31435,2.21849,7.55926,7.55926,0,0,1-7.03141,5.39287,7.03516,7.03516,0,0,1-3.52847-.77878,7.4292,7.4292,0,0,1-4.14986-5.88155c-0.01588-.11545-0.03719-0.23015-0.056-0.3452v-1.00163c0.03008-.217.0585-0.43432,0.09052-0.65106a7.388,7.388,0,0,1,1.232-3.13236,7.48406,7.48406,0,0,1,2.33473-2.20436,7.223,7.223,0,0,1,2.617-.96717C226.36607,114.8459,226.63195,114.81081,226.89733,114.77255Zm4.93034,12.29585c0.00314-.04513.00951-0.09639,0.00984-0.14769q0.005-.77313.00815-1.54627c0.001-.22691.00064-0.22953-0.2238-0.22726-0.78534.008-1.57071,0.01522-2.35594,0.02975a0.13587,0.13587,0,0,1-.17054-0.16584c0.00711-.21576.00124-0.43192,0.00176-0.64792,0.00058-.23838.00715-0.24574,0.24072-0.2136q0.802,0.11035,1.60333.22505c0.32141,0.0464.31313,0.04491,0.45832-.2368,0.09215-.1788.16074-0.41144,0.46207-0.3268V122.27c-0.055.0633-.09295,0.09944-0.12191,0.14175a0.68737,0.68737,0,0,1-.52713.2946,45.07742,45.07742,0,0,0-4.49117.7025c-1.17625.27044-2.3587,0.514-3.53927,0.76538a0.15919,0.15919,0,0,0-.14878.19015,5.39013,5.39013,0,0,1-.00141.55935,0.20107,0.20107,0,0,0,.1915.248c0.52759,0.11335,1.05414.23306,1.57722,0.36559a58.10815,58.10815,0,0,0,6.22056,1.22936,0.9519,0.9519,0,0,1,.77315.308Zm0.05715-7.11809h0.00754c0-.16688.00975-0.33462-0.00483-0.50022a0.23522,0.23522,0,0,0-.10322-0.1791,0.24518,0.24518,0,0,0-.21.07446,2.33,2.33,0,0,0-.23183.422,0.13815,0.13815,0,0,1-.17628.10364c-0.173-.0351-0.34675-0.07007-0.52191-0.08972-0.89206-.1001-1.78409-0.201-2.67726-0.29044a4.1731,4.1731,0,0,0-2.2728.32729,0.39224,0.39224,0,0,1-.61292-0.1668c-0.021-.02718-0.04152-0.05495-0.06476-0.08013-0.122-.13222-0.18324-0.12682-0.32158-0.01354-0.10282.08419-.22613,0.14289-0.33616,0.219a0.51176,0.51176,0,0,0-.16055.1439,0.67367,0.67367,0,0,0,.28748.78728,0.56231,0.56231,0,0,0,.64794-0.12418c0.198-.25054.2033-0.25155,0.48861-0.10157,0.05647,0.02968.11379,0.05775,0.17009,0.08773a1.22432,1.22432,0,0,0,.70861.144,6.72393,6.72393,0,0,1,.76281-0.00763c0.32245,0.0073.64546,0.04572,0.9668,0.03347,0.4551-.01735.90832-0.087,1.36339-0.10135,0.70631-.02222,1.41348-0.01929,2.1203-0.02036,0.12642-.00019.17838-0.03719,0.17237-0.16722C231.879,120.28425,231.88482,120.11715,231.88482,119.95031Zm-7.90938-2.35838c0.00016-.1921-0.01779-0.212-0.197-0.19584a2.00593,2.00593,0,0,0-.89856.29728,2.07508,2.07508,0,0,0-1.012,1.63534,0.20848,0.20848,0,0,0,.0386.15827,0.2135,0.2135,0,0,0,.32883-0.15312,1.73277,1.73277,0,0,1,1.56819-1.57165C223.93282,117.74818,223.99806,117.71079,223.97545,117.59194Zm0.00163,0.60731c-0.00576-.11446.01593-0.21265-0.12827-0.20562a1.52716,1.52716,0,0,0-1.38159,1.37348,0.16387,0.16387,0,0,0,.03182.11868,0.22628,0.22628,0,0,0,.33713-0.14129,1.1374,1.1374,0,0,1,.96471-0.97164C223.93877,118.3541,223.99922,118.30956,223.97708,118.19925Zm-0.00241.60063c0.00017-.19948-0.02694-0.22078-0.20739-0.17965a0.8857,0.8857,0,0,0-.68616.73517,0.16958,0.16958,0,0,0,.02814.13061,0.24174,0.24174,0,0,0,.33888-0.1123,0.49783,0.49783,0,0,1,.37966-0.38666A0.14958,0.14958,0,0,0,223.97467,118.79988Zm7.81818,2.77833a0.26127,0.26127,0,0,0-.26949-0.26959,0.27624,0.27624,0,0,0-.28158.27739,0.29054,0.29054,0,0,0,.27432.275A0.27726,0.27726,0,0,0,231.79285,121.57821Z" transform="translate(-214.11879 -86.54788)" style="fill: #8c8c8c"/>
        <path d="M228.02649,124.6671c0,0.15217.00131,0.30435-.00035,0.4565-0.00184.16808-.01922,0.18212-0.19166,0.16674-0.14168-.01264-0.28322-0.03378-0.42507-0.03615-0.33775-.00565-0.67661-0.01839-1.01321.0019a1.50373,1.50373,0,0,1-.815-0.256c-0.24069-.12925-0.28131-0.12547-0.44362.09429a0.55484,0.55484,0,0,1-.81536.02971,0.72566,0.72566,0,0,1-.16808-0.54818,0.32328,0.32328,0,0,1,.20394-0.26527,1.71346,1.71346,0,0,0,.31222-0.2023c0.14562-.12425.217-0.1276,0.34432,0.01678l0.01867,0.02276c0.20727,0.28809.25751,0.39784,0.74572,0.17224a4.15672,4.15672,0,0,1,2.11882-.29271,0.11888,0.11888,0,0,1,.129.13907c-0.00293.16684-.00083,0.33377-0.00083,0.50066h0.00054Z" transform="translate(-214.11879 -86.54788)" style="fill: #8c8c8c"/>
      </g>
    </g>
  </g>
  <g id="copper1">
    <g id="copper0">
      <g>
        <path d="M259.47312,128.75687v3.685h-5.10236v-3.685h5.10236Zm-3.81609,1.84252a1.08235,1.08235,0,1,0,1.08235-1.08235A1.08235,1.08235,0,0,0,255.657,130.59939Zm3.81609-1.08235a1.08235,1.08235,0,1,0,0,2.16471" transform="translate(-214.11879 -86.54788)" style="fill: #f5bd18"/>
        <path d="M259.47312,123.08758v3.685h-1.87087v-3.685h1.87087Zm0,0.76017a1.08235,1.08235,0,1,0,0,2.16471" transform="translate(-214.11879 -86.54788)" style="fill: #f5bd18"/>
        <path d="M259.47312,117.41829v3.685h-1.87087v-3.685h1.87087Zm0,0.76017a1.08235,1.08235,0,1,0,0,2.16471" transform="translate(-214.11879 -86.54788)" style="fill: #f5bd18"/>
        <path d="M259.47312,111.749v3.685h-1.87087v-3.685h1.87087Zm0,0.76017a1.08235,1.08235,0,1,0,0,2.16471" transform="translate(-214.11879 -86.54788)" style="fill: #f5bd18"/>
        <path d="M259.47312,106.0797v3.685h-1.87087v-3.685h1.87087Zm0,0.76017a1.08235,1.08235,0,1,0,0,2.16471" transform="translate(-214.11879 -86.54788)" style="fill: #f5bd18"/>
        <path d="M259.47312,100.41041v3.685h-1.87087v-3.685h1.87087Zm0,0.76017a1.08235,1.08235,0,1,0,0,2.16471" transform="translate(-214.11879 -86.54788)" style="fill: #f5bd18"/>
        <path d="M259.47312,94.74112v3.685h-1.87087v-3.685h1.87087Zm0,0.76017a1.08235,1.08235,0,1,0,0,2.16471" transform="translate(-214.11879 -86.54788)" style="fill: #f5bd18"/>
        <path d="M259.47312,89.12629v3.685h-1.87087v-3.685h1.87087Zm0,0.76017a1.08235,1.08235,0,1,0,0,2.16471" transform="translate(-214.11879 -86.54788)" style="fill: #f5bd18"/>
        <path d="M214.11879,92.81133v-3.685h1.87087v3.685h-1.87087Zm0-.76017a1.08235,1.08235,0,0,0,0-2.16471" transform="translate(-214.11879 -86.54788)" style="fill: #f5bd18"/>
        <path d="M214.11879,98.42616v-3.685h1.87087v3.685h-1.87087Zm0-.76017a1.08235,1.08235,0,0,0,0-2.16471" transform="translate(-214.11879 -86.54788)" style="fill: #f5bd18"/>
        <path d="M214.11879,104.09545v-3.685h1.87087v3.685h-1.87087Zm0-.76017a1.08235,1.08235,0,1,0,0-2.16471" transform="translate(-214.11879 -86.54788)" style="fill: #f5bd18"/>
        <path d="M214.11879,109.76474v-3.685h1.87087v3.685h-1.87087Zm0-.76017a1.08235,1.08235,0,0,0,0-2.16471" transform="translate(-214.11879 -86.54788)" style="fill: #f5bd18"/>
        <path d="M214.11879,115.434v-3.685h1.87087v3.685h-1.87087Zm0-.76017a1.08235,1.08235,0,0,0,0-2.16471" transform="translate(-214.11879 -86.54788)" style="fill: #f5bd18"/>
        <path d="M214.11879,121.10333v-3.685h1.87087v3.685h-1.87087Zm0-.76017a1.08235,1.08235,0,0,0,0-2.16471" transform="translate(-214.11879 -86.54788)" style="fill: #f5bd18"/>
        <path d="M214.11879,126.77262v-3.685h1.87087v3.685h-1.87087Zm0-.76017a1.08235,1.08235,0,0,0,0-2.16471" transform="translate(-214.11879 -86.54788)" style="fill: #f5bd18"/>
        <path d="M214.11879,132.44191v-3.685h1.87087v3.685h-1.87087Zm0-.76017a1.08235,1.08235,0,0,0,0-2.16471" transform="translate(-214.11879 -86.54788)" style="fill: #f5bd18"/>
      </g>
      <g>
        <path d="M259.47312,128.75687v3.685h-5.10236v-3.685h5.10236Zm-3.81609,1.84252a1.08235,1.08235,0,1,0,1.08235-1.08235A1.08235,1.08235,0,0,0,255.657,130.59939Zm3.81609-1.08235a1.08235,1.08235,0,1,0,0,2.16471" transform="translate(-214.11879 -86.54788)" style="fill: #f5bd18"/>
        <path d="M259.47312,123.08758v3.685h-1.87087v-3.685h1.87087Zm0,0.76017a1.08235,1.08235,0,1,0,0,2.16471" transform="translate(-214.11879 -86.54788)" style="fill: #f5bd18"/>
        <path d="M259.47312,117.41829v3.685h-1.87087v-3.685h1.87087Zm0,0.76017a1.08235,1.08235,0,1,0,0,2.16471" transform="translate(-214.11879 -86.54788)" style="fill: #f5bd18"/>
        <path d="M259.47312,111.749v3.685h-1.87087v-3.685h1.87087Zm0,0.76017a1.08235,1.08235,0,1,0,0,2.16471" transform="translate(-214.11879 -86.54788)" style="fill: #f5bd18"/>
        <path d="M259.47312,106.0797v3.685h-1.87087v-3.685h1.87087Zm0,0.76017a1.08235,1.08235,0,1,0,0,2.16471" transform="translate(-214.11879 -86.54788)" style="fill: #f5bd18"/>
        <path d="M259.47312,100.41041v3.685h-1.87087v-3.685h1.87087Zm0,0.76017a1.08235,1.08235,0,1,0,0,2.16471" transform="translate(-214.11879 -86.54788)" style="fill: #f5bd18"/>
        <path d="M259.47312,94.74112v3.685h-1.87087v-3.685h1.87087Zm0,0.76017a1.08235,1.08235,0,1,0,0,2.16471" transform="translate(-214.11879 -86.54788)" style="fill: #f5bd18"/>
        <path d="M259.47312,89.12629v3.685h-1.87087v-3.685h1.87087Zm0,0.76017a1.08235,1.08235,0,1,0,0,2.16471" transform="translate(-214.11879 -86.54788)" style="fill: #f5bd18"/>
        <path d="M214.11879,92.81133v-3.685h1.87087v3.685h-1.87087Zm0-.76017a1.08235,1.08235,0,0,0,0-2.16471" transform="translate(-214.11879 -86.54788)" style="fill: #f5bd18"/>
        <path d="M214.11879,98.42616v-3.685h1.87087v3.685h-1.87087Zm0-.76017a1.08235,1.08235,0,0,0,0-2.16471" transform="translate(-214.11879 -86.54788)" style="fill: #f5bd18"/>
        <path d="M214.11879,104.09545v-3.685h1.87087v3.685h-1.87087Zm0-.76017a1.08235,1.08235,0,1,0,0-2.16471" transform="translate(-214.11879 -86.54788)" style="fill: #f5bd18"/>
        <path d="M214.11879,109.76474v-3.685h1.87087v3.685h-1.87087Zm0-.76017a1.08235,1.08235,0,0,0,0-2.16471" transform="translate(-214.11879 -86.54788)" style="fill: #f5bd18"/>
        <path d="M214.11879,115.434v-3.685h1.87087v3.685h-1.87087Zm0-.76017a1.08235,1.08235,0,0,0,0-2.16471" transform="translate(-214.11879 -86.54788)" style="fill: #f5bd18"/>
        <path d="M214.11879,121.10333v-3.685h1.87087v3.685h-1.87087Zm0-.76017a1.08235,1.08235,0,0,0,0-2.16471" transform="translate(-214.11879 -86.54788)" style="fill: #f5bd18"/>
        <path d="M214.11879,126.77262v-3.685h1.87087v3.685h-1.87087Zm0-.76017a1.08235,1.08235,0,0,0,0-2.16471" transform="translate(-214.11879 -86.54788)" style="fill: #f5bd18"/>
        <path d="M214.11879,132.44191v-3.685h1.87087v3.685h-1.87087Zm0-.76017a1.08235,1.08235,0,0,0,0-2.16471" transform="translate(-214.11879 -86.54788)" style="fill: #f5bd18"/>
      </g>
    </g>
  </g>
</svg>
