<svg id="Layer_1" data-name="Layer 1" xmlns="http://www.w3.org/2000/svg" width="19.89278mm" height="18.89278mm" viewBox="0 0 56.38898 53.55433">
  <title>Ra-01-LoRa-pcb</title>
  <rect id="Outline" x="0.5" y="0.5" width="55.38898" height="52.55433" style="fill: none;stroke: #fff;stroke-miterlimit: 10"/>
  <g id="copper1">
    <g id="copper0">
      <rect x="6.82014" y="1.58235" width="2.83465" height="7.2" style="fill: #f5bd18"/>
      <rect x="12.48944" y="1.58235" width="2.83465" height="7.2" style="fill: #f5bd18"/>
      <rect x="18.15873" y="1.58235" width="2.83465" height="7.2" style="fill: #f5bd18"/>
      <rect x="23.82802" y="1.58235" width="2.83465" height="7.2" style="fill: #f5bd18"/>
      <rect x="40.83589" y="1.58235" width="2.83465" height="7.2" style="fill: #f5bd18"/>
      <rect x="46.50518" y="1.58235" width="2.83465" height="7.2" style="fill: #f5bd18"/>
      <rect x="29.49731" y="1.58235" width="2.83465" height="7.2" style="fill: #f5bd18"/>
      <rect x="35.1666" y="1.58235" width="2.83465" height="7.2" style="fill: #f5bd18"/>
      <rect x="6.79291" y="44.9189" width="2.83465" height="7.2" style="fill: #f5bd18"/>
      <rect x="12.4622" y="44.9189" width="2.83465" height="7.2" style="fill: #f5bd18"/>
      <rect x="18.1315" y="44.9189" width="2.83465" height="7.2" style="fill: #f5bd18"/>
      <rect x="23.80079" y="44.9189" width="2.83465" height="7.2" style="fill: #f5bd18"/>
      <rect x="40.80866" y="44.9189" width="2.83465" height="7.2" style="fill: #f5bd18"/>
      <rect x="46.47795" y="44.9189" width="2.83465" height="7.2" style="fill: #f5bd18"/>
      <rect x="29.47008" y="44.9189" width="2.83465" height="7.2" style="fill: #f5bd18"/>
      <rect x="35.13937" y="44.9189" width="2.83465" height="7.2" style="fill: #f5bd18"/>
    </g>
  </g>
</svg>
