<svg id="background" xmlns="http://www.w3.org/2000/svg" width="23.61259mm" height="21.24667mm" viewBox="0 0 66.93333 60.22678">
  <title>Ra-01-LoRa-schematic</title>
  <rect id="Outline" x="7.20001" y="0.5" width="52.53333" height="59.22678" style="fill: #fff;stroke: #231f20;stroke-miterlimit: 10"/>
  <g>
    <path d="M287.49414,92.73926v1.25342H287.1084V90.9585h0.73877a1.28329,1.28329,0,0,1,.81543.21387,0.78431,0.78431,0,0,1,.26367.64746,0.89594,0.89594,0,0,1-.05078.31543,0.759,0.759,0,0,1-.13525.23145,0.77655,0.77655,0,0,1-.19189.16113,1.29862,1.29862,0,0,1-.22217.10547l0.82617,1.35938h-0.45459l-0.728-1.25342h-0.47559Zm0-.32764h0.34033a1.1952,1.1952,0,0,0,.31787-0.03662,0.54709,0.54709,0,0,0,.21436-0.10791,0.411,0.411,0,0,0,.12256-0.17822,0.73383,0.73383,0,0,0,.03857-0.25049,0.6682,0.6682,0,0,0-.04248-0.25293,0.39918,0.39918,0,0,0-.12891-0.16992,0.54864,0.54864,0,0,0-.21777-0.09668,1.42035,1.42035,0,0,0-.3125-0.03027h-0.332v1.123Z" transform="translate(-266.13333 -83.0625)" style="fill: #231f20"/>
    <path d="M290.84766,93.99268l-0.07666-.31543h-0.0166a1.26165,1.26165,0,0,1-.13721.16064,0.65414,0.65414,0,0,1-.14941.11133,0.66122,0.66122,0,0,1-.18018.064,1.11382,1.11382,0,0,1-.23047.021,0.82926,0.82926,0,0,1-.26367-0.04053,0.554,0.554,0,0,1-.2085-0.12451,0.58,0.58,0,0,1-.1377-0.21143,0.83231,0.83231,0,0,1-.0498-0.30225,0.619,0.619,0,0,1,.23926-0.52295,1.27683,1.27683,0,0,1,.72949-0.19922l0.38184-.01465V92.47559a0.77062,0.77062,0,0,0-.02979-0.23242,0.36915,0.36915,0,0,0-.0874-0.15039,0.32617,0.32617,0,0,0-.14111-0.082,0.67727,0.67727,0,0,0-.19189-0.0249,1.00388,1.00388,0,0,0-.3208.0498,2.01327,2.01327,0,0,0-.28516.12061l-0.13281-.28467a1.884,1.884,0,0,1,.34229-0.14062,1.33185,1.33185,0,0,1,.39648-0.05859,1.39092,1.39092,0,0,1,.36621.043,0.61177,0.61177,0,0,1,.25537.13477,0.56713,0.56713,0,0,1,.15039.23535,1.06181,1.06181,0,0,1,.0498.34668v1.56055h-0.272Zm-0.69287-.26367a0.68623,0.68623,0,0,0,.23438-0.03906,0.50573,0.50573,0,0,0,.187-0.11963,0.55586,0.55586,0,0,0,.123-0.20117,0.82736,0.82736,0,0,0,.04492-0.28564V92.87842l-0.29687.01465a1.53038,1.53038,0,0,0-.31348.041,0.55562,0.55562,0,0,0-.20215.09277,0.33,0.33,0,0,0-.10889.14307,0.50661,0.50661,0,0,0-.0332.18994,0.35584,0.35584,0,0,0,.10059.28027A0.38551,0.38551,0,0,0,290.15479,93.729Z" transform="translate(-266.13333 -83.0625)" style="fill: #231f20"/>
    <path d="M291.62793,93.02783V92.6792h1.0293v0.34863h-1.0293Z" transform="translate(-266.13333 -83.0625)" style="fill: #231f20"/>
    <path d="M294.96729,92.47168a3.70779,3.70779,0,0,1-.05273.65771,1.51905,1.51905,0,0,1-.17041.4917,0.81781,0.81781,0,0,1-.30176.30713,0.88513,0.88513,0,0,1-.44824.106,0.82979,0.82979,0,0,1-.42676-0.106,0.84113,0.84113,0,0,1-.30078-0.30713,1.56653,1.56653,0,0,1-.17822-0.4917,3.30518,3.30518,0,0,1-.05957-0.65771A3.69705,3.69705,0,0,1,293.082,91.814a1.53537,1.53537,0,0,1,.168-0.49121,0.80656,0.80656,0,0,1,.29883-0.30566,0.87635,0.87635,0,0,1,.44531-0.106,0.803,0.803,0,0,1,.73242.40967,1.57265,1.57265,0,0,1,.18066.49072A3.27865,3.27865,0,0,1,294.96729,92.47168Zm-1.5542,0a4.194,4.194,0,0,0,.03076.54346,1.45026,1.45026,0,0,0,.09961.38721,0.54711,0.54711,0,0,0,.17969.23242,0.46192,0.46192,0,0,0,.271.07764,0.47031,0.47031,0,0,0,.272-0.07666,0.55847,0.55847,0,0,0,.18359-0.23047,1.376,1.376,0,0,0,.10352-0.38672,4.63142,4.63142,0,0,0,0-1.09082,1.37312,1.37312,0,0,0-.10352-0.38574,0.55847,0.55847,0,0,0-.18359-0.23047,0.47031,0.47031,0,0,0-.272-0.07666,0.465,0.465,0,0,0-.271.07666,0.54057,0.54057,0,0,0-.17969.23047,1.43347,1.43347,0,0,0-.09961.38574A4.20732,4.20732,0,0,0,293.41309,92.47168Z" transform="translate(-266.13333 -83.0625)" style="fill: #231f20"/>
    <path d="M296.64209,93.99268h-0.36523V92.09814c0-.05957,0-0.123.001-0.19092,0.00049-.06787.002-0.13525,0.00391-0.20264,0.00244-.06689.00439-0.13135,0.00635-0.19287l0.00537-.1626c-0.02344.02441-.04443,0.0459-0.0625,0.064s-0.03613.03564-.05469,0.05225l-0.05957.05273c-0.02051.01855-.04541,0.04053-0.07422,0.06543l-0.30762.251-0.19922-.25537,0.79492-.62061h0.31152v3.03418Z" transform="translate(-266.13333 -83.0625)" style="fill: #231f20"/>
    <path d="M300.62207,93.18115a0.87418,0.87418,0,0,1-.07129.36035,0.74362,0.74362,0,0,1-.20459.26855,0.90777,0.90777,0,0,1-.32373.167,1.49825,1.49825,0,0,1-.42969.05713,2.44647,2.44647,0,0,1-.43066-0.03613,1.19071,1.19071,0,0,1-.335-0.10693V93.52148a1.70305,1.70305,0,0,0,.16064.06543c0.06055,0.02148.12354,0.04053,0.18994,0.05713a2.06857,2.06857,0,0,0,.20557.04053,1.46081,1.46081,0,0,0,.20947.01563,0.79012,0.79012,0,0,0,.49072-0.12451,0.42668,0.42668,0,0,0,.15869-0.35693,0.57637,0.57637,0,0,0-.02979-0.19531,0.3842,0.3842,0,0,0-.106-0.15234,0.9173,0.9173,0,0,0-.20215-0.13477,3.43411,3.43411,0,0,0-.31982-0.14209,1.90016,1.90016,0,0,1-.32031-0.15918,0.91485,0.91485,0,0,1-.22412-0.19385,0.71729,0.71729,0,0,1-.13086-0.24463,1.05417,1.05417,0,0,1-.04248-0.31152,0.76263,0.76263,0,0,1,.06641-0.32568,0.66846,0.66846,0,0,1,.18652-0.2417,0.83572,0.83572,0,0,1,.2876-0.15039,1.233,1.233,0,0,1,.36816-0.05225,1.92712,1.92712,0,0,1,.44434.04688,1.797,1.797,0,0,1,.35059.11914l-0.13916.32373a1.9822,1.9822,0,0,0-.30615-0.10449,1.392,1.392,0,0,0-.35352-0.04492,0.59235,0.59235,0,0,0-.39258.11719,0.39331,0.39331,0,0,0-.13867.31641,0.595,0.595,0,0,0,.03125.20459,0.40191,0.40191,0,0,0,.10352.15576,0.81552,0.81552,0,0,0,.19189.13086c0.07959,0.04053.17725,0.084,0.29346,0.12939a2.80129,2.80129,0,0,1,.33105.15381,0.98279,0.98279,0,0,1,.23779.17822,0.66139,0.66139,0,0,1,.144.23047A0.88129,0.88129,0,0,1,300.62207,93.18115Z" transform="translate(-266.13333 -83.0625)" style="fill: #231f20"/>
    <path d="M303.1416,93.99268h-0.438l-0.73437-1.31787-0.76172,1.31787h-0.39014l0.93994-1.58545-0.87549-1.44873h0.41064l0.689,1.16016,0.69336-1.16016h0.394L302.19531,92.395Z" transform="translate(-266.13333 -83.0625)" style="fill: #231f20"/>
    <path d="M304.61719,93.99268H304.252V92.09814c0-.05957,0-0.123.001-0.19092,0.00049-.06787.002-0.13525,0.00391-0.20264,0.00244-.06689.00439-0.13135,0.00635-0.19287l0.00537-.1626c-0.02344.02441-.04443,0.0459-0.0625,0.064s-0.03613.03564-.05469,0.05225l-0.05957.05273c-0.02051.01855-.04541,0.04053-0.07422,0.06543l-0.30762.251-0.19922-.25537,0.79492-.62061h0.31152v3.03418Z" transform="translate(-266.13333 -83.0625)" style="fill: #231f20"/>
    <path d="M307.57422,93.99268h-1.89258V93.66895l0.72656-.79053c0.10352-.1123.19629-0.21436,0.27783-0.30713a2.3432,2.3432,0,0,0,.2085-0.272,1.18584,1.18584,0,0,0,.13184-0.2666,0.9031,0.9031,0,0,0,.0459-0.2915,0.60955,0.60955,0,0,0-.03564-0.21582,0.439,0.439,0,0,0-.10059-0.15869,0.41807,0.41807,0,0,0-.15479-0.09863,0.55728,0.55728,0,0,0-.19922-0.0332,0.77823,0.77823,0,0,0-.35547.07959,1.46527,1.46527,0,0,0-.30225.20459l-0.21143-.24707a1.76137,1.76137,0,0,1,.17822-0.14014,1.24629,1.24629,0,0,1,.20557-0.11279,1.32108,1.32108,0,0,1,.23242-0.07568,1.12952,1.12952,0,0,1,.25732-0.02832,1.09346,1.09346,0,0,1,.35986.05615,0.75439,0.75439,0,0,1,.27295.16064,0.70959,0.70959,0,0,1,.17334.25537,0.89044,0.89044,0,0,1,.06152.33936,1.02984,1.02984,0,0,1-.05518.33643,1.555,1.555,0,0,1-.15137.314,2.569,2.569,0,0,1-.23047.31055q-0.134.15527-.28955,0.32373l-0.583.62012v0.0166h1.42969v0.34473Z" transform="translate(-266.13333 -83.0625)" style="fill: #231f20"/>
    <path d="M308.40625,93.99268l1.16846-2.68945h-1.56494V90.9585h1.95117v0.30127l-1.15186,2.73291h-0.40283Z" transform="translate(-266.13333 -83.0625)" style="fill: #231f20"/>
    <path d="M311.33643,90.91113a1.16273,1.16273,0,0,1,.3291.04541,0.81559,0.81559,0,0,1,.272.13721,0.65693,0.65693,0,0,1,.18555.228,0.70294,0.70294,0,0,1,.06836.31982,0.70088,0.70088,0,0,1-.15527.45313,0.88042,0.88042,0,0,1-.17236.16211,1.568,1.568,0,0,1-.21582.12939,2.50581,2.50581,0,0,1,.23535.14355,1.183,1.183,0,0,1,.20557.17725,0.83314,0.83314,0,0,1,.145.22119,0.66145,0.66145,0,0,1,.05518.27393,0.83207,0.83207,0,0,1-.06934.34521,0.7408,0.7408,0,0,1-.19531.2627,0.87986,0.87986,0,0,1-.30078.166,1.23192,1.23192,0,0,1-.38721.05811,1.34269,1.34269,0,0,1-.40576-0.05615,0.83467,0.83467,0,0,1-.29883-0.16064,0.68565,0.68565,0,0,1-.18457-0.25635,0.88541,0.88541,0,0,1-.06348-0.34229,0.79021,0.79021,0,0,1,.04688-0.28027,0.83692,0.83692,0,0,1,.12549-0.22412,0.90629,0.90629,0,0,1,.187-0.17627,1.593,1.593,0,0,1,.228-0.13525,1.66632,1.66632,0,0,1-.19092-0.13965,0.88759,0.88759,0,0,1-.1543-0.16943,0.80393,0.80393,0,0,1-.104-0.20654,0.77837,0.77837,0,0,1-.03857-0.25,0.68654,0.68654,0,0,1,.06982-0.31641,0.66365,0.66365,0,0,1,.188-0.22705,0.82271,0.82271,0,0,1,.27246-0.13721A1.14059,1.14059,0,0,1,311.33643,90.91113Zm-0.58105,2.31152a0.6,0.6,0,0,0,.0332.20264,0.3962,0.3962,0,0,0,.104.15771,0.49023,0.49023,0,0,0,.17822.10156,0.81993,0.81993,0,0,0,.25732.03613,0.83089,0.83089,0,0,0,.25635-0.03613,0.51269,0.51269,0,0,0,.186-0.104,0.42409,0.42409,0,0,0,.11182-0.1626,0.5783,0.5783,0,0,0,.0376-0.21191,0.459,0.459,0,0,0-.04053-0.19482,0.56866,0.56866,0,0,0-.11621-0.16211,1.08835,1.08835,0,0,0-.18164-0.14111,2.62013,2.62013,0,0,0-.23682-0.13037l-0.062-.0293a1.1424,1.1424,0,0,0-.39453.28516A0.5932,0.5932,0,0,0,310.75537,93.22266Zm0.57715-1.99609a0.5225,0.5225,0,0,0-.34961.10986,0.39537,0.39537,0,0,0-.12988.31934,0.52169,0.52169,0,0,0,.03613.20361,0.49542,0.49542,0,0,0,.10107.15137,0.71976,0.71976,0,0,0,.1543.11963q0.09009,0.05273.19629,0.10254a1.70111,1.70111,0,0,0,.1875-0.09961,0.74489,0.74489,0,0,0,.15381-0.12256,0.51387,0.51387,0,0,0,.10254-0.15576,0.49821,0.49821,0,0,0,.0376-0.19922,0.39444,0.39444,0,0,0-.13086-0.31934A0.54077,0.54077,0,0,0,311.33252,91.22656Z" transform="translate(-266.13333 -83.0625)" style="fill: #231f20"/>
    <path d="M287.55029,99.09277V96.05859H287.936V98.748h1.18945v0.34473h-1.5752Z" transform="translate(-266.13333 -83.0625)" style="fill: #231f20"/>
    <path d="M291.44287,97.94922a1.68406,1.68406,0,0,1-.06934.50537,1.04081,1.04081,0,0,1-.19922.37158,0.8553,0.8553,0,0,1-.31445.22949,1.05177,1.05177,0,0,1-.415.07861,0.97736,0.97736,0,0,1-.394-0.07861,0.88162,0.88162,0,0,1-.3125-0.22949,1.0739,1.0739,0,0,1-.20557-0.37158,1.605,1.605,0,0,1-.07373-0.50537,1.65361,1.65361,0,0,1,.06982-0.501,1.0575,1.0575,0,0,1,.19775-0.36963,0.83316,0.83316,0,0,1,.31445-0.228,1.07062,1.07062,0,0,1,.416-0.07812,0.98781,0.98781,0,0,1,.39453.07813,0.87027,0.87027,0,0,1,.3125.228,1.06915,1.06915,0,0,1,.20508.36963A1.563,1.563,0,0,1,291.44287,97.94922Zm-1.59375,0a1.21191,1.21191,0,0,0,.14209.65283,0.50953,0.50953,0,0,0,.46191.21875,0.50363,0.50363,0,0,0,.45947-0.21875,1.22261,1.22261,0,0,0,.14014-0.65283,1.18809,1.18809,0,0,0-.14209-0.64844,0.60136,0.60136,0,0,0-.92139,0A1.203,1.203,0,0,0,289.84912,97.94922Z" transform="translate(-266.13333 -83.0625)" style="fill: #231f20"/>
    <path d="M292.47656,97.83936v1.25342h-0.38574V96.05859h0.73877a1.28329,1.28329,0,0,1,.81543.21387,0.78431,0.78431,0,0,1,.26367.64746,0.89594,0.89594,0,0,1-.05078.31543,0.759,0.759,0,0,1-.13525.23145,0.77655,0.77655,0,0,1-.19189.16113,1.29863,1.29863,0,0,1-.22217.10547l0.82617,1.35938h-0.45459l-0.728-1.25342h-0.47559Zm0-.32764h0.34033a1.1952,1.1952,0,0,0,.31787-0.03662,0.54709,0.54709,0,0,0,.21436-0.10791,0.411,0.411,0,0,0,.12256-0.17822,0.73383,0.73383,0,0,0,.03857-0.25049,0.6682,0.6682,0,0,0-.04248-0.25293,0.39918,0.39918,0,0,0-.12891-0.16992,0.54864,0.54864,0,0,0-.21777-0.09668,1.42035,1.42035,0,0,0-.3125-0.03027h-0.332v1.123Z" transform="translate(-266.13333 -83.0625)" style="fill: #231f20"/>
    <path d="M295.83008,99.09277l-0.07666-.31543h-0.0166a1.26164,1.26164,0,0,1-.13721.16064,0.65415,0.65415,0,0,1-.14941.11133,0.66122,0.66122,0,0,1-.18018.064,1.11381,1.11381,0,0,1-.23047.021,0.82925,0.82925,0,0,1-.26367-0.04053,0.554,0.554,0,0,1-.2085-0.12451,0.58,0.58,0,0,1-.1377-0.21143,0.83231,0.83231,0,0,1-.0498-0.30225,0.619,0.619,0,0,1,.23926-0.52295,1.27683,1.27683,0,0,1,.72949-0.19922l0.38184-.01465V97.57568a0.77062,0.77062,0,0,0-.02979-0.23242,0.36915,0.36915,0,0,0-.0874-0.15039,0.32617,0.32617,0,0,0-.14111-0.082,0.67727,0.67727,0,0,0-.19189-0.0249,1.00388,1.00388,0,0,0-.3208.0498,2.01327,2.01327,0,0,0-.28516.12061l-0.13281-.28467a1.884,1.884,0,0,1,.34229-0.14062,1.33185,1.33185,0,0,1,.39648-0.05859,1.39092,1.39092,0,0,1,.36621.043,0.61177,0.61177,0,0,1,.25537.13477,0.56713,0.56713,0,0,1,.15039.23535,1.06181,1.06181,0,0,1,.0498.34668v1.56055h-0.272Zm-0.69287-.26367a0.68623,0.68623,0,0,0,.23438-0.03906,0.50572,0.50572,0,0,0,.187-0.11963,0.55586,0.55586,0,0,0,.123-0.20117,0.82736,0.82736,0,0,0,.04492-0.28564V97.97852l-0.29687.01465a1.53039,1.53039,0,0,0-.31348.041,0.55562,0.55562,0,0,0-.20215.09277,0.33,0.33,0,0,0-.10889.14307,0.50661,0.50661,0,0,0-.0332.18994,0.35584,0.35584,0,0,0,.10059.28027A0.38551,0.38551,0,0,0,295.13721,98.8291Z" transform="translate(-266.13333 -83.0625)" style="fill: #231f20"/>
    <path d="M299.21094,99.09277l-0.91943-2.65625h-0.0166q0.01245,0.15381.02051,0.30518c0.00586,0.08691.01025,0.17871,0.01367,0.2749s0.00537,0.18359.00537,0.2627v1.81348h-0.35693V96.05859h0.57275l0.855,2.47363h0.01221l0.85938-2.47363h0.57275v3.03418h-0.38623V97.252c0-.07178.00146-0.1543,0.00439-0.24707,0.00244-.09229.00586-0.18115,0.01025-0.26562q0.00806-.14722.01465-0.29883h-0.0166l-0.92773,2.65234h-0.31738Z" transform="translate(-266.13333 -83.0625)" style="fill: #231f20"/>
    <path d="M303.46045,97.94922a1.68406,1.68406,0,0,1-.06934.50537,1.04081,1.04081,0,0,1-.19922.37158,0.8553,0.8553,0,0,1-.31445.22949,1.05177,1.05177,0,0,1-.415.07861,0.97736,0.97736,0,0,1-.394-0.07861,0.88162,0.88162,0,0,1-.3125-0.22949,1.0739,1.0739,0,0,1-.20557-0.37158,1.605,1.605,0,0,1-.07373-0.50537,1.65361,1.65361,0,0,1,.06982-0.501,1.0575,1.0575,0,0,1,.19775-0.36963,0.83316,0.83316,0,0,1,.31445-0.228,1.07062,1.07062,0,0,1,.416-0.07812,0.98781,0.98781,0,0,1,.39453.07813,0.87027,0.87027,0,0,1,.3125.228,1.06915,1.06915,0,0,1,.20508.36963A1.563,1.563,0,0,1,303.46045,97.94922Zm-1.59375,0a1.2119,1.2119,0,0,0,.14209.65283,0.50953,0.50953,0,0,0,.46191.21875,0.50363,0.50363,0,0,0,.45947-0.21875,1.22261,1.22261,0,0,0,.14014-0.65283,1.18809,1.18809,0,0,0-.14209-0.64844,0.60136,0.60136,0,0,0-.92139,0A1.203,1.203,0,0,0,301.8667,97.94922Z" transform="translate(-266.13333 -83.0625)" style="fill: #231f20"/>
    <path d="M305.46338,98.7876h-0.0166a0.83466,0.83466,0,0,1-.10693.13379,0.66374,0.66374,0,0,1-.14111.11133,0.713,0.713,0,0,1-.1792.07471,0.85853,0.85853,0,0,1-.22461.02686,0.82206,0.82206,0,0,1-.35254-0.07471,0.736,0.736,0,0,1-.27393-0.22314,1.07635,1.07635,0,0,1-.17627-0.36816,1.88413,1.88413,0,0,1-.0625-0.51074,1.90407,1.90407,0,0,1,.0625-0.51367,1.0912,1.0912,0,0,1,.17627-0.37012,0.74153,0.74153,0,0,1,.27393-0.2251,0.8087,0.8087,0,0,1,.35254-0.07617,0.84391,0.84391,0,0,1,.22217.02734,0.77206,0.77206,0,0,1,.17969.07227,0.7276,0.7276,0,0,1,.14209.106,0.83333,0.83333,0,0,1,.10791.12646h0.0249c-0.00391-.04687-0.0083-0.0918-0.0127-0.13477-0.00244-.03564-0.00537-0.07275-0.00781-0.11084-0.00293-.03809-0.00439-0.06836-0.00439-0.09033V95.86377h0.37744v3.229h-0.30469Zm-0.5957.0332a0.66282,0.66282,0,0,0,.2666-0.04736,0.41488,0.41488,0,0,0,.17676-0.14551,0.68548,0.68548,0,0,0,.09961-0.24365,1.79388,1.79388,0,0,0,.03613-0.34131V97.95752a2.23352,2.23352,0,0,0-.02783-0.37256,0.78983,0.78983,0,0,0-.0957-0.27393,0.44047,0.44047,0,0,0-.17969-0.168,0.61115,0.61115,0,0,0-.27979-0.05713,0.4432,0.4432,0,0,0-.41211.22656,1.3036,1.3036,0,0,0-.13184.64941,1.25309,1.25309,0,0,0,.13184.64648A0.45378,0.45378,0,0,0,304.86768,98.8208Z" transform="translate(-266.13333 -83.0625)" style="fill: #231f20"/>
    <path d="M308.022,99.09277l-0.05615-.30518h-0.02051a0.64588,0.64588,0,0,1-.12354.15479,0.6949,0.6949,0,0,1-.15674.10791,0.75423,0.75423,0,0,1-.18066.063,0.892,0.892,0,0,1-.19482.021,1.051,1.051,0,0,1-.332-0.04785,0.56884,0.56884,0,0,1-.23877-0.14941,0.65408,0.65408,0,0,1-.144-0.25928,1.27174,1.27174,0,0,1-.04883-0.37549V96.81445h0.37744v1.4668a0.63049,0.63049,0,0,0,.11035.40479,0.41319,0.41319,0,0,0,.34033.13477,0.66437,0.66437,0,0,0,.28223-0.05371,0.445,0.445,0,0,0,.18359-0.15869,0.70952,0.70952,0,0,0,.09961-0.25879,1.84852,1.84852,0,0,0,.02979-0.35254V96.81445h0.37793v2.27832H308.022Z" transform="translate(-266.13333 -83.0625)" style="fill: #231f20"/>
    <path d="M309.42725,99.09277H309.0498v-3.229h0.37744v3.229Z" transform="translate(-266.13333 -83.0625)" style="fill: #231f20"/>
    <path d="M311.0498,99.13428a1.09508,1.09508,0,0,1-.417-0.07666,0.89307,0.89307,0,0,1-.32471-0.22412,1.0155,1.0155,0,0,1-.21094-0.36523,1.53447,1.53447,0,0,1-.07471-0.498,1.71732,1.71732,0,0,1,.06836-0.50439,1.12349,1.12349,0,0,1,.19336-0.37646,0.83209,0.83209,0,0,1,.29785-0.23584,0.95249,0.95249,0,0,1,.752-0.00732,0.78892,0.78892,0,0,1,.27832.20752,0.94207,0.94207,0,0,1,.17529.32178,1.34814,1.34814,0,0,1,.061.416v0.23486h-1.436a0.94179,0.94179,0,0,0,.16943.58887,0.58085,0.58085,0,0,0,.47168.189,1.742,1.742,0,0,0,.19629-0.01025,1.5084,1.5084,0,0,0,.17432-0.03027,1.2875,1.2875,0,0,0,.16309-0.0498c0.05225-.02.106-0.04248,0.15967-0.06738v0.33643c-0.05518.02637-.10986,0.04883-0.16309,0.06836a1.33748,1.33748,0,0,1-.16357.04785,1.41175,1.41175,0,0,1-.17432.02686C311.18555,99.13135,311.12012,99.13428,311.0498,99.13428Zm-0.09326-2.04834a0.4664,0.4664,0,0,0-.37451.16211,0.79928,0.79928,0,0,0-.16113.4707h1.021a1.12016,1.12016,0,0,0-.02783-0.2583,0.56778,0.56778,0,0,0-.0874-0.2002,0.39881,0.39881,0,0,0-.15039-0.12842A0.482,0.482,0,0,0,310.95654,97.08594Z" transform="translate(-266.13333 -83.0625)" style="fill: #231f20"/>
  </g>
  <g id="Connectors">
    <g id="Right">
      <line x1="66.93333" y1="5.6875" x2="59.73333" y2="5.6875" style="fill: none;stroke: #555655;stroke-miterlimit: 10;stroke-width: 0.699999988079071px"/>
      <line x1="66.93333" y1="53.26439" x2="59.73333" y2="53.26439" style="fill: none;stroke: #555655;stroke-miterlimit: 10;stroke-width: 0.699999988079071px"/>
      <line x1="66.93333" y1="46.46769" x2="59.73333" y2="46.46769" style="fill: none;stroke: #555655;stroke-miterlimit: 10;stroke-width: 0.699999988079071px"/>
      <line x1="66.93333" y1="39.67099" x2="59.73333" y2="39.67099" style="fill: none;stroke: #555655;stroke-miterlimit: 10;stroke-width: 0.699999988079071px"/>
      <line x1="66.93333" y1="32.87429" x2="59.73333" y2="32.87429" style="fill: none;stroke: #555655;stroke-miterlimit: 10;stroke-width: 0.699999988079071px"/>
      <line x1="66.93333" y1="26.0776" x2="59.73333" y2="26.0776" style="fill: none;stroke: #555655;stroke-miterlimit: 10;stroke-width: 0.699999988079071px"/>
      <line x1="66.93333" y1="19.2809" x2="59.73333" y2="19.2809" style="fill: none;stroke: #555655;stroke-miterlimit: 10;stroke-width: 0.699999988079071px"/>
      <line x1="66.93333" y1="12.4842" x2="59.73333" y2="12.4842" style="fill: none;stroke: #555655;stroke-miterlimit: 10;stroke-width: 0.699999988079071px"/>
    </g>
    <g id="Left">
      <line x1="7.2" y1="53.26438" y2="53.26438" style="fill: none;stroke: #555655;stroke-miterlimit: 10;stroke-width: 0.699999988079071px"/>
      <line x1="7.2" y1="46.46768" y2="46.46768" style="fill: none;stroke: #555655;stroke-miterlimit: 10;stroke-width: 0.699999988079071px"/>
      <line x1="7.2" y1="39.67098" y2="39.67098" style="fill: none;stroke: #555655;stroke-miterlimit: 10;stroke-width: 0.699999988079071px"/>
      <line x1="7.2" y1="32.87428" y2="32.87428" style="fill: none;stroke: #555655;stroke-miterlimit: 10;stroke-width: 0.699999988079071px"/>
      <line x1="7.2" y1="26.07758" y2="26.07758" style="fill: none;stroke: #555655;stroke-miterlimit: 10;stroke-width: 0.699999988079071px"/>
      <line x1="7.2" y1="19.28088" y2="19.28088" style="fill: none;stroke: #555655;stroke-miterlimit: 10;stroke-width: 0.699999988079071px"/>
      <line x1="7.2" y1="12.48418" y2="12.48418" style="fill: none;stroke: #555655;stroke-miterlimit: 10;stroke-width: 0.699999988079071px"/>
      <line x1="7.2" y1="5.68748" y2="5.68748" style="fill: none;stroke: #555655;stroke-miterlimit: 10;stroke-width: 0.699999988079071px"/>
    </g>
  </g>
  <g id="Left_Connector_Labels" data-name="Left Connector Labels">
    <g>
      <path d="M275.772,88.77832h0.82715v1.22559c-0.0625.02051-.126,0.03857-0.18994,0.05469-0.06348.01563-.12891,0.0293-0.19629,0.04s-0.1377.019-.21191,0.02441c-0.07422.00586-.15381,0.00879-0.23926,0.00879a1.17968,1.17968,0,0,1-.4751-0.08984,0.94206,0.94206,0,0,1-.34863-0.25635,1.12292,1.12292,0,0,1-.21533-0.40479,1.82517,1.82517,0,0,1-.07324-0.53613,1.63322,1.63322,0,0,1,.08105-0.53125,1.11549,1.11549,0,0,1,.23633-0.4043,1.04447,1.04447,0,0,1,.38379-0.25635,1.42034,1.42034,0,0,1,.52051-0.08936,1.73557,1.73557,0,0,1,.36426.03711,1.48093,1.48093,0,0,1,.32422.10938l-0.123.27734a1.33166,1.33166,0,0,0-.13232-0.05469c-0.04736-.01758-0.0957-0.03223-0.146-0.04541a1.42352,1.42352,0,0,0-.15479-0.03174,1.07651,1.07651,0,0,0-.15771-0.01172,0.9287,0.9287,0,0,0-.36914.06885,0.71513,0.71513,0,0,0-.26953.19922,0.89548,0.89548,0,0,0-.165.31592,1.47111,1.47111,0,0,0-.05615.4209,1.64838,1.64838,0,0,0,.04688.40625,0.86564,0.86564,0,0,0,.1499.31836,0.67884,0.67884,0,0,0,.26465.20654,0.94832,0.94832,0,0,0,.3916.07373c0.0498,0,.0957-0.00146.13721-0.00439s0.08008-.00684.11572-0.01123q0.05273-.00659.09961-0.01611l0.0918-.01807V89.05859H275.772V88.77832Z" transform="translate(-266.13333 -83.0625)" style="fill: #555655"/>
      <path d="M279.062,90.09766h-0.36768l-1.22852-2.06787h-0.01367c0.00684,0.08789.0127,0.1748,0.01709,0.26123,0.00439,0.07422.0083,0.15186,0.01123,0.23242,0.00293,0.08105.00391,0.1543,0.00391,0.21875v1.35547h-0.29395V87.59912h0.36426l1.22363,2.05762H278.79c-0.00293-.08643-0.00732-0.17187-0.01172-0.25635-0.001-.03662-0.00244-0.07373-0.00439-0.11182l-0.00488-.11475c-0.002-.03809-0.00293-0.07471-0.00342-0.11035-0.00049-.03516-0.001-0.06738-0.001-0.09717V87.59912H279.062v2.49854Z" transform="translate(-266.13333 -83.0625)" style="fill: #555655"/>
      <path d="M281.583,88.82422a1.70327,1.70327,0,0,1-.082.55469,1.05177,1.05177,0,0,1-.2373.39844,0.98928,0.98928,0,0,1-.38232.24023,1.53626,1.53626,0,0,1-.51318.08008h-0.626V87.59912h0.6958a1.35452,1.35452,0,0,1,.47314.07861,0.949,0.949,0,0,1,.36084.2334,1.05138,1.05138,0,0,1,.23.38379A1.57825,1.57825,0,0,1,281.583,88.82422Zm-0.33691.01074a1.46506,1.46506,0,0,0-.05615-0.43164,0.77355,0.77355,0,0,0-.16406-0.2998,0.65087,0.65087,0,0,0-.26514-0.17529,1.03879,1.03879,0,0,0-.35693-0.05713h-0.34326v1.95313h0.27637a0.87865,0.87865,0,0,0,.68066-0.24951A1.06181,1.06181,0,0,0,281.24609,88.835Z" transform="translate(-266.13333 -83.0625)" style="fill: #555655"/>
    </g>
    <g>
      <path d="M276.647,96.84277H276.2793l-1.22852-2.06787h-0.01367c0.00684,0.08789.0127,0.1748,0.01709,0.26123,0.00439,0.07422.0083,0.15186,0.01123,0.23242,0.00293,0.08105.00391,0.1543,0.00391,0.21875v1.35547h-0.29395V94.34424h0.36426l1.22363,2.05762H276.375c-0.00293-.08643-0.00732-0.17187-0.01172-0.25635-0.001-.03662-0.00244-0.07373-0.00439-0.11182l-0.00488-.11475c-0.002-.03809-0.00293-0.07471-0.00342-0.11035-0.00049-.03516-0.001-0.06738-0.001-0.09717V94.34424H276.647v2.49854Z" transform="translate(-266.13333 -83.0625)" style="fill: #555655"/>
      <path d="M278.64355,96.1748a0.71849,0.71849,0,0,1-.05908.29639,0.61582,0.61582,0,0,1-.16846.22119,0.74187,0.74187,0,0,1-.2666.1377,1.23691,1.23691,0,0,1-.35352.04688,1.98056,1.98056,0,0,1-.355-0.02979,0.96466,0.96466,0,0,1-.27588-0.08838V96.45508c0.03857,0.01807.083,0.03613,0.13232,0.05371q0.07471,0.02637.15674,0.04688a1.66749,1.66749,0,0,0,.16895.0332,1.15329,1.15329,0,0,0,.17285.0127,0.65062,0.65062,0,0,0,.40381-0.10254,0.35053,0.35053,0,0,0,.13086-0.29395,0.4656,0.4656,0,0,0-.0249-0.16016,0.31739,0.31739,0,0,0-.08691-0.126,0.75484,0.75484,0,0,0-.167-0.11084c-0.06934-.03613-0.15723-0.0752-0.2627-0.11719a1.56629,1.56629,0,0,1-.26416-0.13086,0.76411,0.76411,0,0,1-.18457-0.15967,0.59542,0.59542,0,0,1-.10791-0.20166,0.8609,0.8609,0,0,1-.03516-0.25635,0.63893,0.63893,0,0,1,.05469-0.26855,0.55954,0.55954,0,0,1,.1543-0.19873,0.68549,0.68549,0,0,1,.23633-0.124,1.026,1.026,0,0,1,.30371-0.04248,1.60146,1.60146,0,0,1,.36523.03809,1.47283,1.47283,0,0,1,.28906.09863l-0.11426.2666a1.60306,1.60306,0,0,0-.25244-0.08643,1.152,1.152,0,0,0-.2915-0.03662,0.486,0.486,0,0,0-.32275.09619,0.32431,0.32431,0,0,0-.11475.26074,0.4966,0.4966,0,0,0,.02588.16846,0.32986,0.32986,0,0,0,.08545.12793,0.6813,0.6813,0,0,0,.1582.10791c0.06543,0.03369.146,0.06885,0.2417,0.10693a2.41149,2.41149,0,0,1,.27246.126,0.81927,0.81927,0,0,1,.1958.14746,0.55026,0.55026,0,0,1,.11865.18945A0.727,0.727,0,0,1,278.64355,96.1748Z" transform="translate(-266.13333 -83.0625)" style="fill: #555655"/>
      <path d="M280.46,96.1748a0.71849,0.71849,0,0,1-.05908.29639,0.61582,0.61582,0,0,1-.16846.22119,0.74187,0.74187,0,0,1-.2666.1377,1.23691,1.23691,0,0,1-.35352.04688,1.98056,1.98056,0,0,1-.355-0.02979,0.96466,0.96466,0,0,1-.27588-0.08838V96.45508c0.03857,0.01807.083,0.03613,0.13232,0.05371q0.07471,0.02637.15674,0.04688a1.66749,1.66749,0,0,0,.16895.0332,1.15329,1.15329,0,0,0,.17285.0127,0.65062,0.65062,0,0,0,.40381-0.10254,0.35053,0.35053,0,0,0,.13086-0.29395,0.4656,0.4656,0,0,0-.0249-0.16016,0.31739,0.31739,0,0,0-.08691-0.126,0.75484,0.75484,0,0,0-.167-0.11084c-0.06934-.03613-0.15723-0.0752-0.2627-0.11719a1.56628,1.56628,0,0,1-.26416-0.13086,0.76411,0.76411,0,0,1-.18457-0.15967,0.59542,0.59542,0,0,1-.10791-0.20166,0.8609,0.8609,0,0,1-.03516-0.25635,0.63893,0.63893,0,0,1,.05469-0.26855,0.55954,0.55954,0,0,1,.1543-0.19873,0.68548,0.68548,0,0,1,.23633-0.124,1.026,1.026,0,0,1,.30371-0.04248,1.60146,1.60146,0,0,1,.36523.03809,1.47284,1.47284,0,0,1,.28906.09863l-0.11426.2666a1.60306,1.60306,0,0,0-.25244-0.08643,1.152,1.152,0,0,0-.2915-0.03662,0.486,0.486,0,0,0-.32275.09619,0.32431,0.32431,0,0,0-.11475.26074,0.4966,0.4966,0,0,0,.02588.16846,0.32986,0.32986,0,0,0,.08545.12793,0.6813,0.6813,0,0,0,.1582.10791c0.06543,0.03369.146,0.06885,0.2417,0.10693a2.41148,2.41148,0,0,1,.27246.126,0.81927,0.81927,0,0,1,.1958.14746,0.55026,0.55026,0,0,1,.11865.18945A0.727,0.727,0,0,1,280.46,96.1748Z" transform="translate(-266.13333 -83.0625)" style="fill: #555655"/>
    </g>
    <g>
      <path d="M275.80762,103.58789l-0.75684-2.1875h-0.01367c0.00684,0.08447.0127,0.168,0.01709,0.251,0.00439,0.07227.0083,0.14746,0.01123,0.22656s0.00391,0.15137.00391,0.21631v1.49365h-0.29395v-2.49854h0.47168l0.7041,2.03711h0.01074l0.707-2.03711h0.47168v2.49854h-0.31738v-1.51562q0-.08936.00293-0.20361c0.00244-.07617.00537-0.14941,0.00879-0.21875,0.00439-.08105.00879-0.16309,0.01172-0.24609H276.833l-0.76367,2.18408h-0.26172Z" transform="translate(-266.13333 -83.0625)" style="fill: #555655"/>
      <path d="M279.86182,102.335a1.88429,1.88429,0,0,1-.06934.52637,1.15612,1.15612,0,0,1-.20605.40723,0.92436,0.92436,0,0,1-.33936.26123,1.11465,1.11465,0,0,1-.46729.09229,1.1657,1.1657,0,0,1-.48291-0.09229,0.89766,0.89766,0,0,1-.33838-0.26123,1.13222,1.13222,0,0,1-.19922-0.40771,2.02731,2.02731,0,0,1-.06445-0.52881,2.00536,2.00536,0,0,1,.06445-0.52734,1.10575,1.10575,0,0,1,.2002-0.4043,0.89683,0.89683,0,0,1,.33984-0.25879,1.18012,1.18012,0,0,1,.48389-0.0918,1.11219,1.11219,0,0,1,.46582.0918,0.92079,0.92079,0,0,1,.3374.25977,1.14433,1.14433,0,0,1,.20605.40479A1.89216,1.89216,0,0,1,279.86182,102.335Zm-1.83057,0a1.818,1.818,0,0,0,.04443.42139,0.91736,0.91736,0,0,0,.13574.31787,0.60809,0.60809,0,0,0,.23242.2002,0.84849,0.84849,0,0,0,.67188,0,0.60809,0.60809,0,0,0,.23242-0.2002,0.88884,0.88884,0,0,0,.13379-0.31787,2.09011,2.09011,0,0,0,0-.84326,0.89285,0.89285,0,0,0-.13281-0.31543,0.61135,0.61135,0,0,0-.231-0.19824,0.75212,0.75212,0,0,0-.335-0.06934,0.76166,0.76166,0,0,0-.33643.06934,0.61794,0.61794,0,0,0-.23437.19824,0.8962,0.8962,0,0,0-.13672.31543A1.81343,1.81343,0,0,0,278.03125,102.335Z" transform="translate(-266.13333 -83.0625)" style="fill: #555655"/>
      <path d="M281.73486,102.91992a0.71849,0.71849,0,0,1-.05908.29639,0.61582,0.61582,0,0,1-.16846.22119,0.74187,0.74187,0,0,1-.2666.1377,1.23691,1.23691,0,0,1-.35352.04688,1.98056,1.98056,0,0,1-.355-0.02979,0.96466,0.96466,0,0,1-.27588-0.08838V103.2002c0.03857,0.01807.083,0.03613,0.13232,0.05371q0.07471,0.02637.15674,0.04688a1.66752,1.66752,0,0,0,.16895.0332,1.1533,1.1533,0,0,0,.17285.0127,0.65062,0.65062,0,0,0,.40381-0.10254,0.35053,0.35053,0,0,0,.13086-0.29395,0.4656,0.4656,0,0,0-.0249-0.16016,0.31739,0.31739,0,0,0-.08691-0.126,0.75484,0.75484,0,0,0-.167-0.11084c-0.06934-.03613-0.15723-0.0752-0.2627-0.11719a1.56629,1.56629,0,0,1-.26416-0.13086,0.76411,0.76411,0,0,1-.18457-0.15967,0.59542,0.59542,0,0,1-.10791-0.20166,0.8609,0.8609,0,0,1-.03516-0.25635,0.63893,0.63893,0,0,1,.05469-0.26855,0.55954,0.55954,0,0,1,.1543-0.19873,0.68549,0.68549,0,0,1,.23633-0.124,1.026,1.026,0,0,1,.30371-0.04248,1.60146,1.60146,0,0,1,.36523.03809,1.47283,1.47283,0,0,1,.28906.09863l-0.11426.2666a1.603,1.603,0,0,0-.25244-0.08643,1.152,1.152,0,0,0-.2915-0.03662,0.486,0.486,0,0,0-.32275.09619,0.32431,0.32431,0,0,0-.11475.26074,0.4966,0.4966,0,0,0,.02588.16846,0.32986,0.32986,0,0,0,.08545.12793,0.6813,0.6813,0,0,0,.1582.10791c0.06543,0.03369.146,0.06885,0.2417,0.10693a2.41151,2.41151,0,0,1,.27246.126,0.81927,0.81927,0,0,1,.1958.14746,0.55026,0.55026,0,0,1,.11865.18945A0.727,0.727,0,0,1,281.73486,102.91992Z" transform="translate(-266.13333 -83.0625)" style="fill: #555655"/>
      <path d="M282.94141,103.58789h-0.90576v-0.17432l0.29395-.06982V101.334l-0.29395-.07031v-0.17432h0.90576v0.17432l-0.29395.07031v2.00977l0.29395,0.06982v0.17432Z" transform="translate(-266.13333 -83.0625)" style="fill: #555655"/>
    </g>
    <g>
      <path d="M275.80762,110.333l-0.75684-2.1875h-0.01367c0.00684,0.08447.0127,0.168,0.01709,0.251,0.00439,0.07227.0083,0.14746,0.01123,0.22656s0.00391,0.15137.00391,0.21631V110.333h-0.29395v-2.49854h0.47168l0.7041,2.03711h0.01074l0.707-2.03711h0.47168V110.333h-0.31738v-1.51562q0-.08936.00293-0.20361c0.00244-.07617.00537-0.14941,0.00879-0.21875,0.00439-.08105.00879-0.16309,0.01172-0.24609H276.833l-0.76367,2.18408h-0.26172Z" transform="translate(-266.13333 -83.0625)" style="fill: #555655"/>
      <path d="M278.52686,110.333h-0.90576v-0.17432l0.29395-.06982V108.0791l-0.29395-.07031v-0.17432h0.90576v0.17432l-0.29395.07031v2.00977l0.29395,0.06982V110.333Z" transform="translate(-266.13333 -83.0625)" style="fill: #555655"/>
      <path d="M280.32324,109.665a0.71849,0.71849,0,0,1-.05908.29639,0.61582,0.61582,0,0,1-.16846.22119,0.74187,0.74187,0,0,1-.2666.1377,1.23691,1.23691,0,0,1-.35352.04688,1.98055,1.98055,0,0,1-.355-0.02979,0.96466,0.96466,0,0,1-.27588-0.08838v-0.30371c0.03857,0.01807.083,0.03613,0.13232,0.05371q0.07471,0.02637.15674,0.04688a1.66749,1.66749,0,0,0,.16895.0332,1.1533,1.1533,0,0,0,.17285.0127,0.65062,0.65062,0,0,0,.40381-0.10254,0.35053,0.35053,0,0,0,.13086-0.29395,0.4656,0.4656,0,0,0-.0249-0.16016,0.31739,0.31739,0,0,0-.08691-0.126,0.75484,0.75484,0,0,0-.167-0.11084c-0.06934-.03613-0.15723-0.0752-0.2627-0.11719a1.56628,1.56628,0,0,1-.26416-0.13086,0.76411,0.76411,0,0,1-.18457-0.15967,0.59542,0.59542,0,0,1-.10791-0.20166,0.8609,0.8609,0,0,1-.03516-0.25635,0.63893,0.63893,0,0,1,.05469-0.26855,0.55954,0.55954,0,0,1,.1543-0.19873,0.68549,0.68549,0,0,1,.23633-0.124,1.026,1.026,0,0,1,.30371-0.04248,1.60145,1.60145,0,0,1,.36523.03809,1.47283,1.47283,0,0,1,.28906.09863l-0.11426.2666a1.60305,1.60305,0,0,0-.25244-0.08643,1.152,1.152,0,0,0-.2915-0.03662,0.486,0.486,0,0,0-.32275.09619,0.32431,0.32431,0,0,0-.11475.26074,0.4966,0.4966,0,0,0,.02588.16846,0.32986,0.32986,0,0,0,.08545.12793,0.6813,0.6813,0,0,0,.1582.10791c0.06543,0.03369.146,0.06885,0.2417,0.10693a2.41149,2.41149,0,0,1,.27246.126,0.81927,0.81927,0,0,1,.1958.14746,0.55026,0.55026,0,0,1,.11865.18945A0.727,0.727,0,0,1,280.32324,109.665Z" transform="translate(-266.13333 -83.0625)" style="fill: #555655"/>
      <path d="M282.86426,109.08008a1.88429,1.88429,0,0,1-.06934.52637,1.15612,1.15612,0,0,1-.20605.40723,0.92436,0.92436,0,0,1-.33936.26123,1.11465,1.11465,0,0,1-.46729.09229,1.1657,1.1657,0,0,1-.48291-0.09229,0.89765,0.89765,0,0,1-.33838-0.26123,1.13222,1.13222,0,0,1-.19922-0.40771,2.02731,2.02731,0,0,1-.06445-0.52881,2.00536,2.00536,0,0,1,.06445-0.52734,1.10575,1.10575,0,0,1,.2002-0.4043,0.89683,0.89683,0,0,1,.33984-0.25879,1.18012,1.18012,0,0,1,.48389-0.0918,1.11219,1.11219,0,0,1,.46582.0918,0.92079,0.92079,0,0,1,.3374.25977,1.14433,1.14433,0,0,1,.20605.40479A1.89216,1.89216,0,0,1,282.86426,109.08008Zm-1.83057,0a1.818,1.818,0,0,0,.04443.42139,0.91736,0.91736,0,0,0,.13574.31787,0.60809,0.60809,0,0,0,.23242.2002,0.84849,0.84849,0,0,0,.67188,0,0.60809,0.60809,0,0,0,.23242-0.2002,0.88883,0.88883,0,0,0,.13379-0.31787,2.09011,2.09011,0,0,0,0-.84326,0.89286,0.89286,0,0,0-.13281-0.31543,0.61135,0.61135,0,0,0-.231-0.19824,0.75212,0.75212,0,0,0-.335-0.06934,0.76166,0.76166,0,0,0-.33643.06934,0.61794,0.61794,0,0,0-.23437.19824,0.89619,0.89619,0,0,0-.13672.31543A1.81343,1.81343,0,0,0,281.03369,109.08008Z" transform="translate(-266.13333 -83.0625)" style="fill: #555655"/>
    </g>
    <g>
      <path d="M276.0918,116.41064a0.71849,0.71849,0,0,1-.05908.29639,0.61582,0.61582,0,0,1-.16846.22119,0.74187,0.74187,0,0,1-.2666.1377,1.23691,1.23691,0,0,1-.35352.04688,1.98056,1.98056,0,0,1-.355-0.02979,0.96466,0.96466,0,0,1-.27588-0.08838v-0.30371c0.03857,0.01807.083,0.03613,0.13232,0.05371q0.07471,0.02637.15674,0.04688a1.66746,1.66746,0,0,0,.16895.0332,1.15329,1.15329,0,0,0,.17285.0127,0.65062,0.65062,0,0,0,.40381-0.10254,0.35053,0.35053,0,0,0,.13086-0.29395,0.4656,0.4656,0,0,0-.0249-0.16016,0.31739,0.31739,0,0,0-.08691-0.126,0.75484,0.75484,0,0,0-.167-0.11084c-0.06934-.03613-0.15723-0.0752-0.2627-0.11719a1.56628,1.56628,0,0,1-.26416-0.13086,0.76411,0.76411,0,0,1-.18457-0.15967,0.59542,0.59542,0,0,1-.10791-0.20166,0.8609,0.8609,0,0,1-.03516-0.25635,0.63892,0.63892,0,0,1,.05469-0.26855,0.55954,0.55954,0,0,1,.1543-0.19873,0.68549,0.68549,0,0,1,.23633-0.124,1.026,1.026,0,0,1,.30371-0.04248,1.60146,1.60146,0,0,1,.36523.03809,1.47284,1.47284,0,0,1,.28906.09863l-0.11426.2666a1.60306,1.60306,0,0,0-.25244-0.08643,1.152,1.152,0,0,0-.2915-0.03662,0.486,0.486,0,0,0-.32275.09619,0.32431,0.32431,0,0,0-.11475.26074,0.4966,0.4966,0,0,0,.02588.16846,0.32986,0.32986,0,0,0,.08545.12793,0.6813,0.6813,0,0,0,.1582.10791c0.06543,0.03369.146,0.06885,0.2417,0.10693a2.41147,2.41147,0,0,1,.27246.126,0.81927,0.81927,0,0,1,.1958.14746,0.55026,0.55026,0,0,1,.11865.18945A0.727,0.727,0,0,1,276.0918,116.41064Z" transform="translate(-266.13333 -83.0625)" style="fill: #555655"/>
      <path d="M277.60742,114.82471a0.783,0.783,0,0,0-.332.06885,0.712,0.712,0,0,0-.25342.19922,0.92479,0.92479,0,0,0-.1626.31592,1.43642,1.43642,0,0,0-.05713.4209,1.64552,1.64552,0,0,0,.05029.42773,0.86643,0.86643,0,0,0,.15137.31543,0.65125,0.65125,0,0,0,.251.19482,0.865,0.865,0,0,0,.35254.06689,1.3443,1.3443,0,0,0,.28857-0.03027q0.137-.03.27-0.06934v0.27734c-0.04443.0166-.08887,0.03174-0.1333,0.04492a1.11325,1.11325,0,0,1-.13916.03174c-0.04834.00781-.10059,0.01416-0.15576,0.01807s-0.11621.00586-.18359,0.00586a1.17436,1.17436,0,0,1-.48535-0.09229,0.89718,0.89718,0,0,1-.33936-0.26123,1.12988,1.12988,0,0,1-.19922-0.40723,2.00565,2.00565,0,0,1-.06445-0.52637,1.71473,1.71473,0,0,1,.07422-0.51953,1.14241,1.14241,0,0,1,.21875-0.40479,0.9801,0.9801,0,0,1,.35791-0.26318,1.21177,1.21177,0,0,1,.49072-0.09375,1.60682,1.60682,0,0,1,.35156.03711,1.21224,1.21224,0,0,1,.30273.10938l-0.1333.2666a1.55721,1.55721,0,0,0-.23389-0.09375A0.96316,0.96316,0,0,0,277.60742,114.82471Z" transform="translate(-266.13333 -83.0625)" style="fill: #555655"/>
      <path d="M280.38916,117.07861h-0.36084l-0.77051-1.19287-0.2373.19482v0.998h-0.31836v-2.49854h0.31836v1.24951l0.20654-.28711,0.77246-.9624h0.35693l-0.88867,1.08838Z" transform="translate(-266.13333 -83.0625)" style="fill: #555655"/>
    </g>
    <g>
      <path d="M276.61621,122.55029a1.70327,1.70327,0,0,1-.082.55469,1.05177,1.05177,0,0,1-.2373.39844,0.98928,0.98928,0,0,1-.38232.24023,1.53625,1.53625,0,0,1-.51318.08008h-0.626V121.3252h0.6958a1.35452,1.35452,0,0,1,.47314.07861,0.949,0.949,0,0,1,.36084.2334,1.05139,1.05139,0,0,1,.23.38379A1.57825,1.57825,0,0,1,276.61621,122.55029Zm-0.33691.01074a1.46506,1.46506,0,0,0-.05615-0.43164,0.77355,0.77355,0,0,0-.16406-0.2998,0.65087,0.65087,0,0,0-.26514-0.17529,1.03878,1.03878,0,0,0-.35693-0.05713h-0.34326v1.95313h0.27637a0.87865,0.87865,0,0,0,.68066-0.24951A1.06181,1.06181,0,0,0,276.2793,122.561Z" transform="translate(-266.13333 -83.0625)" style="fill: #555655"/>
      <path d="M277.8418,123.82373H276.936v-0.17432l0.29395-.06982v-2.00977l-0.29395-.07031V121.3252h0.90576v0.17432l-0.29395.07031v2.00977l0.29395,0.06982v0.17432Z" transform="translate(-266.13333 -83.0625)" style="fill: #555655"/>
      <path d="M280.32861,122.5708a1.88429,1.88429,0,0,1-.06934.52637,1.15612,1.15612,0,0,1-.20605.40723,0.92436,0.92436,0,0,1-.33936.26123,1.11465,1.11465,0,0,1-.46729.09229,1.1657,1.1657,0,0,1-.48291-0.09229,0.89765,0.89765,0,0,1-.33838-0.26123,1.13222,1.13222,0,0,1-.19922-0.40771,2.02731,2.02731,0,0,1-.06445-0.52881,2.00536,2.00536,0,0,1,.06445-0.52734,1.10575,1.10575,0,0,1,.2002-0.4043,0.89683,0.89683,0,0,1,.33984-0.25879,1.18012,1.18012,0,0,1,.48389-0.0918,1.11219,1.11219,0,0,1,.46582.0918,0.92079,0.92079,0,0,1,.3374.25977,1.14433,1.14433,0,0,1,.20605.40479A1.89215,1.89215,0,0,1,280.32861,122.5708Zm-1.83057,0a1.818,1.818,0,0,0,.04443.42139,0.91736,0.91736,0,0,0,.13574.31787,0.60809,0.60809,0,0,0,.23242.2002,0.84849,0.84849,0,0,0,.67188,0,0.60809,0.60809,0,0,0,.23242-0.2002,0.88884,0.88884,0,0,0,.13379-0.31787,2.09011,2.09011,0,0,0,0-.84326,0.89285,0.89285,0,0,0-.13281-0.31543,0.61135,0.61135,0,0,0-.231-0.19824,0.75212,0.75212,0,0,0-.335-0.06934,0.76166,0.76166,0,0,0-.33643.06934,0.61794,0.61794,0,0,0-.23437.19824,0.89619,0.89619,0,0,0-.13672.31543A1.81343,1.81343,0,0,0,278.498,122.5708Z" transform="translate(-266.13333 -83.0625)" style="fill: #555655"/>
      <path d="M281.47705,122.29053a1.02543,1.02543,0,0,1,.31494.04736,0.73262,0.73262,0,0,1,.25488.13916,0.64056,0.64056,0,0,1,.16992.229,0.76459,0.76459,0,0,1,.06152.31592,0.99986,0.99986,0,0,1-.05811.35059,0.68,0.68,0,0,1-.17285.26318,0.76311,0.76311,0,0,1-.28271.165,1.20345,1.20345,0,0,1-.38721.05713,1.65744,1.65744,0,0,1-.17139-0.00879,1.49342,1.49342,0,0,1-.1626-0.02441,1.03545,1.03545,0,0,1-.14746-0.042,0.7635,0.7635,0,0,1-.127-0.05957V123.4292a0.70456,0.70456,0,0,0,.13281.06982,1.1729,1.1729,0,0,0,.15967.05127,1.52725,1.52725,0,0,0,.16846.03174,1.21813,1.21813,0,0,0,.15625.01123,0.849,0.849,0,0,0,.24121-0.03174,0.46234,0.46234,0,0,0,.1792-0.09814,0.44342,0.44342,0,0,0,.11279-0.168,0.65173,0.65173,0,0,0,.03906-0.23926,0.46351,0.46351,0,0,0-.15039-0.373,0.65441,0.65441,0,0,0-.4375-0.12891c-0.03027,0-.064.001-0.09961,0.00391-0.03613.00293-.07178,0.00684-0.10791,0.01123q-0.05347.00659-.10254,0.01465c-0.03223.00488-.06055,0.00977-0.08447,0.01416l-0.15381-.09717,0.09424-1.17578h1.17871v0.28369H281.186l-0.06641.71582c0.03662-.00684.08447-0.01416,0.14453-0.022A1.66,1.66,0,0,1,281.47705,122.29053Z" transform="translate(-266.13333 -83.0625)" style="fill: #555655"/>
    </g>
    <g>
      <path d="M276.61621,129.29541a1.70327,1.70327,0,0,1-.082.55469,1.05177,1.05177,0,0,1-.2373.39844,0.98928,0.98928,0,0,1-.38232.24023,1.53625,1.53625,0,0,1-.51318.08008h-0.626v-2.49854h0.6958a1.35452,1.35452,0,0,1,.47314.07861,0.949,0.949,0,0,1,.36084.2334,1.05139,1.05139,0,0,1,.23.38379A1.57825,1.57825,0,0,1,276.61621,129.29541Zm-0.33691.01074a1.46506,1.46506,0,0,0-.05615-0.43164,0.77355,0.77355,0,0,0-.16406-0.2998,0.65087,0.65087,0,0,0-.26514-0.17529,1.03878,1.03878,0,0,0-.35693-0.05713h-0.34326v1.95313h0.27637a0.87865,0.87865,0,0,0,.68066-0.24951A1.06181,1.06181,0,0,0,276.2793,129.30615Z" transform="translate(-266.13333 -83.0625)" style="fill: #555655"/>
      <path d="M277.8418,130.56885H276.936v-0.17432l0.29395-.06982v-2.00977l-0.29395-.07031v-0.17432h0.90576v0.17432l-0.29395.07031v2.00977l0.29395,0.06982v0.17432Z" transform="translate(-266.13333 -83.0625)" style="fill: #555655"/>
      <path d="M280.32861,129.31592a1.88429,1.88429,0,0,1-.06934.52637,1.15612,1.15612,0,0,1-.20605.40723,0.92436,0.92436,0,0,1-.33936.26123,1.11465,1.11465,0,0,1-.46729.09229,1.1657,1.1657,0,0,1-.48291-0.09229,0.89765,0.89765,0,0,1-.33838-0.26123,1.13222,1.13222,0,0,1-.19922-0.40771,2.02731,2.02731,0,0,1-.06445-0.52881,2.00536,2.00536,0,0,1,.06445-0.52734,1.10575,1.10575,0,0,1,.2002-0.4043,0.89683,0.89683,0,0,1,.33984-0.25879,1.18012,1.18012,0,0,1,.48389-0.0918,1.11219,1.11219,0,0,1,.46582.0918,0.92079,0.92079,0,0,1,.3374.25977,1.14433,1.14433,0,0,1,.20605.40479A1.89215,1.89215,0,0,1,280.32861,129.31592Zm-1.83057,0a1.818,1.818,0,0,0,.04443.42139,0.91736,0.91736,0,0,0,.13574.31787,0.60809,0.60809,0,0,0,.23242.2002,0.84849,0.84849,0,0,0,.67188,0,0.60809,0.60809,0,0,0,.23242-0.2002,0.88884,0.88884,0,0,0,.13379-0.31787,2.09011,2.09011,0,0,0,0-.84326,0.89285,0.89285,0,0,0-.13281-0.31543,0.61135,0.61135,0,0,0-.231-0.19824,0.75212,0.75212,0,0,0-.335-0.06934,0.76166,0.76166,0,0,0-.33643.06934,0.61794,0.61794,0,0,0-.23437.19824,0.89619,0.89619,0,0,0-.13672.31543A1.81343,1.81343,0,0,0,278.498,129.31592Z" transform="translate(-266.13333 -83.0625)" style="fill: #555655"/>
      <path d="M282.40283,130.0083h-0.36377v0.56055h-0.30078V130.0083h-1.15381v-0.27148l1.1333-1.68018h0.32129v1.668h0.36377v0.28369Zm-0.66455-.28369v-0.6084c0-.064.001-0.13086,0.00244-0.20068l0.00586-.20508c0.00244-.06689.00488-0.12891,0.00781-0.1875,0.00293-.05762.00488-0.10645,0.00586-0.145h-0.01514c-0.00781.02295-.01807,0.04834-0.02979,0.07617q-0.01831.04175-.03955,0.0835c-0.01416.02783-.02881,0.05518-0.04346,0.08105a0.76349,0.76349,0,0,1-.041.06689l-0.70215,1.03906h0.84912Z" transform="translate(-266.13333 -83.0625)" style="fill: #555655"/>
    </g>
    <g>
      <path d="M275.772,135.99463h0.82715v1.22559c-0.0625.02051-.126,0.03857-0.18994,0.05469-0.06348.01563-.12891,0.0293-0.19629,0.04s-0.1377.019-.21191,0.02441c-0.07422.00586-.15381,0.00879-0.23926,0.00879a1.17968,1.17968,0,0,1-.4751-0.08984,0.94206,0.94206,0,0,1-.34863-0.25635,1.12292,1.12292,0,0,1-.21533-0.40479,1.82517,1.82517,0,0,1-.07324-0.53613,1.63322,1.63322,0,0,1,.08105-0.53125,1.11549,1.11549,0,0,1,.23633-0.4043,1.04447,1.04447,0,0,1,.38379-0.25635,1.42034,1.42034,0,0,1,.52051-0.08936,1.73557,1.73557,0,0,1,.36426.03711,1.48094,1.48094,0,0,1,.32422.10938l-0.123.27734a1.33164,1.33164,0,0,0-.13232-0.05469c-0.04736-.01758-0.0957-0.03223-0.146-0.04541a1.42352,1.42352,0,0,0-.15479-0.03174,1.07651,1.07651,0,0,0-.15771-0.01172,0.9287,0.9287,0,0,0-.36914.06885,0.71513,0.71513,0,0,0-.26953.19922,0.89548,0.89548,0,0,0-.165.31592,1.47111,1.47111,0,0,0-.05615.4209,1.64838,1.64838,0,0,0,.04688.40625,0.86564,0.86564,0,0,0,.1499.31836,0.67884,0.67884,0,0,0,.26465.20654,0.94832,0.94832,0,0,0,.3916.07373c0.0498,0,.0957-0.00146.13721-0.00439s0.08008-.00684.11572-0.01123q0.05273-.00659.09961-0.01611l0.0918-.01807V136.2749H275.772v-0.28027Z" transform="translate(-266.13333 -83.0625)" style="fill: #555655"/>
      <path d="M279.062,137.314h-0.36768l-1.22852-2.06787h-0.01367c0.00684,0.08789.0127,0.1748,0.01709,0.26123,0.00439,0.07422.0083,0.15186,0.01123,0.23242,0.00293,0.08105.00391,0.1543,0.00391,0.21875V137.314h-0.29395v-2.49854h0.36426l1.22363,2.05762H278.79c-0.00293-.08643-0.00732-0.17187-0.01172-0.25635-0.001-.03662-0.00244-0.07373-0.00439-0.11182l-0.00488-.11475c-0.002-.03809-0.00293-0.07471-0.00342-0.11035-0.00049-.03516-0.001-0.06738-0.001-0.09717v-1.36719H279.062V137.314Z" transform="translate(-266.13333 -83.0625)" style="fill: #555655"/>
      <path d="M281.583,136.04053a1.70327,1.70327,0,0,1-.082.55469,1.05177,1.05177,0,0,1-.2373.39844,0.98928,0.98928,0,0,1-.38232.24023,1.53625,1.53625,0,0,1-.51318.08008h-0.626v-2.49854h0.6958a1.35452,1.35452,0,0,1,.47314.07861,0.949,0.949,0,0,1,.36084.2334,1.05138,1.05138,0,0,1,.23.38379A1.57825,1.57825,0,0,1,281.583,136.04053Zm-0.33691.01074a1.46506,1.46506,0,0,0-.05615-0.43164,0.77355,0.77355,0,0,0-.16406-0.2998,0.65087,0.65087,0,0,0-.26514-0.17529,1.03878,1.03878,0,0,0-.35693-0.05713h-0.34326v1.95313h0.27637a0.87865,0.87865,0,0,0,.68066-0.24951A1.06181,1.06181,0,0,0,281.24609,136.05127Z" transform="translate(-266.13333 -83.0625)" style="fill: #555655"/>
    </g>
  </g>
  <g id="Right_Connector_Labels" data-name="Right Connector Labels">
    <g>
      <path d="M320.00439,90.09766l-0.27344-.77441H318.7998l-0.27686.77441h-0.32129l0.918-2.50879h0.29l0.91992,2.50879h-0.3252Zm-0.374-1.05615-0.25293-.72461-0.0249-.0752c-0.00977-.02979-0.01953-0.06152-0.02979-0.0957s-0.02051-.06982-0.03076-0.10693-0.02-.07324-0.02881-0.1084c-0.0083.03516-.01758,0.07178-0.02734,0.10938-0.01074.0376-.02051,0.07373-0.03125,0.1084-0.00977.03467-.02,0.06689-0.02979,0.0957l-0.0249.07275-0.24756.72461h0.728Z" transform="translate(-266.13333 -83.0625)" style="fill: #555655"/>
      <path d="M322.541,90.09766h-0.36768l-1.22852-2.06787h-0.01367c0.00684,0.08789.0127,0.1748,0.01709,0.26123,0.00439,0.07422.0083,0.15186,0.01123,0.23242,0.00293,0.08105.00391,0.1543,0.00391,0.21875v1.35547h-0.29395V87.59912h0.36426l1.22363,2.05762H322.269c-0.00293-.08643-0.00732-0.17187-0.01172-0.25635-0.001-.03662-0.00244-0.07373-0.00439-0.11182l-0.00488-.11475c-0.002-.03809-0.00293-0.07471-0.00342-0.11035-0.00049-.03516-0.001-0.06738-0.001-0.09717V87.59912H322.541v2.49854Z" transform="translate(-266.13333 -83.0625)" style="fill: #555655"/>
      <path d="M323.94971,90.09766h-0.31982V87.87939h-0.71436V87.59912h1.74658v0.28027h-0.7124v2.21826Z" transform="translate(-266.13333 -83.0625)" style="fill: #555655"/>
    </g>
    <g>
      <path d="M318.67383,95.52344H319.501V96.749c-0.0625.02051-.126,0.03857-0.18994,0.05469-0.06348.01563-.12891,0.0293-0.19629,0.04s-0.1377.019-.21191,0.02441c-0.07422.00586-.15381,0.00879-0.23926,0.00879a1.17968,1.17968,0,0,1-.4751-0.08984,0.94206,0.94206,0,0,1-.34863-0.25635,1.12292,1.12292,0,0,1-.21533-0.40479,1.82518,1.82518,0,0,1-.07324-0.53613,1.63322,1.63322,0,0,1,.08105-0.53125,1.11549,1.11549,0,0,1,.23633-0.4043,1.04447,1.04447,0,0,1,.38379-0.25635,1.42034,1.42034,0,0,1,.52051-0.08936,1.73557,1.73557,0,0,1,.36426.03711,1.48093,1.48093,0,0,1,.32422.10938l-0.123.27734a1.33166,1.33166,0,0,0-.13232-0.05469c-0.04736-.01758-0.0957-0.03223-0.146-0.04541a1.42352,1.42352,0,0,0-.15479-0.03174,1.07651,1.07651,0,0,0-.15771-0.01172,0.9287,0.9287,0,0,0-.36914.06885,0.71513,0.71513,0,0,0-.26953.19922,0.89548,0.89548,0,0,0-.165.31592,1.47111,1.47111,0,0,0-.05615.4209A1.64838,1.64838,0,0,0,317.93457,96a0.86564,0.86564,0,0,0,.1499.31836,0.67884,0.67884,0,0,0,.26465.20654,0.94832,0.94832,0,0,0,.3916.07373c0.0498,0,.0957-0.00146.13721-0.00439s0.08008-.00684.11572-0.01123q0.05273-.00659.09961-0.01611l0.0918-.01807V95.80371h-0.51123V95.52344Z" transform="translate(-266.13333 -83.0625)" style="fill: #555655"/>
      <path d="M321.96387,96.84277h-0.36768l-1.22852-2.06787H320.354c0.00684,0.08789.0127,0.1748,0.01709,0.26123,0.00439,0.07422.0083,0.15186,0.01123,0.23242,0.00293,0.08105.00391,0.1543,0.00391,0.21875v1.35547h-0.29395V94.34424h0.36426l1.22363,2.05762h0.01172c-0.00293-.08643-0.00732-0.17187-0.01172-0.25635-0.001-.03662-0.00244-0.07373-0.00439-0.11182l-0.00488-.11475c-0.002-.03809-0.00293-0.07471-0.00342-0.11035-0.00049-.03516-0.001-0.06738-0.001-0.09717V94.34424h0.29736v2.49854Z" transform="translate(-266.13333 -83.0625)" style="fill: #555655"/>
      <path d="M324.48486,95.56934a1.70327,1.70327,0,0,1-.082.55469,1.05176,1.05176,0,0,1-.2373.39844,0.98928,0.98928,0,0,1-.38232.24023,1.53625,1.53625,0,0,1-.51318.08008h-0.626V94.34424h0.6958a1.35452,1.35452,0,0,1,.47314.07861,0.949,0.949,0,0,1,.36084.2334,1.05138,1.05138,0,0,1,.23.38379A1.57825,1.57825,0,0,1,324.48486,95.56934Zm-0.33691.01074a1.46507,1.46507,0,0,0-.05615-0.43164,0.77355,0.77355,0,0,0-.16406-0.2998,0.65087,0.65087,0,0,0-.26514-0.17529,1.03879,1.03879,0,0,0-.35693-0.05713H322.9624v1.95313h0.27637a0.87865,0.87865,0,0,0,.68066-0.24951A1.06181,1.06181,0,0,0,324.14795,95.58008Z" transform="translate(-266.13333 -83.0625)" style="fill: #555655"/>
    </g>
    <g>
      <path d="M319.55908,101.67383a0.62885,0.62885,0,0,1-.03955.22754,0.53809,0.53809,0,0,1-.11035.17773,0.59,0.59,0,0,1-.16992.12354,0.79112,0.79112,0,0,1-.22021.06934v0.01025a0.77221,0.77221,0,0,1,.45947.19238,0.53885,0.53885,0,0,1,.15723.40234,0.791,0.791,0,0,1-.05566.30078,0.62058,0.62058,0,0,1-.16846.23584,0.78769,0.78769,0,0,1-.28516.15381,1.35216,1.35216,0,0,1-.4082.05469,2.00836,2.00836,0,0,1-.35156-0.0293,1.049,1.049,0,0,1-.31006-0.10547v-0.291a1.45747,1.45747,0,0,0,.65479.16406,0.94914,0.94914,0,0,0,.27148-0.03418,0.51563,0.51563,0,0,0,.189-0.09717,0.37872,0.37872,0,0,0,.10938-0.15576,0.57647,0.57647,0,0,0,.03467-0.20654,0.40852,0.40852,0,0,0-.04492-0.19922,0.379,0.379,0,0,0-.12891-0.13672,0.62826,0.62826,0,0,0-.20459-0.07959,1.347,1.347,0,0,0-.27246-0.02539H318.438V102.168H318.665a0.82333,0.82333,0,0,0,.24609-0.03418,0.506,0.506,0,0,0,.18018-0.09766,0.4133,0.4133,0,0,0,.11035-0.15039,0.48154,0.48154,0,0,0,.0376-0.19141,0.39392,0.39392,0,0,0-.03076-0.15918,0.33984,0.33984,0,0,0-.08691-0.11865,0.3986,0.3986,0,0,0-.13525-0.07422,0.55847,0.55847,0,0,0-.17432-0.02588,0.84356,0.84356,0,0,0-.32227.05762,1.2683,1.2683,0,0,0-.26562.14941l-0.15723-.21387a1.07128,1.07128,0,0,1,.14453-0.09863,1.09118,1.09118,0,0,1,.17334-0.08154,1.23093,1.23093,0,0,1,.20068-0.05518,1.203,1.203,0,0,1,.22656-0.02051,1.02977,1.02977,0,0,1,.32373.0459,0.66377,0.66377,0,0,1,.2334.12891,0.54412,0.54412,0,0,1,.14209.19678A0.637,0.637,0,0,1,319.55908,101.67383Z" transform="translate(-266.13333 -83.0625)" style="fill: #555655"/>
      <path d="M320.09521,103.39844a0.30586,0.30586,0,0,1,.01758-0.11035,0.19573,0.19573,0,0,1,.0459-0.07373,0.18037,0.18037,0,0,1,.06836-0.041,0.29063,0.29063,0,0,1,.16992,0,0.18053,0.18053,0,0,1,.06934.041,0.19573,0.19573,0,0,1,.0459.07373,0.30586,0.30586,0,0,1,.01758.11035,0.30024,0.30024,0,0,1-.01758.1084,0.20177,0.20177,0,0,1-.0459.07422,0.17874,0.17874,0,0,1-.06934.043,0.27081,0.27081,0,0,1-.16992,0,0.17871,0.17871,0,0,1-.06836-0.043,0.20177,0.20177,0,0,1-.0459-0.07422A0.30024,0.30024,0,0,1,320.09521,103.39844Z" transform="translate(-266.13333 -83.0625)" style="fill: #555655"/>
      <path d="M322.42529,101.67383a0.62885,0.62885,0,0,1-.03955.22754,0.53809,0.53809,0,0,1-.11035.17773,0.59,0.59,0,0,1-.16992.12354,0.79112,0.79112,0,0,1-.22021.06934v0.01025a0.77221,0.77221,0,0,1,.45947.19238,0.53885,0.53885,0,0,1,.15723.40234,0.791,0.791,0,0,1-.05566.30078,0.62058,0.62058,0,0,1-.16846.23584,0.78769,0.78769,0,0,1-.28516.15381,1.35216,1.35216,0,0,1-.4082.05469,2.00836,2.00836,0,0,1-.35156-0.0293,1.049,1.049,0,0,1-.31006-0.10547v-0.291a1.45747,1.45747,0,0,0,.65479.16406,0.94914,0.94914,0,0,0,.27148-0.03418,0.51563,0.51563,0,0,0,.189-0.09717,0.37872,0.37872,0,0,0,.10938-0.15576,0.57647,0.57647,0,0,0,.03467-0.20654,0.40851,0.40851,0,0,0-.04492-0.19922,0.379,0.379,0,0,0-.12891-0.13672,0.62826,0.62826,0,0,0-.20459-0.07959,1.347,1.347,0,0,0-.27246-0.02539H321.3042V102.168h0.22705a0.82333,0.82333,0,0,0,.24609-0.03418,0.506,0.506,0,0,0,.18018-0.09766,0.4133,0.4133,0,0,0,.11035-0.15039,0.48154,0.48154,0,0,0,.0376-0.19141,0.39392,0.39392,0,0,0-.03076-0.15918,0.33984,0.33984,0,0,0-.08691-0.11865,0.3986,0.3986,0,0,0-.13525-0.07422,0.55847,0.55847,0,0,0-.17432-0.02588,0.84356,0.84356,0,0,0-.32227.05762,1.2683,1.2683,0,0,0-.26562.14941l-0.15723-.21387a1.07128,1.07128,0,0,1,.14453-0.09863,1.09118,1.09118,0,0,1,.17334-0.08154,1.23093,1.23093,0,0,1,.20068-0.05518,1.203,1.203,0,0,1,.22656-0.02051,1.02977,1.02977,0,0,1,.32373.0459,0.66377,0.66377,0,0,1,.2334.12891,0.54412,0.54412,0,0,1,.14209.19678A0.637,0.637,0,0,1,322.42529,101.67383Z" transform="translate(-266.13333 -83.0625)" style="fill: #555655"/>
      <path d="M324.35986,101.08936h0.33789l-0.83545,2.49854h-0.31982l-0.832-2.49854h0.33691l0.50391,1.58447q0.0498,0.15527.08545,0.2998,0.03589,0.14429.06494,0.27051,0.02563-.126.06494-0.27051,0.03955-.14429.09229-0.31055Z" transform="translate(-266.13333 -83.0625)" style="fill: #555655"/>
    </g>
    <g>
      <path d="M315.96338,109.30078V110.333H315.645v-2.49854h0.6084a1.055,1.055,0,0,1,.67188.17627,0.64579,0.64579,0,0,1,.2168.5332,0.73972,0.73972,0,0,1-.0415.25977,0.61955,0.61955,0,0,1-.11133.19043,0.648,0.648,0,0,1-.15771.13232,1.11979,1.11979,0,0,1-.18311.0874l0.68018,1.11914h-0.374l-0.6001-1.03223h-0.39111Zm0-.27h0.28027a0.98379,0.98379,0,0,0,.26123-0.02979,0.45959,0.45959,0,0,0,.17676-0.08887,0.34038,0.34038,0,0,0,.10107-0.147,0.61165,0.61165,0,0,0,.03125-0.20605,0.54956,0.54956,0,0,0-.03467-0.2085,0.333,0.333,0,0,0-.106-0.14014,0.45741,0.45741,0,0,0-.17969-0.07959,1.164,1.164,0,0,0-.25684-0.02441h-0.27344v0.92432Z" transform="translate(-266.13333 -83.0625)" style="fill: #555655"/>
      <path d="M319.00684,110.333h-1.29736v-2.49854h1.29736v0.28027h-0.979v0.77246h0.91406v0.27686h-0.91406v0.88867h0.979V110.333Z" transform="translate(-266.13333 -83.0625)" style="fill: #555655"/>
      <path d="M320.87354,109.665a0.71849,0.71849,0,0,1-.05908.29639,0.61582,0.61582,0,0,1-.16846.22119,0.74187,0.74187,0,0,1-.2666.1377,1.23691,1.23691,0,0,1-.35352.04688,1.98055,1.98055,0,0,1-.355-0.02979,0.96466,0.96466,0,0,1-.27588-0.08838v-0.30371c0.03857,0.01807.083,0.03613,0.13232,0.05371q0.07471,0.02637.15674,0.04688a1.66749,1.66749,0,0,0,.16895.0332,1.1533,1.1533,0,0,0,.17285.0127,0.65062,0.65062,0,0,0,.40381-0.10254,0.35053,0.35053,0,0,0,.13086-0.29395,0.4656,0.4656,0,0,0-.0249-0.16016,0.31739,0.31739,0,0,0-.08691-0.126,0.75484,0.75484,0,0,0-.167-0.11084c-0.06934-.03613-0.15723-0.0752-0.2627-0.11719a1.56628,1.56628,0,0,1-.26416-0.13086,0.76411,0.76411,0,0,1-.18457-0.15967,0.59542,0.59542,0,0,1-.10791-0.20166,0.8609,0.8609,0,0,1-.03516-0.25635,0.63893,0.63893,0,0,1,.05469-0.26855,0.55954,0.55954,0,0,1,.1543-0.19873,0.68548,0.68548,0,0,1,.23633-0.124,1.026,1.026,0,0,1,.30371-0.04248,1.60145,1.60145,0,0,1,.36523.03809,1.47283,1.47283,0,0,1,.28906.09863l-0.11426.2666a1.60306,1.60306,0,0,0-.25244-0.08643,1.152,1.152,0,0,0-.2915-0.03662,0.486,0.486,0,0,0-.32275.09619,0.32431,0.32431,0,0,0-.11475.26074,0.4966,0.4966,0,0,0,.02588.16846,0.32986,0.32986,0,0,0,.08545.12793,0.6813,0.6813,0,0,0,.1582.10791c0.06543,0.03369.146,0.06885,0.2417,0.10693a2.41149,2.41149,0,0,1,.27246.126,0.81927,0.81927,0,0,1,.1958.14746,0.55026,0.55026,0,0,1,.11865.18945A0.727,0.727,0,0,1,320.87354,109.665Z" transform="translate(-266.13333 -83.0625)" style="fill: #555655"/>
      <path d="M322.6709,110.333h-1.29736v-2.49854h1.29736v0.28027h-0.979v0.77246H322.606v0.27686h-0.91406v0.88867h0.979V110.333Z" transform="translate(-266.13333 -83.0625)" style="fill: #555655"/>
      <path d="M323.94971,110.333h-0.31982v-2.21826h-0.71436v-0.28027h1.74658v0.28027h-0.7124V110.333Z" transform="translate(-266.13333 -83.0625)" style="fill: #555655"/>
    </g>
    <g>
      <path d="M318.84131,115.80518a1.70327,1.70327,0,0,1-.082.55469,1.05176,1.05176,0,0,1-.2373.39844,0.98928,0.98928,0,0,1-.38232.24023,1.53626,1.53626,0,0,1-.51318.08008h-0.626v-2.49854h0.6958a1.35452,1.35452,0,0,1,.47314.07861,0.949,0.949,0,0,1,.36084.2334,1.05139,1.05139,0,0,1,.23.38379A1.57825,1.57825,0,0,1,318.84131,115.80518Zm-0.33691.01074a1.46507,1.46507,0,0,0-.05615-0.43164,0.77355,0.77355,0,0,0-.16406-0.2998,0.65087,0.65087,0,0,0-.26514-0.17529,1.03879,1.03879,0,0,0-.35693-0.05713h-0.34326v1.95313h0.27637a0.87865,0.87865,0,0,0,.68066-0.24951A1.06181,1.06181,0,0,0,318.50439,115.81592Z" transform="translate(-266.13333 -83.0625)" style="fill: #555655"/>
      <path d="M320.06689,117.07861h-0.90576V116.9043l0.29395-.06982v-2.00977l-0.29395-.07031v-0.17432h0.90576v0.17432l-0.29395.07031v2.00977l0.29395,0.06982v0.17432Z" transform="translate(-266.13333 -83.0625)" style="fill: #555655"/>
      <path d="M322.55371,115.82568a1.88429,1.88429,0,0,1-.06934.52637,1.15612,1.15612,0,0,1-.20605.40723,0.92436,0.92436,0,0,1-.33936.26123,1.11465,1.11465,0,0,1-.46729.09229,1.1657,1.1657,0,0,1-.48291-0.09229,0.89766,0.89766,0,0,1-.33838-0.26123,1.13222,1.13222,0,0,1-.19922-0.40771,2.02731,2.02731,0,0,1-.06445-0.52881,2.00536,2.00536,0,0,1,.06445-0.52734,1.10575,1.10575,0,0,1,.2002-0.4043,0.89683,0.89683,0,0,1,.33984-0.25879,1.18012,1.18012,0,0,1,.48389-0.0918,1.11219,1.11219,0,0,1,.46582.0918,0.92079,0.92079,0,0,1,.3374.25977,1.14433,1.14433,0,0,1,.20605.40479A1.89216,1.89216,0,0,1,322.55371,115.82568Zm-1.83057,0a1.818,1.818,0,0,0,.04443.42139,0.91736,0.91736,0,0,0,.13574.31787,0.60809,0.60809,0,0,0,.23242.2002,0.84849,0.84849,0,0,0,.67188,0,0.60809,0.60809,0,0,0,.23242-0.2002,0.88884,0.88884,0,0,0,.13379-0.31787,2.09011,2.09011,0,0,0,0-.84326,0.89286,0.89286,0,0,0-.13281-0.31543,0.61135,0.61135,0,0,0-.231-0.19824,0.75212,0.75212,0,0,0-.335-0.06934,0.76166,0.76166,0,0,0-.33643.06934,0.61794,0.61794,0,0,0-.23437.19824,0.89619,0.89619,0,0,0-.13672.31543A1.81344,1.81344,0,0,0,320.72314,115.82568Z" transform="translate(-266.13333 -83.0625)" style="fill: #555655"/>
      <path d="M324.53418,115.82568a3.06562,3.06562,0,0,1-.04346.542,1.251,1.251,0,0,1-.14014.40527,0.68061,0.68061,0,0,1-.249.25293,0.73466,0.73466,0,0,1-.36914.08691,0.68948,0.68948,0,0,1-.35107-0.08691,0.6995,0.6995,0,0,1-.24756-0.25293,1.29872,1.29872,0,0,1-.147-0.40527,2.71119,2.71119,0,0,1-.04883-0.542,3.06773,3.06773,0,0,1,.04346-0.5415,1.26,1.26,0,0,1,.13867-0.4043,0.66364,0.66364,0,0,1,.24609-0.252,0.72088,0.72088,0,0,1,.36621-0.0874,0.66181,0.66181,0,0,1,.60352.33789,1.28351,1.28351,0,0,1,.14844.4043A2.67468,2.67468,0,0,1,324.53418,115.82568Zm-1.28027,0a3.42611,3.42611,0,0,0,.02588.44824,1.18062,1.18062,0,0,0,.082.31836,0.445,0.445,0,0,0,.14795.19141,0.37693,0.37693,0,0,0,.22266.06445,0.38826,0.38826,0,0,0,.22412-0.06348,0.45849,0.45849,0,0,0,.15137-0.18945,1.13332,1.13332,0,0,0,.08545-0.31885,3.36418,3.36418,0,0,0,.02637-0.45068,3.31529,3.31529,0,0,0-.02637-0.44727,1.1296,1.1296,0,0,0-.08545-0.31836,0.45849,0.45849,0,0,0-.15137-0.18945,0.38826,0.38826,0,0,0-.22412-0.06348,0.3835,0.3835,0,0,0-.22266.06348,0.44149,0.44149,0,0,0-.14795.18945,1.17093,1.17093,0,0,0-.082.31836A3.405,3.405,0,0,0,323.25391,115.82568Z" transform="translate(-266.13333 -83.0625)" style="fill: #555655"/>
    </g>
    <g>
      <path d="M318.84131,122.55029a1.70327,1.70327,0,0,1-.082.55469,1.05176,1.05176,0,0,1-.2373.39844,0.98928,0.98928,0,0,1-.38232.24023,1.53625,1.53625,0,0,1-.51318.08008h-0.626V121.3252h0.6958a1.35452,1.35452,0,0,1,.47314.07861,0.949,0.949,0,0,1,.36084.2334,1.05139,1.05139,0,0,1,.23.38379A1.57825,1.57825,0,0,1,318.84131,122.55029Zm-0.33691.01074a1.46507,1.46507,0,0,0-.05615-0.43164,0.77355,0.77355,0,0,0-.16406-0.2998,0.65087,0.65087,0,0,0-.26514-0.17529,1.03878,1.03878,0,0,0-.35693-0.05713h-0.34326v1.95313h0.27637a0.87865,0.87865,0,0,0,.68066-0.24951A1.06181,1.06181,0,0,0,318.50439,122.561Z" transform="translate(-266.13333 -83.0625)" style="fill: #555655"/>
      <path d="M320.06689,123.82373h-0.90576v-0.17432l0.29395-.06982v-2.00977l-0.29395-.07031V121.3252h0.90576v0.17432l-0.29395.07031v2.00977l0.29395,0.06982v0.17432Z" transform="translate(-266.13333 -83.0625)" style="fill: #555655"/>
      <path d="M322.55371,122.5708a1.88429,1.88429,0,0,1-.06934.52637,1.15612,1.15612,0,0,1-.20605.40723,0.92436,0.92436,0,0,1-.33936.26123,1.11465,1.11465,0,0,1-.46729.09229,1.1657,1.1657,0,0,1-.48291-0.09229,0.89766,0.89766,0,0,1-.33838-0.26123,1.13222,1.13222,0,0,1-.19922-0.40771,2.02731,2.02731,0,0,1-.06445-0.52881,2.00536,2.00536,0,0,1,.06445-0.52734,1.10575,1.10575,0,0,1,.2002-0.4043,0.89683,0.89683,0,0,1,.33984-0.25879,1.18012,1.18012,0,0,1,.48389-0.0918,1.11219,1.11219,0,0,1,.46582.0918,0.92079,0.92079,0,0,1,.3374.25977,1.14433,1.14433,0,0,1,.20605.40479A1.89215,1.89215,0,0,1,322.55371,122.5708Zm-1.83057,0a1.818,1.818,0,0,0,.04443.42139,0.91736,0.91736,0,0,0,.13574.31787,0.60809,0.60809,0,0,0,.23242.2002,0.84849,0.84849,0,0,0,.67188,0,0.60809,0.60809,0,0,0,.23242-0.2002,0.88884,0.88884,0,0,0,.13379-0.31787,2.09011,2.09011,0,0,0,0-.84326,0.89285,0.89285,0,0,0-.13281-0.31543,0.61135,0.61135,0,0,0-.231-0.19824,0.75212,0.75212,0,0,0-.335-0.06934,0.76166,0.76166,0,0,0-.33643.06934,0.61794,0.61794,0,0,0-.23437.19824,0.89619,0.89619,0,0,0-.13672.31543A1.81344,1.81344,0,0,0,320.72314,122.5708Z" transform="translate(-266.13333 -83.0625)" style="fill: #555655"/>
      <path d="M323.98535,123.82373h-0.30078v-1.56055c0-.04883.00049-0.10107,0.001-0.15723,0.00049-.05566.002-0.11133,0.00342-0.1665,0.002-.05518.00342-0.10791,0.00537-0.15869l0.00391-.13428c-0.019.02051-.03613,0.03809-0.05078,0.05322q-0.02271.022-.04541,0.04248l-0.04883.04346c-0.01709.01563-.0376,0.0332-0.06152,0.05371l-0.25293.207-0.16406-.21,0.65479-.51123h0.25586v2.49854Z" transform="translate(-266.13333 -83.0625)" style="fill: #555655"/>
    </g>
    <g>
      <path d="M318.84131,129.29541a1.70327,1.70327,0,0,1-.082.55469,1.05177,1.05177,0,0,1-.2373.39844,0.98928,0.98928,0,0,1-.38232.24023,1.53625,1.53625,0,0,1-.51318.08008h-0.626v-2.49854h0.6958a1.35452,1.35452,0,0,1,.47314.07861,0.949,0.949,0,0,1,.36084.2334,1.05139,1.05139,0,0,1,.23.38379A1.57825,1.57825,0,0,1,318.84131,129.29541Zm-0.33691.01074a1.46507,1.46507,0,0,0-.05615-0.43164,0.77355,0.77355,0,0,0-.16406-0.2998,0.65087,0.65087,0,0,0-.26514-0.17529,1.03878,1.03878,0,0,0-.35693-0.05713h-0.34326v1.95313h0.27637a0.87865,0.87865,0,0,0,.68066-0.24951A1.06181,1.06181,0,0,0,318.50439,129.30615Z" transform="translate(-266.13333 -83.0625)" style="fill: #555655"/>
      <path d="M320.06689,130.56885h-0.90576v-0.17432l0.29395-.06982v-2.00977l-0.29395-.07031v-0.17432h0.90576v0.17432l-0.29395.07031v2.00977l0.29395,0.06982v0.17432Z" transform="translate(-266.13333 -83.0625)" style="fill: #555655"/>
      <path d="M322.55371,129.31592a1.88429,1.88429,0,0,1-.06934.52637,1.15612,1.15612,0,0,1-.20605.40723,0.92436,0.92436,0,0,1-.33936.26123,1.11465,1.11465,0,0,1-.46729.09229,1.1657,1.1657,0,0,1-.48291-0.09229,0.89766,0.89766,0,0,1-.33838-0.26123,1.13222,1.13222,0,0,1-.19922-0.40771,2.02731,2.02731,0,0,1-.06445-0.52881,2.00536,2.00536,0,0,1,.06445-0.52734,1.10575,1.10575,0,0,1,.2002-0.4043,0.89683,0.89683,0,0,1,.33984-0.25879,1.18012,1.18012,0,0,1,.48389-0.0918,1.11219,1.11219,0,0,1,.46582.0918,0.92079,0.92079,0,0,1,.3374.25977,1.14433,1.14433,0,0,1,.20605.40479A1.89215,1.89215,0,0,1,322.55371,129.31592Zm-1.83057,0a1.818,1.818,0,0,0,.04443.42139,0.91736,0.91736,0,0,0,.13574.31787,0.60809,0.60809,0,0,0,.23242.2002,0.84849,0.84849,0,0,0,.67188,0,0.60809,0.60809,0,0,0,.23242-0.2002,0.88884,0.88884,0,0,0,.13379-0.31787,2.09011,2.09011,0,0,0,0-.84326,0.89285,0.89285,0,0,0-.13281-0.31543,0.61135,0.61135,0,0,0-.231-0.19824,0.75212,0.75212,0,0,0-.335-0.06934,0.76166,0.76166,0,0,0-.33643.06934,0.61794,0.61794,0,0,0-.23437.19824,0.89619,0.89619,0,0,0-.13672.31543A1.81344,1.81344,0,0,0,320.72314,129.31592Z" transform="translate(-266.13333 -83.0625)" style="fill: #555655"/>
      <path d="M324.49316,130.56885h-1.55859v-0.2666l0.59814-.65137q0.12817-.1377.229-0.25293a1.92249,1.92249,0,0,0,.17188-0.22363,0.97565,0.97565,0,0,0,.1084-0.21973,0.74205,0.74205,0,0,0,.0376-0.24023,0.512,0.512,0,0,0-.02881-0.17773,0.37049,0.37049,0,0,0-.083-0.13037,0.3565,0.3565,0,0,0-.12744-0.08154,0.47,0.47,0,0,0-.16406-0.02734,0.64005,0.64005,0,0,0-.293.06592,1.18686,1.18686,0,0,0-.24854.16846l-0.1748-.20312a1.45425,1.45425,0,0,1,.14746-0.11572,1.02522,1.02522,0,0,1,.16895-0.09326,1.0969,1.0969,0,0,1,.19141-0.062,0.93358,0.93358,0,0,1,.21191-0.02295,0.89693,0.89693,0,0,1,.29639.0459,0.62465,0.62465,0,0,1,.2251.13232,0.58881,0.58881,0,0,1,.14258.21045,0.73377,0.73377,0,0,1,.05029.2793,0.84411,0.84411,0,0,1-.04541.27686,1.28166,1.28166,0,0,1-.12451.25879,2.05326,2.05326,0,0,1-.18994.25537q-0.10986.12891-.23828,0.2666l-0.48047.51123v0.01367h1.17773v0.28369Z" transform="translate(-266.13333 -83.0625)" style="fill: #555655"/>
    </g>
    <g>
      <path d="M318.84131,136.04053a1.70327,1.70327,0,0,1-.082.55469,1.05176,1.05176,0,0,1-.2373.39844,0.98928,0.98928,0,0,1-.38232.24023,1.53625,1.53625,0,0,1-.51318.08008h-0.626v-2.49854h0.6958a1.35452,1.35452,0,0,1,.47314.07861,0.949,0.949,0,0,1,.36084.2334,1.05138,1.05138,0,0,1,.23.38379A1.57825,1.57825,0,0,1,318.84131,136.04053Zm-0.33691.01074a1.46507,1.46507,0,0,0-.05615-0.43164,0.77355,0.77355,0,0,0-.16406-0.2998,0.65087,0.65087,0,0,0-.26514-0.17529,1.03878,1.03878,0,0,0-.35693-0.05713h-0.34326v1.95313h0.27637a0.87865,0.87865,0,0,0,.68066-0.24951A1.06181,1.06181,0,0,0,318.50439,136.05127Z" transform="translate(-266.13333 -83.0625)" style="fill: #555655"/>
      <path d="M320.06689,137.314h-0.90576v-0.17432l0.29395-.06982v-2.00977l-0.29395-.07031v-0.17432h0.90576v0.17432l-0.29395.07031v2.00977l0.29395,0.06982V137.314Z" transform="translate(-266.13333 -83.0625)" style="fill: #555655"/>
      <path d="M322.55371,136.061a1.88429,1.88429,0,0,1-.06934.52637,1.15612,1.15612,0,0,1-.20605.40723,0.92436,0.92436,0,0,1-.33936.26123,1.11465,1.11465,0,0,1-.46729.09229,1.1657,1.1657,0,0,1-.48291-0.09229,0.89766,0.89766,0,0,1-.33838-0.26123,1.13222,1.13222,0,0,1-.19922-0.40771,2.02731,2.02731,0,0,1-.06445-0.52881,2.00536,2.00536,0,0,1,.06445-0.52734,1.10575,1.10575,0,0,1,.2002-0.4043,0.89683,0.89683,0,0,1,.33984-0.25879,1.18012,1.18012,0,0,1,.48389-0.0918,1.11219,1.11219,0,0,1,.46582.0918,0.92079,0.92079,0,0,1,.3374.25977,1.14433,1.14433,0,0,1,.20605.40479A1.89215,1.89215,0,0,1,322.55371,136.061Zm-1.83057,0a1.818,1.818,0,0,0,.04443.42139,0.91736,0.91736,0,0,0,.13574.31787,0.60809,0.60809,0,0,0,.23242.2002,0.84849,0.84849,0,0,0,.67188,0,0.60809,0.60809,0,0,0,.23242-0.2002,0.88884,0.88884,0,0,0,.13379-0.31787,2.09011,2.09011,0,0,0,0-.84326,0.89285,0.89285,0,0,0-.13281-0.31543,0.61135,0.61135,0,0,0-.231-0.19824,0.75212,0.75212,0,0,0-.335-0.06934,0.76166,0.76166,0,0,0-.33643.06934,0.61794,0.61794,0,0,0-.23437.19824,0.89619,0.89619,0,0,0-.13672.31543A1.81344,1.81344,0,0,0,320.72314,136.061Z" transform="translate(-266.13333 -83.0625)" style="fill: #555655"/>
      <path d="M324.41309,135.3999a0.62885,0.62885,0,0,1-.03955.22754,0.53809,0.53809,0,0,1-.11035.17773,0.59,0.59,0,0,1-.16992.12354,0.79112,0.79112,0,0,1-.22021.06934v0.01025a0.77221,0.77221,0,0,1,.45947.19238,0.53885,0.53885,0,0,1,.15723.40234,0.791,0.791,0,0,1-.05566.30078,0.62058,0.62058,0,0,1-.16846.23584,0.7877,0.7877,0,0,1-.28516.15381,1.35216,1.35216,0,0,1-.4082.05469,2.00837,2.00837,0,0,1-.35156-0.0293,1.049,1.049,0,0,1-.31006-0.10547v-0.291a1.45747,1.45747,0,0,0,.65479.16406,0.94914,0.94914,0,0,0,.27148-0.03418,0.51563,0.51563,0,0,0,.189-0.09717,0.37872,0.37872,0,0,0,.10938-0.15576,0.57647,0.57647,0,0,0,.03467-0.20654,0.40852,0.40852,0,0,0-.04492-0.19922,0.379,0.379,0,0,0-.12891-0.13672,0.62826,0.62826,0,0,0-.20459-0.07959,1.347,1.347,0,0,0-.27246-0.02539H323.292V135.894H323.519a0.82333,0.82333,0,0,0,.24609-0.03418,0.506,0.506,0,0,0,.18018-0.09766,0.4133,0.4133,0,0,0,.11035-0.15039,0.48154,0.48154,0,0,0,.0376-0.19141,0.39392,0.39392,0,0,0-.03076-0.15918,0.33984,0.33984,0,0,0-.08691-0.11865,0.3986,0.3986,0,0,0-.13525-0.07422,0.55847,0.55847,0,0,0-.17432-0.02588,0.84356,0.84356,0,0,0-.32227.05762,1.2683,1.2683,0,0,0-.26562.14941l-0.15723-.21387a1.07129,1.07129,0,0,1,.14453-0.09863,1.09118,1.09118,0,0,1,.17334-0.08154,1.23093,1.23093,0,0,1,.20068-0.05518,1.203,1.203,0,0,1,.22656-0.02051,1.02977,1.02977,0,0,1,.32373.0459,0.66377,0.66377,0,0,1,.2334.12891,0.54412,0.54412,0,0,1,.14209.19678A0.637,0.637,0,0,1,324.41309,135.3999Z" transform="translate(-266.13333 -83.0625)" style="fill: #555655"/>
    </g>
  </g>
</svg>
