<svg id="Layer_1" data-name="Layer 1" xmlns="http://www.w3.org/2000/svg" width="18.89278mm" height="19.89278mm" viewBox="0 0 53.55433 56.38898">
  <title>Ra-01-LoRa-pcb</title>
  <rect id="Outline" x="207.30146" y="86.1652" width="55.38898" height="52.55433" transform="translate(-85.6652 263.19044) rotate(-90)" style="fill: none;stroke: #fff;stroke-miterlimit: 10"/>
  <g id="copper1">
    <g id="copper0">
      <rect x="211.98382" y="128.79939" width="2.83465" height="7.2" transform="translate(-127.21704 261.55265) rotate(-90)" style="fill: #f5bd18"/>
      <rect x="211.98382" y="123.1301" width="2.83465" height="7.2" transform="translate(-121.54774 255.88336) rotate(-90)" style="fill: #f5bd18"/>
      <rect x="211.98382" y="117.46081" width="2.83465" height="7.2" transform="translate(-115.87845 250.21407) rotate(-90)" style="fill: #f5bd18"/>
      <rect x="211.98382" y="111.79151" width="2.83465" height="7.2" transform="translate(-110.20916 244.54478) rotate(-90)" style="fill: #f5bd18"/>
      <rect x="211.98382" y="94.78364" width="2.83465" height="7.2" transform="translate(-93.20129 227.5369) rotate(-90)" style="fill: #f5bd18"/>
      <rect x="211.98382" y="89.11435" width="2.83465" height="7.2" transform="translate(-87.532 221.86761) rotate(-90)" style="fill: #f5bd18"/>
      <rect x="211.98382" y="106.12222" width="2.83465" height="7.2" transform="translate(-104.53987 238.87548) rotate(-90)" style="fill: #f5bd18"/>
      <rect x="211.98382" y="100.45293" width="2.83465" height="7.2" transform="translate(-98.87058 233.20619) rotate(-90)" style="fill: #f5bd18"/>
      <rect x="255.32036" y="128.82662" width="2.83465" height="7.2" transform="translate(-83.90772 304.91643) rotate(-90)" style="fill: #f5bd18"/>
      <rect x="255.32036" y="123.15733" width="2.83465" height="7.2" transform="translate(-78.23843 299.24713) rotate(-90)" style="fill: #f5bd18"/>
      <rect x="255.32036" y="117.48804" width="2.83465" height="7.2" transform="translate(-72.56914 293.57784) rotate(-90)" style="fill: #f5bd18"/>
      <rect x="255.32036" y="111.81875" width="2.83465" height="7.2" transform="translate(-66.89985 287.90855) rotate(-90)" style="fill: #f5bd18"/>
      <rect x="255.32036" y="94.81087" width="2.83465" height="7.2" transform="translate(-49.89197 270.90068) rotate(-90)" style="fill: #f5bd18"/>
      <rect x="255.32036" y="89.14158" width="2.83465" height="7.2" transform="translate(-44.22268 265.23139) rotate(-90)" style="fill: #f5bd18"/>
      <rect x="255.32036" y="106.14945" width="2.83465" height="7.2" transform="translate(-61.23056 282.23926) rotate(-90)" style="fill: #f5bd18"/>
      <rect x="255.32036" y="100.48016" width="2.83465" height="7.2" transform="translate(-55.56126 276.56997) rotate(-90)" style="fill: #f5bd18"/>
    </g>
  </g>
  <g id="silkscreen">
    <g>
      <path d="M243.35547,132.75342l-0.24463.74072h-0.31445l0.80029-2.355h0.3667l0.80371,2.355h-0.32471l-0.252-.74072h-0.835Zm0.772-.23779-0.23047-.67773c-0.05225-.15381-0.0874-0.29346-0.12207-0.42969h-0.00732c-0.03467.13965-.07324,0.28271-0.11865,0.42627l-0.23047.68115h0.709Z" transform="translate(-208.21879 -84.24788)" style="fill: #231f20"/>
      <path d="M245.1167,133.49414v-2.355h0.332l0.75439,1.19141a6.63,6.63,0,0,1,.42285.76514l0.00732-.00342c-0.02832-.31445-0.03516-0.60107-0.03516-0.96777v-0.98535h0.28662v2.355h-0.30762l-0.74756-1.19482a7.383,7.383,0,0,1-.44043-0.78662l-0.01025.00391c0.01709,0.29688.02441,0.58008,0.02441,0.97119v1.00635H245.1167Z" transform="translate(-208.21879 -84.24788)" style="fill: #231f20"/>
      <path d="M247.8667,131.39746h-0.71631v-0.2583H248.894v0.2583h-0.71973v2.09668H247.8667v-2.09668Z" transform="translate(-208.21879 -84.24788)" style="fill: #231f20"/>
    </g>
  </g>
</svg>
