<svg id="Layer_1" data-name="Layer 1" xmlns="http://www.w3.org/2000/svg" width="17mm" height="16mm" viewBox="0 0 48.18898 45.35433">
  <title>Ra-01-LoRa-breadboard</title>
  <g id="breadboard">
    <g id="PCB">
      <rect id="back" y="1.35417" width="48.18898" height="42.6875" style="fill: #231f20"/>
      <g id="between">
        <rect x="5.41667" y="43.48346" width="2.85417" height="1.87087" style="fill: #231f20"/>
        <rect x="11.21432" y="43.48346" width="2.85417" height="1.87087" style="fill: #231f20"/>
        <rect x="16.88361" y="43.48346" width="2.85417" height="1.87087" style="fill: #231f20"/>
        <rect x="22.5529" y="43.48346" width="2.85417" height="1.87087" style="fill: #231f20"/>
        <rect x="28.22219" y="43.48346" width="2.85417" height="1.87087" style="fill: #231f20"/>
        <rect x="33.89149" y="43.48346" width="2.85417" height="1.87087" style="fill: #231f20"/>
        <rect x="39.53355" y="43.48346" width="2.85417" height="1.87087" style="fill: #231f20"/>
        <rect x="45.33481" y="43.48346" width="2.85417" height="1.87087" style="fill: #231f20"/>
        <rect y="43.48346" width="2.85417" height="1.87087" style="fill: #231f20"/>
        <rect x="45.33481" width="2.85417" height="1.87087" style="fill: #231f20"/>
        <rect x="39.53355" width="2.85417" height="1.87087" style="fill: #231f20"/>
        <rect x="33.89149" width="2.85417" height="1.87087" style="fill: #231f20"/>
        <rect x="28.22219" width="2.85417" height="1.87087" style="fill: #231f20"/>
        <rect x="22.5529" width="2.85417" height="1.87087" style="fill: #231f20"/>
        <rect x="16.88361" width="2.85417" height="1.87087" style="fill: #231f20"/>
        <rect x="11.21432" width="2.85417" height="1.87087" style="fill: #231f20"/>
        <rect x="5.54503" width="2.85417" height="1.87087" style="fill: #231f20"/>
        <rect width="2.85417" height="1.87087" style="fill: #231f20"/>
      </g>
      <rect x="2.85417" y="41.29167" width="2.5625" height="2.5625" style="fill: #fff"/>
    </g>
    <g id="silkscreen">
      <polygon id="Heat_Spreader" data-name="Heat Spreader" points="1.803 3.885 1.803 28.969 11.553 28.969 11.553 41.802 46.386 41.802 46.386 3.552 1.803 3.552 1.803 3.885" style="fill: #efeff0;stroke: #a3a5a8;stroke-miterlimit: 10"/>
      <g>
        <path d="M233.77832,101.144v2.06445H233.1416V98.21143h1.2168a2.11,2.11,0,0,1,1.34375.35254,1.29157,1.29157,0,0,1,.43359,1.06641,1.47944,1.47944,0,0,1-.083.51953,1.23911,1.23911,0,0,1-.22266.38086,1.29607,1.29607,0,0,1-.31543.26465,2.23958,2.23958,0,0,1-.36621.1748l1.36035,2.23828h-0.748l-1.2002-2.06445h-0.78223Zm0-.54h0.56055a1.96757,1.96757,0,0,0,.52246-0.05957,0.91918,0.91918,0,0,0,.35352-0.17773,0.68076,0.68076,0,0,0,.20215-0.29395,1.22329,1.22329,0,0,0,.0625-0.41211,1.09912,1.09912,0,0,0-.06934-0.417,0.666,0.666,0,0,0-.21191-0.28027,0.91483,0.91483,0,0,0-.35937-0.15918,2.32794,2.32794,0,0,0-.51367-0.04883h-0.54687V100.604Z" transform="translate(-210.33333 -90.33333)" style="fill: #231f20"/>
        <path d="M239.30176,103.2085l-0.127-.51953h-0.02734a2.19283,2.19283,0,0,1-.22559.26465,1.04527,1.04527,0,0,1-.24609.18262,1.05631,1.05631,0,0,1-.29785.10645,1.89365,1.89365,0,0,1-.37891.03418,1.364,1.364,0,0,1-.43359-0.06641,0.91965,0.91965,0,0,1-.34375-0.20508,0.961,0.961,0,0,1-.22754-0.34863,1.36624,1.36624,0,0,1-.082-0.49707,1.0184,1.0184,0,0,1,.39453-0.86133,2.08878,2.08878,0,0,1,1.20215-.32812l0.62891-.02441v-0.23535a1.2514,1.2514,0,0,0-.0498-0.38281,0.60335,0.60335,0,0,0-.14355-0.248,0.54161,0.54161,0,0,0-.23242-0.13477,1.11971,1.11971,0,0,0-.31641-0.041,1.6503,1.6503,0,0,0-.52832.082,3.38114,3.38114,0,0,0-.46973.19727l-0.21875-.46777a3.09753,3.09753,0,0,1,.56445-0.23242,2.21481,2.21481,0,0,1,.65234-0.0957,2.28664,2.28664,0,0,1,.60352.07031,0.99921,0.99921,0,0,1,.41992.22168,0.9294,0.9294,0,0,1,.248.38867,1.73846,1.73846,0,0,1,.082.57031v2.57031h-0.44727Zm-1.14258-.43359a1.12375,1.12375,0,0,0,.38672-0.06543,0.822,0.822,0,0,0,.30762-0.19629,0.90414,0.90414,0,0,0,.20313-0.332,1.3636,1.3636,0,0,0,.07324-0.46973v-0.33887l-0.48828.02441a2.50318,2.50318,0,0,0-.51562.06836,0.89921,0.89921,0,0,0-.334.15234,0.56048,0.56048,0,0,0-.17969.23535,0.85634,0.85634,0,0,0-.05469.3125,0.5872,0.5872,0,0,0,.166.46191A0.634,0.634,0,0,0,238.15918,102.7749Z" transform="translate(-210.33333 -90.33333)" style="fill: #231f20"/>
        <path d="M240.58691,101.61865v-0.57422h6.43945v0.57422h-6.43945Z" transform="translate(-210.33333 -90.33333)" style="fill: #231f20"/>
        <path d="M250.834,100.70264a6.13123,6.13123,0,0,1-.08691,1.084,2.502,2.502,0,0,1-.28027.81055,1.36122,1.36122,0,0,1-.498.50586,1.46933,1.46933,0,0,1-.73828.17383,1.379,1.379,0,0,1-.70215-0.17383,1.399,1.399,0,0,1-.49512-0.50586,2.59744,2.59744,0,0,1-.29395-0.81055,5.42237,5.42237,0,0,1-.09766-1.084,6.13546,6.13546,0,0,1,.08691-1.083,2.52,2.52,0,0,1,.27734-0.80859,1.32727,1.32727,0,0,1,.49219-0.50391,1.44177,1.44177,0,0,1,.73242-0.1748,1.32363,1.32363,0,0,1,1.207.67578,2.567,2.567,0,0,1,.29688.80859A5.34936,5.34936,0,0,1,250.834,100.70264Zm-2.56055,0a6.85224,6.85224,0,0,0,.05176.89648,2.36124,2.36124,0,0,0,.16406.63672,0.89,0.89,0,0,0,.2959.38281,0.75386,0.75386,0,0,0,.44531.12891,0.77651,0.77651,0,0,0,.44824-0.127,0.917,0.917,0,0,0,.30273-0.37891,2.26665,2.26665,0,0,0,.1709-0.6377,6.72835,6.72835,0,0,0,.05273-0.90137,6.63059,6.63059,0,0,0-.05273-0.89453,2.2592,2.2592,0,0,0-.1709-0.63672,0.917,0.917,0,0,0-.30273-0.37891,0.77651,0.77651,0,0,0-.44824-0.127,0.767,0.767,0,0,0-.44531.127,0.883,0.883,0,0,0-.2959.37891,2.34185,2.34185,0,0,0-.16406.63672A6.81,6.81,0,0,0,248.27344,100.70264Z" transform="translate(-210.33333 -90.33333)" style="fill: #231f20"/>
        <path d="M253.5918,103.2085h-0.60156V100.0874c0-.09766.001-0.20215,0.002-0.31445,0.001-.11133.00391-0.22266,0.00684-0.333,0.00391-.11035.00684-0.21582,0.01074-0.31738,0.00293-.10156.00586-0.19141,0.00781-0.26855-0.03809.041-.07227,0.07617-0.10156,0.10645q-0.04541.04395-.09082,0.085c-0.03125.02734-.06348,0.05664-0.09766,0.08691-0.03418.03125-.0752,0.06641-0.123,0.10742l-0.50586.41406-0.32812-.41992,1.30957-1.02246h0.51172v4.99707Z" transform="translate(-210.33333 -90.33333)" style="fill: #231f20"/>
      </g>
      <g>
        <path d="M235.21,106.70166l-0.3125-.88477H233.833l-0.31641.88477h-0.36719l1.04883-2.86719h0.332l1.05078,2.86719H235.21Zm-0.42773-1.207-0.28906-.82812-0.02832-.08594c-0.01123-.03369-0.02246-0.07031-0.03418-0.10937s-0.02344-.07959-0.03516-0.12207-0.02295-.0835-0.0332-0.124c-0.00928.04053-.01953,0.082-0.03125,0.125s-0.02344.08447-.03516,0.124-0.02295.07617-.03418,0.10938-0.02051.061-.02832,0.083l-0.2832.82813h0.832Z" transform="translate(-210.33333 -90.33333)" style="fill: #231f20"/>
        <path d="M236.77637,106.70166h-1.03516v-0.19922l0.33594-.08008v-2.29687l-0.33594-.08008v-0.19922h1.03516v0.19922l-0.33594.08008v2.29688l0.33594,0.08008v0.19922Z" transform="translate(-210.33333 -90.33333)" style="fill: #231f20"/>
        <path d="M237.09668,105.79346v-0.32812h0.96875v0.32813h-0.96875Z" transform="translate(-210.33333 -90.33333)" style="fill: #231f20"/>
        <path d="M239.24512,106.70166h-0.36523V104.1665h-0.81641v-0.32031h1.99609v0.32031h-0.81445v2.53516Z" transform="translate(-210.33333 -90.33333)" style="fill: #231f20"/>
        <path d="M242.5166,106.70166h-0.36328v-1.332h-1.30078v1.332h-0.36328v-2.85547h0.36328v1.20313h1.30078v-1.20312h0.36328v2.85547Z" transform="translate(-210.33333 -90.33333)" style="fill: #231f20"/>
        <path d="M244.10059,106.70166h-1.03516v-0.19922l0.33594-.08008v-2.29687l-0.33594-.08008v-0.19922h1.03516v0.19922l-0.33594.08008v2.29688l0.33594,0.08008v0.19922Z" transform="translate(-210.33333 -90.33333)" style="fill: #231f20"/>
        <path d="M246.78809,106.70166h-0.41992l-1.4043-2.36328h-0.01562q0.01172,0.15015.01953,0.29883c0.00537,0.08447.00928,0.17334,0.0127,0.26563s0.00488,0.17578.00488,0.25v1.54883h-0.33594v-2.85547h0.416l1.39844,2.35156h0.01367q-0.00586-.14868-0.01367-0.293c-0.00146-.0415-0.00293-0.08447-0.00488-0.12793l-0.00586-.13086c-0.002-.04346-0.00342-0.08545-0.00391-0.126s-0.001-.07764-0.001-0.11133v-1.5625h0.33984v2.85547Z" transform="translate(-210.33333 -90.33333)" style="fill: #231f20"/>
        <path d="M249.49316,106.70166h-0.41211l-0.88086-1.36328-0.27148.22266v1.14063h-0.36328v-2.85547h0.36328v1.42773l0.23633-.32812,0.88281-1.09961h0.4082l-1.01562,1.24414Z" transform="translate(-210.33333 -90.33333)" style="fill: #231f20"/>
        <path d="M251.36426,106.70166h-1.48242v-2.85547h1.48242v0.32031h-1.11914v0.88281H251.29v0.31641h-1.04492v1.01563h1.11914v0.32031Z" transform="translate(-210.33333 -90.33333)" style="fill: #231f20"/>
        <path d="M252.35645,105.522v1.17969h-0.36328v-2.85547h0.69531a1.20756,1.20756,0,0,1,.76758.20117,0.73808,0.73808,0,0,1,.248.60938,0.8431,0.8431,0,0,1-.04785.29688,0.70665,0.70665,0,0,1-.127.21777,0.74341,0.74341,0,0,1-.18066.15137,1.2014,1.2014,0,0,1-.209.09961l0.77734,1.2793h-0.42773l-0.68555-1.17969h-0.44727Zm0-.30859h0.32031a1.12317,1.12317,0,0,0,.29883-0.03418,0.525,0.525,0,0,0,.20215-0.10156,0.389,0.389,0,0,0,.11523-0.168,0.69918,0.69918,0,0,0,.03613-0.23535,0.62505,0.62505,0,0,0-.04-0.23828,0.38055,0.38055,0,0,0-.12109-0.16016,0.52832,0.52832,0,0,0-.20508-0.09082,1.32407,1.32407,0,0,0-.29395-0.02832h-0.3125v1.05664Z" transform="translate(-210.33333 -90.33333)" style="fill: #231f20"/>
      </g>
      <g>
        <path d="M226.00977,121.55176h-0.90527v-0.17383l0.293-.07031v-2.00977l-0.293-.07031v-0.17383h0.90527v0.17383l-0.29395.07031v2.00977l0.29395,0.07031v0.17383Z" transform="translate(-210.33333 -90.33333)" style="fill: #231f20"/>
        <path d="M227.80566,120.88379a0.6994,0.6994,0,0,1-.05957.2959,0.59749,0.59749,0,0,1-.168.22168,0.75005,0.75005,0,0,1-.2666.1377,1.23452,1.23452,0,0,1-.35352.04688,1.92609,1.92609,0,0,1-.35449-0.03027,0.94874,0.94874,0,0,1-.27637-0.08789v-0.30371c0.03906,0.01758.083,0.03613,0.13281,0.05371,0.04883,0.01758.10156,0.0332,0.15625,0.04688s0.11133,0.02441.16895,0.0332a1.144,1.144,0,0,0,.17285.0127,0.65514,0.65514,0,0,0,.4043-0.10254,0.35185,0.35185,0,0,0,.13086-0.29395,0.46311,0.46311,0,0,0-.02539-0.16016,0.32247,0.32247,0,0,0-.08691-0.126,0.79751,0.79751,0,0,0-.167-0.11133c-0.06934-.03516-0.15723-0.07422-0.2627-0.11719a1.55437,1.55437,0,0,1-.26465-0.12988,0.78468,0.78468,0,0,1-.18457-0.16016,0.60061,0.60061,0,0,1-.10742-0.20215,0.853,0.853,0,0,1-.03516-0.25586,0.63733,0.63733,0,0,1,.05469-0.26855,0.57123,0.57123,0,0,1,.1543-0.19922,0.7066,0.7066,0,0,1,.23633-0.124,1.02865,1.02865,0,0,1,.30371-0.042,1.60145,1.60145,0,0,1,.36523.03809,1.431,1.431,0,0,1,.28906.09863l-0.11426.2666a1.61284,1.61284,0,0,0-.252-0.08691,1.16118,1.16118,0,0,0-.292-0.03613,0.48465,0.48465,0,0,0-.32227.09668,0.32176,0.32176,0,0,0-.11523.26074,0.5107,0.5107,0,0,0,.02539.168,0.34045,0.34045,0,0,0,.08594.12793,0.666,0.666,0,0,0,.1582.10742c0.06543,0.03418.14648,0.06934,0.24219,0.10742a2.41148,2.41148,0,0,1,.27246.126,0.83928,0.83928,0,0,1,.19531.14746,0.55612,0.55612,0,0,1,.11914.18945A0.735,0.735,0,0,1,227.80566,120.88379Z" transform="translate(-210.33333 -90.33333)" style="fill: #231f20"/>
        <path d="M229.33789,121.55176l-0.75684-2.1875h-0.01367c0.00684,0.084.0127,0.168,0.01758,0.251,0.00391,0.07227.00781,0.14746,0.01074,0.22656s0.00391,0.15137.00391,0.21582v1.49414h-0.29395v-2.498h0.47168l0.7041,2.03711h0.01074l0.707-2.03711h0.47168v2.498h-0.31738v-1.51562c0-.05957.001-0.127,0.00293-0.20312,0.00293-.07715.00586-0.14941,0.00879-0.21875q0.00732-.12158.01172-0.24609h-0.01367l-0.76367,2.18359h-0.26172Z" transform="translate(-210.33333 -90.33333)" style="fill: #231f20"/>
        <path d="M231.26172,119.86523a0.3116,0.3116,0,0,1,.01758-0.1123,0.18437,0.18437,0,0,1,.0459-0.07324,0.1668,0.1668,0,0,1,.06836-0.04,0.29975,0.29975,0,0,1,.08594-0.01172,0.29582,0.29582,0,0,1,.084.01172,0.16422,0.16422,0,0,1,.06934.04,0.18437,0.18437,0,0,1,.0459.07324,0.3116,0.3116,0,0,1,.01758.1123,0.2911,0.2911,0,0,1-.01758.10742,0.19931,0.19931,0,0,1-.0459.07324,0.16991,0.16991,0,0,1-.06934.043,0.26556,0.26556,0,0,1-.084.01367,0.26872,0.26872,0,0,1-.08594-0.01367,0.17306,0.17306,0,0,1-.06836-0.043,0.19931,0.19931,0,0,1-.0459-0.07324A0.2911,0.2911,0,0,1,231.26172,119.86523Zm0,1.49707a0.304,0.304,0,0,1,.01758-0.11035,0.18437,0.18437,0,0,1,.0459-0.07324,0.1587,0.1587,0,0,1,.06836-0.041,0.26872,0.26872,0,0,1,.08594-0.01367,0.26556,0.26556,0,0,1,.084.01367,0.15645,0.15645,0,0,1,.06934.041,0.18437,0.18437,0,0,1,.0459.07324,0.304,0.304,0,0,1,.01758.11035,0.30024,0.30024,0,0,1-.01758.1084,0.19557,0.19557,0,0,1-.0459.07422,0.18093,0.18093,0,0,1-.06934.043,0.26556,0.26556,0,0,1-.084.01367,0.26872,0.26872,0,0,1-.08594-0.01367,0.18475,0.18475,0,0,1-.06836-0.043,0.19557,0.19557,0,0,1-.0459-0.07422A0.30024,0.30024,0,0,1,231.26172,121.3623Z" transform="translate(-210.33333 -90.33333)" style="fill: #231f20"/>
        <path d="M234.71582,120.99121h-0.36328v0.56055h-0.30078v-0.56055h-1.1543v-0.27148l1.13281-1.67969h0.32227v1.668h0.36328v0.2832Zm-0.66406-.2832v-0.60937c0-.06348,0-0.12988.002-0.2002l0.00586-.20508c0.00293-.06641.00488-0.12891,0.00781-0.1875,0.00293-.05762.00488-0.10645,0.00586-0.14551h-0.01562q-0.01172.03516-.0293,0.07617c-0.01172.02832-.02539,0.05664-0.03906,0.084-0.01465.02832-.0293,0.05469-0.04395,0.08105s-0.02832.04883-.041,0.06738l-0.70215,1.03906h0.84961Z" transform="translate(-210.33333 -90.33333)" style="fill: #231f20"/>
        <path d="M236.001,121.55176H235.7002v-1.56055c0-.04883.001-0.10156,0.001-0.15723,0.001-.05566.002-0.11133,0.00391-0.166,0.001-.05566.00293-0.1084,0.00488-0.15918s0.00293-.0957.00391-0.13477c-0.01953.02148-.03613,0.03906-0.05078,0.05371s-0.03027.02832-.0459,0.042l-0.04785.04395c-0.01758.01563-.03809,0.0332-0.0625,0.05371l-0.252.207-0.16406-.21,0.6543-.51074H236.001v2.498Z" transform="translate(-210.33333 -90.33333)" style="fill: #231f20"/>
        <path d="M238.47754,120.29883a3.01335,3.01335,0,0,1-.04395.542,1.22833,1.22833,0,0,1-.13965.40527,0.68061,0.68061,0,0,1-.249.25293,0.73723,0.73723,0,0,1-.36914.08691,0.6889,0.6889,0,0,1-.35059-0.08691,0.7007,0.7007,0,0,1-.248-0.25293,1.32368,1.32368,0,0,1-.14746-0.40527,2.7487,2.7487,0,0,1-.04785-0.542,3.03431,3.03431,0,0,1,.043-0.542,1.2539,1.2539,0,0,1,.13867-0.40332,0.67356,0.67356,0,0,1,.24609-0.25293,0.72581,0.72581,0,0,1,.36621-0.08691,0.66287,0.66287,0,0,1,.60352.33789,1.27451,1.27451,0,0,1,.14844.4043A2.67809,2.67809,0,0,1,238.47754,120.29883Zm-1.28027,0a3.33582,3.33582,0,0,0,.02637.44824,1.15014,1.15014,0,0,0,.082.31836,0.43984,0.43984,0,0,0,.14746.19141,0.37484,0.37484,0,0,0,.22266.06445,0.38451,0.38451,0,0,0,.22363-0.06348,0.44727,0.44727,0,0,0,.15137-0.18945,1.09972,1.09972,0,0,0,.08594-0.31934,3.35644,3.35644,0,0,0,.02637-0.4502,3.31019,3.31019,0,0,0-.02637-0.44727,1.10129,1.10129,0,0,0-.08594-0.31836,0.44727,0.44727,0,0,0-.15137-0.18945,0.424,0.424,0,0,0-.44629,0,0.43352,0.43352,0,0,0-.14746.18945,1.14094,1.14094,0,0,0-.082.31836A3.31019,3.31019,0,0,0,237.19727,120.29883Z" transform="translate(-210.33333 -90.33333)" style="fill: #231f20"/>
        <path d="M238.78223,120.75684v-0.28711h0.84766v0.28711h-0.84766Z" transform="translate(-210.33333 -90.33333)" style="fill: #231f20"/>
        <path d="M240.69922,120.01855a1.03087,1.03087,0,0,1,.31543.04688,0.73793,0.73793,0,0,1,.25391.13965,0.6405,0.6405,0,0,1,.1709.22949A0.76073,0.76073,0,0,1,241.5,120.75a0.989,0.989,0,0,1-.05762.35059,0.69678,0.69678,0,0,1-.17285.26367,0.766,0.766,0,0,1-.28223.16406,1.20393,1.20393,0,0,1-.3877.05762,1.674,1.674,0,0,1-.17187-0.00879c-0.05566-.00586-0.11035-0.01367-0.16211-0.02441a0.99171,0.99171,0,0,1-.14746-0.042,0.80468,0.80468,0,0,1-.127-0.05957v-0.29395a0.7345,0.7345,0,0,0,.13281.07031,1.318,1.318,0,0,0,.15918.05078,1.465,1.465,0,0,0,.16895.03125,1.14632,1.14632,0,0,0,.15625.01172,0.83366,0.83366,0,0,0,.24121-0.03223,0.46424,0.46424,0,0,0,.17969-0.09766,0.44241,0.44241,0,0,0,.1123-0.168,0.65353,0.65353,0,0,0,.03906-0.23926,0.46284,0.46284,0,0,0-.15039-0.373,0.65353,0.65353,0,0,0-.4375-0.12891c-0.03027,0-.06348.001-0.09961,0.00391s-0.07227.00684-.10742,0.01172c-0.03613.00391-.07031,0.00879-0.10254,0.01367-0.0332.00586-.06055,0.01074-0.085,0.01465l-0.15332-.09668,0.09375-1.17578h1.17871v0.2832H240.4082l-0.06641.71582c0.03613-.00684.085-0.01367,0.14453-0.02246A1.66881,1.66881,0,0,1,240.69922,120.01855Z" transform="translate(-210.33333 -90.33333)" style="fill: #231f20"/>
        <path d="M243.418,121.55176h-1.55859v-0.2666l0.59766-.65137c0.08594-.0918.16211-0.17676,0.22949-0.25293a1.93528,1.93528,0,0,0,.17188-0.22363,1.04129,1.04129,0,0,0,.1084-0.21973,0.72913,0.72913,0,0,0,.03711-0.24023,0.49928,0.49928,0,0,0-.02832-0.17773,0.35221,0.35221,0,0,0-.21-0.21191,0.48987,0.48987,0,0,0-.16406-0.02734,0.64732,0.64732,0,0,0-.29395.06641,1.19414,1.19414,0,0,0-.248.168l-0.1748-.20312a1.32433,1.32433,0,0,1,.14746-0.11523,0.97418,0.97418,0,0,1,.16895-0.09375,1.09789,1.09789,0,0,1,.19141-0.0625,0.99271,0.99271,0,0,1,.21191-0.02246,0.88937,0.88937,0,0,1,.29688.0459,0.63475,0.63475,0,0,1,.22461.13281,0.58886,0.58886,0,0,1,.14258.21,0.74152,0.74152,0,0,1,.0498.2793,0.83673,0.83673,0,0,1-.04492.27637,1.24094,1.24094,0,0,1-.125.25977,2.044,2.044,0,0,1-.18945.25488c-0.07324.08594-.15234,0.1748-0.23828,0.2666l-0.48047.51172v0.01367H243.418v0.2832Z" transform="translate(-210.33333 -90.33333)" style="fill: #231f20"/>
        <path d="M244.55469,120.01855a1.03087,1.03087,0,0,1,.31543.04688,0.73793,0.73793,0,0,1,.25391.13965,0.64049,0.64049,0,0,1,.1709.22949,0.76073,0.76073,0,0,1,.06055.31543,0.989,0.989,0,0,1-.05762.35059,0.69678,0.69678,0,0,1-.17285.26367,0.766,0.766,0,0,1-.28223.16406,1.20393,1.20393,0,0,1-.3877.05762,1.674,1.674,0,0,1-.17187-0.00879c-0.05566-.00586-0.11035-0.01367-0.16211-0.02441a0.99171,0.99171,0,0,1-.14746-0.042,0.80468,0.80468,0,0,1-.127-0.05957v-0.29395a0.73449,0.73449,0,0,0,.13281.07031,1.318,1.318,0,0,0,.15918.05078,1.465,1.465,0,0,0,.16895.03125,1.14631,1.14631,0,0,0,.15625.01172,0.83366,0.83366,0,0,0,.24121-0.03223,0.46424,0.46424,0,0,0,.17969-0.09766,0.44241,0.44241,0,0,0,.1123-0.168,0.65353,0.65353,0,0,0,.03906-0.23926,0.46284,0.46284,0,0,0-.15039-0.373,0.65353,0.65353,0,0,0-.4375-0.12891c-0.03027,0-.06348.001-0.09961,0.00391s-0.07227.00684-.10742,0.01172c-0.03613.00391-.07031,0.00879-0.10254,0.01367-0.0332.00586-.06055,0.01074-0.085,0.01465l-0.15332-.09668,0.09375-1.17578h1.17871v0.2832h-0.90918l-0.06641.71582c0.03613-.00684.085-0.01367,0.14453-0.02246A1.66881,1.66881,0,0,1,244.55469,120.01855Z" transform="translate(-210.33333 -90.33333)" style="fill: #231f20"/>
        <path d="M246.92285,121.55176l-0.75684-2.1875h-0.01367c0.00684,0.084.0127,0.168,0.01758,0.251,0.00391,0.07227.00781,0.14746,0.01074,0.22656s0.00391,0.15137.00391,0.21582v1.49414h-0.29395v-2.498h0.47168l0.7041,2.03711h0.01074l0.707-2.03711h0.47168v2.498h-0.31738v-1.51562c0-.05957.001-0.127,0.00293-0.20312,0.00293-.07715.00586-0.14941,0.00879-0.21875q0.00732-.12158.01172-0.24609h-0.01367l-0.76367,2.18359h-0.26172Z" transform="translate(-210.33333 -90.33333)" style="fill: #231f20"/>
        <path d="M250.71094,121.55176h-0.31836v-1.166h-1.1377v1.166h-0.31836v-2.498h0.31836v1.05273h1.1377v-1.05273h0.31836v2.498Z" transform="translate(-210.33333 -90.33333)" style="fill: #231f20"/>
        <path d="M252.4541,121.55176h-1.2627v-0.21387l0.916-1.42871h-0.86035V119.6748h1.17578v0.25l-0.89551,1.39258h0.92676v0.23438Z" transform="translate(-210.33333 -90.33333)" style="fill: #231f20"/>
        <path d="M226.80078,123.98438a0.9582,0.9582,0,0,1-.04687.2998,0.657,0.657,0,0,1-.1543.25391,0.77007,0.77007,0,0,1-.28516.17578,1.25341,1.25341,0,0,1-.43652.06543h-0.25586V125.752h-0.31836v-2.498h0.61914a1.42086,1.42086,0,0,1,.39453.04785,0.73371,0.73371,0,0,1,.27344.14258,0.55077,0.55077,0,0,1,.15918.22949A0.88152,0.88152,0,0,1,226.80078,123.98438Zm-1.17871.52539h0.2207a1.28746,1.28746,0,0,0,.27734-0.02734,0.50508,0.50508,0,0,0,.19629-0.08789,0.37937,0.37937,0,0,0,.11719-0.15723,0.62489,0.62489,0,0,0,.03906-0.23535,0.44293,0.44293,0,0,0-.13965-0.35937,0.67509,0.67509,0,0,0-.4375-0.11719h-0.27344v0.98438Z" transform="translate(-210.33333 -90.33333)" style="fill: #231f20"/>
        <path d="M228.64355,125.752l-0.27344-.77441h-0.93164l-0.27637.77441h-0.32129l0.918-2.50879h0.29l0.91992,2.50879h-0.3252Zm-0.374-1.05664-0.25293-.72461c-0.00684-.01953-0.01465-0.04492-0.02441-0.07422-0.00977-.03027-0.02051-0.0625-0.03027-0.0957-0.00977-.03516-0.02051-0.07031-0.03125-0.10742-0.00977-.03711-0.01953-0.07324-0.02832-0.1084-0.00781.03516-.01758,0.07129-0.02734,0.10938-0.01074.03809-.02051,0.07422-0.03125,0.1084-0.00977.03516-.01953,0.06641-0.0293,0.0957s-0.01855.05371-.02539,0.07227l-0.24707.72461h0.72754Z" transform="translate(-210.33333 -90.33333)" style="fill: #231f20"/>
        <path d="M229.21875,124.06543a0.3116,0.3116,0,0,1,.01758-0.1123,0.18437,0.18437,0,0,1,.0459-0.07324,0.1668,0.1668,0,0,1,.06836-0.04,0.29975,0.29975,0,0,1,.08594-0.01172,0.29582,0.29582,0,0,1,.084.01172,0.16422,0.16422,0,0,1,.06934.04,0.18437,0.18437,0,0,1,.0459.07324,0.3116,0.3116,0,0,1,.01758.1123,0.2911,0.2911,0,0,1-.01758.10742,0.19931,0.19931,0,0,1-.0459.07324,0.16991,0.16991,0,0,1-.06934.043,0.26556,0.26556,0,0,1-.084.01367,0.26872,0.26872,0,0,1-.08594-0.01367,0.17306,0.17306,0,0,1-.06836-0.043,0.19931,0.19931,0,0,1-.0459-0.07324A0.2911,0.2911,0,0,1,229.21875,124.06543Zm0,1.49707a0.304,0.304,0,0,1,.01758-0.11035,0.18437,0.18437,0,0,1,.0459-0.07324,0.1587,0.1587,0,0,1,.06836-0.041,0.26872,0.26872,0,0,1,.08594-0.01367,0.26556,0.26556,0,0,1,.084.01367,0.15645,0.15645,0,0,1,.06934.041,0.18437,0.18437,0,0,1,.0459.07324,0.304,0.304,0,0,1,.01758.11035,0.30024,0.30024,0,0,1-.01758.1084,0.19557,0.19557,0,0,1-.0459.07422,0.18093,0.18093,0,0,1-.06934.043,0.26556,0.26556,0,0,1-.084.01367,0.26872,0.26872,0,0,1-.08594-0.01367,0.18475,0.18475,0,0,1-.06836-0.043,0.19557,0.19557,0,0,1-.0459-0.07422A0.30024,0.30024,0,0,1,229.21875,125.5625Z" transform="translate(-210.33333 -90.33333)" style="fill: #231f20"/>
        <path d="M231.65137,124.64648h-0.66211v-0.25684h0.66211v-0.665h0.25586v0.665h0.66211v0.25684h-0.66211v0.6582h-0.25586v-0.6582Z" transform="translate(-210.33333 -90.33333)" style="fill: #231f20"/>
        <path d="M233.958,125.752h-0.30078v-1.56055c0-.04883.001-0.10156,0.001-0.15723,0.001-.05566.002-0.11133,0.00391-0.166,0.001-.05566.00293-0.1084,0.00488-0.15918s0.00293-.0957.00391-0.13477c-0.01953.02148-.03613,0.03906-0.05078,0.05371s-0.03027.02832-.0459,0.042l-0.04785.04395c-0.01758.01563-.03809,0.0332-0.0625,0.05371l-0.252.207-0.16406-.21,0.6543-.51074H233.958v2.498Z" transform="translate(-210.33333 -90.33333)" style="fill: #231f20"/>
        <path d="M235.63672,123.21387a0.93838,0.93838,0,0,1,.27051.03809,0.66021,0.66021,0,0,1,.22363.1123,0.5442,0.5442,0,0,1,.15332.18848,0.58779,0.58779,0,0,1,.05664.2627,0.60163,0.60163,0,0,1-.03418.207,0.61133,0.61133,0,0,1-.09473.167,0.70844,0.70844,0,0,1-.1416.13281,1.32036,1.32036,0,0,1-.17773.10742,2.09418,2.09418,0,0,1,.19434.11719,0.97931,0.97931,0,0,1,.16895.14648,0.66772,0.66772,0,0,1,.12012.18164,0.54427,0.54427,0,0,1,.04492.22559,0.68861,0.68861,0,0,1-.05762.28516,0.61779,0.61779,0,0,1-.16016.21582,0.72624,0.72624,0,0,1-.248.13672,0.9947,0.9947,0,0,1-.31836.04785,1.11788,1.11788,0,0,1-.334-0.0459,0.69121,0.69121,0,0,1-.24609-0.13281,0.548,0.548,0,0,1-.15234-0.21094,0.71646,0.71646,0,0,1-.05176-0.28223,0.64411,0.64411,0,0,1,.1416-0.415,0.74967,0.74967,0,0,1,.15332-0.14551,1.252,1.252,0,0,1,.18848-0.11035,1.45358,1.45358,0,0,1-.15723-0.11621,0.74674,0.74674,0,0,1-.12793-0.13867,0.6919,0.6919,0,0,1-.085-0.16992,0.62919,0.62919,0,0,1-.03125-0.20605,0.56377,0.56377,0,0,1,.05664-0.26074,0.5546,0.5546,0,0,1,.1543-0.1875,0.67905,0.67905,0,0,1,.22559-0.1123A0.91944,0.91944,0,0,1,235.63672,123.21387Zm-0.47852,1.9043a0.47763,0.47763,0,0,0,.02734.166,0.317,0.317,0,0,0,.085.12988,0.39453,0.39453,0,0,0,.14746.084,0.648,0.648,0,0,0,.21191.03027,0.66656,0.66656,0,0,0,.21094-0.03027,0.412,0.412,0,0,0,.15234-0.085,0.35131,0.35131,0,0,0,.09277-0.13477,0.47079,0.47079,0,0,0,.03027-0.17383,0.37451,0.37451,0,0,0-.0332-0.16113,0.4364,0.4364,0,0,0-.0957-0.13281,0.81669,0.81669,0,0,0-.14941-0.11621,2.19511,2.19511,0,0,0-.19434-0.1084l-0.05176-.02344a0.91942,0.91942,0,0,0-.32422.23535A0.48285,0.48285,0,0,0,235.1582,125.11816Zm0.47461-1.64453a0.43156,0.43156,0,0,0-.28809.09082,0.3264,0.3264,0,0,0-.10645.26367,0.41471,0.41471,0,0,0,.03027.167,0.408,0.408,0,0,0,.082.125,0.59747,0.59747,0,0,0,.12793.09766q0.07471,0.04395.16113,0.085a1.66125,1.66125,0,0,0,.15527-0.082,0.64789,0.64789,0,0,0,.126-0.10059,0.443,0.443,0,0,0,.085-0.12793,0.41983,0.41983,0,0,0,.03027-0.16406,0.324,0.324,0,0,0-.10742-0.26367A0.44477,0.44477,0,0,0,235.63281,123.47363Z" transform="translate(-210.33333 -90.33333)" style="fill: #231f20"/>
        <path d="M238.05469,125.501H238.041a0.83725,0.83725,0,0,1-.08789.11035,0.598,0.598,0,0,1-.11621.09082,0.57854,0.57854,0,0,1-.14844.06152,0.70537,0.70537,0,0,1-.18359.02246,0.67863,0.67863,0,0,1-.291-0.06152,0.60764,0.60764,0,0,1-.22559-0.18359,0.89689,0.89689,0,0,1-.14551-0.30371,1.54559,1.54559,0,0,1-.05078-0.41992,1.563,1.563,0,0,1,.05078-0.42285,0.8985,0.8985,0,0,1,.14551-0.30566,0.61311,0.61311,0,0,1,.22559-0.18555,0.67863,0.67863,0,0,1,.291-0.06152,0.70988,0.70988,0,0,1,.18262.02148,0.60644,0.60644,0,0,1,.14746.06055,0.55335,0.55335,0,0,1,.11719.08691,0.6814,0.6814,0,0,1,.08887.10449h0.02051c-0.00391-.03906-0.00684-0.07617-0.00977-0.11133-0.00293-.03027-0.00488-0.06055-0.00781-0.0918-0.002-.03125-0.00293-0.05566-0.00293-0.07422v-0.74512h0.31152V125.752h-0.252Zm-0.49023.02734a0.54856,0.54856,0,0,0,.21973-0.04,0.33037,0.33037,0,0,0,.14453-0.11914,0.557,0.557,0,0,0,.082-0.20117,1.44165,1.44165,0,0,0,.03027-0.28125v-0.06934a1.789,1.789,0,0,0-.02344-0.30664,0.61988,0.61988,0,0,0-.07812-0.22559,0.36547,0.36547,0,0,0-.14746-0.13867,0.51148,0.51148,0,0,0-.23145-0.04687,0.36438,0.36438,0,0,0-.33887.18555,1.07942,1.07942,0,0,0-.1084.53516,1.03005,1.03005,0,0,0,.1084.53223A0.3731,0.3731,0,0,0,237.56445,125.52832Z" transform="translate(-210.33333 -90.33333)" style="fill: #231f20"/>
        <path d="M238.98926,123.25391h0.68164a1.96442,1.96442,0,0,1,.38574.0332,0.75043,0.75043,0,0,1,.27832.10742,0.47072,0.47072,0,0,1,.16895.19434,0.70966,0.70966,0,0,1,.05566.29688,0.57479,0.57479,0,0,1-.0332.19824,0.47517,0.47517,0,0,1-.0957.16211,0.53389,0.53389,0,0,1-.15723.11719,0.63436,0.63436,0,0,1-.21094.0625v0.01758a1.26965,1.26965,0,0,1,.22168.05859,0.56676,0.56676,0,0,1,.17969.10547,0.47442,0.47442,0,0,1,.12207.16992,0.63634,0.63634,0,0,1,.04395.25,0.78485,0.78485,0,0,1-.05566.30469,0.602,0.602,0,0,1-.16016.22754,0.716,0.716,0,0,1-.25586.14258,1.07682,1.07682,0,0,1-.33984.0498h-0.8291v-2.498Zm0.31836,1.05859h0.417a0.94624,0.94624,0,0,0,.24121-0.02539,0.37755,0.37755,0,0,0,.15625-0.07617,0.27957,0.27957,0,0,0,.08691-0.126,0.53867,0.53867,0,0,0,.02637-0.17676,0.32764,0.32764,0,0,0-.13184-0.29395,0.75306,0.75306,0,0,0-.415-0.08887h-0.38086v0.78711Zm0,0.26758v0.90234h0.4541a0.77531,0.77531,0,0,0,.252-0.03516,0.40781,0.40781,0,0,0,.16406-0.0957,0.34257,0.34257,0,0,0,.08984-0.14746,0.61888,0.61888,0,0,0,.02734-0.19043,0.51068,0.51068,0,0,0-.02832-0.17578,0.32043,0.32043,0,0,0-.0918-0.1377,0.43752,0.43752,0,0,0-.16992-0.08887,0.92426,0.92426,0,0,0-.26367-0.03125h-0.43359Z" transform="translate(-210.33333 -90.33333)" style="fill: #231f20"/>
        <path d="M243.36816,125.752v-1.208a0.53451,0.53451,0,0,0-.08594-0.333,0.31124,0.31124,0,0,0-.26465-0.11133,0.49753,0.49753,0,0,0-.21191.04,0.34992,0.34992,0,0,0-.14258.11816,0.51586,0.51586,0,0,0-.08105.19238,1.20763,1.20763,0,0,0-.02637.2666V125.752h-0.3125v-1.208a0.54823,0.54823,0,0,0-.084-0.333,0.31124,0.31124,0,0,0-.26465-0.11133,0.48917,0.48917,0,0,0-.21973.04395,0.35179,0.35179,0,0,0-.14355.13184,0.61315,0.61315,0,0,0-.07617.21387,1.59905,1.59905,0,0,0-.02344.29V125.752h-0.31152v-1.877H241.374l0.04395,0.25391h0.0166a0.54041,0.54041,0,0,1,.09766-0.12793,0.58158,0.58158,0,0,1,.124-0.08984,0.60119,0.60119,0,0,1,.14355-0.05273,0.68507,0.68507,0,0,1,.1543-0.0166,0.70543,0.70543,0,0,1,.3418.07422,0.455,0.455,0,0,1,.2002.23633h0.01367a0.56568,0.56568,0,0,1,.10742-0.13867,0.641,0.641,0,0,1,.13672-0.09668,0.66347,0.66347,0,0,1,.15625-0.05664,0.73567,0.73567,0,0,1,.167-0.01855,0.5819,0.5819,0,0,1,.4502.16309,0.74616,0.74616,0,0,1,.15137.52148V125.752h-0.31055Z" transform="translate(-210.33333 -90.33333)" style="fill: #231f20"/>
        <path d="M225.30371,129.95117v-2.498h0.31836V129.668h0.97852v0.2832h-1.29687Z" transform="translate(-210.33333 -90.33333)" style="fill: #231f20"/>
        <path d="M228.50977,129.00977a1.386,1.386,0,0,1-.05762.416,0.84809,0.84809,0,0,1-.16406.30566,0.69015,0.69015,0,0,1-.25879.18848,0.85339,0.85339,0,0,1-.3418.06543,0.79637,0.79637,0,0,1-.3252-0.06543,0.71551,0.71551,0,0,1-.25684-0.18848,0.87068,0.87068,0,0,1-.16895-0.30566,1.29565,1.29565,0,0,1-.06055-0.416,1.36737,1.36737,0,0,1,.05664-0.41309,0.84711,0.84711,0,0,1,.16406-0.30371,0.6751,0.6751,0,0,1,.25879-0.18848,0.87182,0.87182,0,0,1,.34277-0.06348,0.807,0.807,0,0,1,.32422.06348,0.7072,0.7072,0,0,1,.25684.18848,0.88747,0.88747,0,0,1,.16992.30371A1.30432,1.30432,0,0,1,228.50977,129.00977Zm-1.3125,0a0.994,0.994,0,0,0,.11719.53711,0.4887,0.4887,0,0,0,.75879,0,1.01391,1.01391,0,0,0,.11523-0.53711,0.97819,0.97819,0,0,0-.11719-0.53418,0.42243,0.42243,0,0,0-.38086-0.17676,0.41719,0.41719,0,0,0-.37793.17676A0.98866,0.98866,0,0,0,227.19727,129.00977Z" transform="translate(-210.33333 -90.33333)" style="fill: #231f20"/>
        <path d="M229.36035,128.91895v1.03223H229.042v-2.498h0.6084a1.05725,1.05725,0,0,1,.67188.17578,0.64578,0.64578,0,0,1,.2168.5332,0.72834,0.72834,0,0,1-.042.25977,0.60635,0.60635,0,0,1-.11035.19043,0.67686,0.67686,0,0,1-.1582.13184,1.07948,1.07948,0,0,1-.18262.08789l0.67969,1.11914h-0.374l-0.60059-1.03223h-0.39062Zm0-.27051h0.28027a0.9997,0.9997,0,0,0,.26074-0.0293,0.47479,0.47479,0,0,0,.17773-0.08887,0.3465,0.3465,0,0,0,.10059-0.14746,0.62013,0.62013,0,0,0,.03125-0.20508,0.55,0.55,0,0,0-.03516-0.209,0.34374,0.34374,0,0,0-.10547-0.14062,0.46744,0.46744,0,0,0-.17969-0.0791,1.164,1.164,0,0,0-.25684-0.02441h-0.27344v0.92383Z" transform="translate(-210.33333 -90.33333)" style="fill: #231f20"/>
        <path d="M232.12207,129.95117l-0.06348-.25977h-0.01367a1.24637,1.24637,0,0,1-.1123.13281,0.541,0.541,0,0,1-.123.09082,0.55358,0.55358,0,0,1-.14941.05371,0.99077,0.99077,0,0,1-.18945.0166,0.66439,0.66439,0,0,1-.2168-0.0332,0.456,0.456,0,0,1-.17187-0.10254,0.46928,0.46928,0,0,1-.11426-0.1748,0.67674,0.67674,0,0,1-.041-0.248,0.50742,0.50742,0,0,1,.19824-0.43066,1.03914,1.03914,0,0,1,.60059-0.16406l0.31445-.01172v-0.11816a0.62651,0.62651,0,0,0-.02539-0.19141,0.301,0.301,0,0,0-.07129-0.124,0.2708,0.2708,0,0,0-.11621-0.06738,0.555,0.555,0,0,0-.1582-0.02051,0.82,0.82,0,0,0-.26367.041,1.73192,1.73192,0,0,0-.23535.09863l-0.10937-.2334a1.54966,1.54966,0,0,1,.28223-0.11719,1.12093,1.12093,0,0,1,.32617-0.04687,1.14627,1.14627,0,0,1,.30176.03418,0.4973,0.4973,0,0,1,.21.11133,0.46,0.46,0,0,1,.124.19434,0.87127,0.87127,0,0,1,.041.28516v1.28516h-0.22363Zm-0.57129-.2168a0.54351,0.54351,0,0,0,.19336-0.0332,0.40051,0.40051,0,0,0,.15332-0.09766A0.4514,0.4514,0,0,0,232,129.4375a0.67941,0.67941,0,0,0,.03613-0.23437V129.0332l-0.24414.01172a1.2449,1.2449,0,0,0-.25781.03516,0.45672,0.45672,0,0,0-.167.0752,0.292,0.292,0,0,0-.08984.11816,0.43672,0.43672,0,0,0-.02734.15625,0.29346,0.29346,0,0,0,.083.23047A0.31345,0.31345,0,0,0,231.55078,129.73438Z" transform="translate(-210.33333 -90.33333)" style="fill: #231f20"/>
        <path d="M233.89355,127.45313l-0.92969,2.498H232.6582l0.93164-2.498h0.30371Z" transform="translate(-210.33333 -90.33333)" style="fill: #231f20"/>
        <path d="M234.58789,129.95117h-0.31836v-2.498h1.29688v0.2793h-0.97852v0.88281H235.502v0.2793h-0.91406v1.05664Z" transform="translate(-210.33333 -90.33333)" style="fill: #231f20"/>
        <path d="M237.30566,129.2832a0.6994,0.6994,0,0,1-.05957.2959,0.59749,0.59749,0,0,1-.168.22168,0.75006,0.75006,0,0,1-.2666.1377,1.23452,1.23452,0,0,1-.35352.04688,1.92609,1.92609,0,0,1-.35449-0.03027,0.94874,0.94874,0,0,1-.27637-0.08789v-0.30371c0.03906,0.01758.083,0.03613,0.13281,0.05371,0.04883,0.01758.10156,0.0332,0.15625,0.04688s0.11133,0.02441.16895,0.0332a1.144,1.144,0,0,0,.17285.0127,0.65514,0.65514,0,0,0,.4043-0.10254,0.35185,0.35185,0,0,0,.13086-0.29395,0.46311,0.46311,0,0,0-.02539-0.16016,0.32247,0.32247,0,0,0-.08691-0.126,0.79751,0.79751,0,0,0-.167-0.11133c-0.06934-.03516-0.15723-0.07422-0.2627-0.11719a1.55437,1.55437,0,0,1-.26465-0.12988,0.78468,0.78468,0,0,1-.18457-0.16016,0.6006,0.6006,0,0,1-.10742-0.20215,0.853,0.853,0,0,1-.03516-0.25586,0.63733,0.63733,0,0,1,.05469-0.26855,0.57123,0.57123,0,0,1,.1543-0.19922,0.7066,0.7066,0,0,1,.23633-0.124,1.02865,1.02865,0,0,1,.30371-0.042,1.60146,1.60146,0,0,1,.36523.03809,1.431,1.431,0,0,1,.28906.09863l-0.11426.2666a1.61285,1.61285,0,0,0-.252-0.08691,1.16119,1.16119,0,0,0-.292-0.03613,0.48465,0.48465,0,0,0-.32227.09668,0.32176,0.32176,0,0,0-.11523.26074,0.5107,0.5107,0,0,0,.02539.168,0.34045,0.34045,0,0,0,.08594.12793,0.666,0.666,0,0,0,.1582.10742c0.06543,0.03418.14648,0.06934,0.24219,0.10742a2.41147,2.41147,0,0,1,.27246.126,0.83928,0.83928,0,0,1,.19531.14746,0.55612,0.55612,0,0,1,.11914.18945A0.735,0.735,0,0,1,237.30566,129.2832Z" transform="translate(-210.33333 -90.33333)" style="fill: #231f20"/>
        <path d="M239.49316,129.95117h-0.36133l-0.77051-1.19336-0.2373.19531v0.998h-0.31836v-2.498H238.124v1.249l0.207-.28711,0.77148-.96191H239.46l-0.88867,1.08789Z" transform="translate(-210.33333 -90.33333)" style="fill: #231f20"/>
        <path d="M240.7627,127.45313l-0.92969,2.498h-0.30566l0.93164-2.498h0.30371Z" transform="translate(-210.33333 -90.33333)" style="fill: #231f20"/>
        <path d="M242.5625,128.69824a3.01334,3.01334,0,0,1-.04395.542,1.22833,1.22833,0,0,1-.13965.40527,0.68061,0.68061,0,0,1-.249.25293,0.73723,0.73723,0,0,1-.36914.08691,0.6889,0.6889,0,0,1-.35059-0.08691,0.7007,0.7007,0,0,1-.248-0.25293,1.32368,1.32368,0,0,1-.14746-0.40527,2.74871,2.74871,0,0,1-.04785-0.542,3.03432,3.03432,0,0,1,.043-0.542,1.2539,1.2539,0,0,1,.13867-0.40332,0.67356,0.67356,0,0,1,.24609-0.25293,0.72581,0.72581,0,0,1,.36621-0.08691,0.66287,0.66287,0,0,1,.60352.33789,1.27451,1.27451,0,0,1,.14844.4043A2.67809,2.67809,0,0,1,242.5625,128.69824Zm-1.28027,0a3.3358,3.3358,0,0,0,.02637.44824,1.15014,1.15014,0,0,0,.082.31836,0.43984,0.43984,0,0,0,.14746.19141,0.37484,0.37484,0,0,0,.22266.06445,0.38451,0.38451,0,0,0,.22363-0.06348,0.44727,0.44727,0,0,0,.15137-0.18945,1.09971,1.09971,0,0,0,.08594-0.31934,3.35644,3.35644,0,0,0,.02637-0.4502,3.31019,3.31019,0,0,0-.02637-0.44727,1.10128,1.10128,0,0,0-.08594-0.31836,0.44727,0.44727,0,0,0-.15137-0.18945,0.424,0.424,0,0,0-.44629,0,0.43352,0.43352,0,0,0-.14746.18945,1.14094,1.14094,0,0,0-.082.31836A3.31017,3.31017,0,0,0,241.28223,128.69824Z" transform="translate(-210.33333 -90.33333)" style="fill: #231f20"/>
        <path d="M244.49023,128.69824a3.01335,3.01335,0,0,1-.04395.542,1.22833,1.22833,0,0,1-.13965.40527,0.68061,0.68061,0,0,1-.249.25293,0.73723,0.73723,0,0,1-.36914.08691,0.6889,0.6889,0,0,1-.35059-0.08691,0.7007,0.7007,0,0,1-.248-0.25293,1.32368,1.32368,0,0,1-.14746-0.40527,2.74871,2.74871,0,0,1-.04785-0.542,3.03431,3.03431,0,0,1,.043-0.542,1.2539,1.2539,0,0,1,.13867-0.40332,0.67356,0.67356,0,0,1,.24609-0.25293,0.72581,0.72581,0,0,1,.36621-0.08691,0.66287,0.66287,0,0,1,.60352.33789,1.27451,1.27451,0,0,1,.14844.4043A2.67809,2.67809,0,0,1,244.49023,128.69824Zm-1.28027,0a3.33582,3.33582,0,0,0,.02637.44824,1.15014,1.15014,0,0,0,.082.31836,0.43984,0.43984,0,0,0,.14746.19141,0.37484,0.37484,0,0,0,.22266.06445,0.38451,0.38451,0,0,0,.22363-0.06348,0.44727,0.44727,0,0,0,.15137-0.18945,1.09972,1.09972,0,0,0,.08594-0.31934,3.35644,3.35644,0,0,0,.02637-0.4502,3.31019,3.31019,0,0,0-.02637-0.44727,1.10129,1.10129,0,0,0-.08594-0.31836,0.44727,0.44727,0,0,0-.15137-0.18945,0.424,0.424,0,0,0-.44629,0,0.43352,0.43352,0,0,0-.14746.18945,1.14094,1.14094,0,0,0-.082.31836A3.31019,3.31019,0,0,0,243.21,128.69824Z" transform="translate(-210.33333 -90.33333)" style="fill: #231f20"/>
        <path d="M246.68164,129.95117h-0.36133l-0.77051-1.19336-0.2373.19531v0.998h-0.31836v-2.498h0.31836v1.249l0.207-.28711,0.77148-.96191h0.35742l-0.88867,1.08789Z" transform="translate(-210.33333 -90.33333)" style="fill: #231f20"/>
      </g>
      <g>
        <path d="M222.31408,96.04156h0.94271c0.13476,0.01912.269,0.04357,0.40436,0.05645a6.87229,6.87229,0,0,1,1.97659.49471,7.5024,7.5024,0,0,1,3.58432,3.02422,7.53438,7.53438,0,0,1-10.66811,10.1785,7.4746,7.4746,0,0,1-2.35583-2.60643,7.06024,7.06024,0,0,1-.81008-2.36625c-0.04079-.27532-0.07668-0.55138-0.11481-0.82709v-0.97217a1.08371,1.08371,0,0,0,.03255-0.13937,7.55632,7.55632,0,0,1,6.269-6.7372C221.82,96.10492,222.06759,96.07635,222.31408,96.04156Zm0.50487,12.03077,0.03042-.03293a0.52791,0.52791,0,0,1-.07754-0.04188,0.78647,0.78647,0,0,1-.35033-0.55955,42.96436,42.96436,0,0,0-.702-4.50606c-0.26969-1.17644-.5136-2.35881-0.76567-3.53925a0.15233,0.15233,0,0,0-.17838-0.14479c-0.206.00644-.41252,0.00739-0.61839-0.00074a0.16177,0.16177,0,0,0-.18939.15188c-0.10462.46427-.20957,0.9286-0.32489,1.39028a61.19511,61.19511,0,0,0-1.28792,6.494,0.84077,0.84077,0,0,1-.29816.71587l0.00269,0.03844a0.8439,0.8439,0,0,0,.1087.01417q0.80259,0.00537,1.60519.0085c0.208,0.0009.21079,0.00029,0.20864-.213-0.00792-.78535-0.01527-1.57073-0.02952-2.356-0.00237-.13084.03067-0.1866,0.16964-0.18168,0.23534,0.00833.47134,0.0076,0.70675,0.00036,0.13174-.00405.18106,0.046,0.15825,0.17346-0.006.03375-.00765,0.06826-0.01249,0.10225-0.08358.58776-.16508,1.17583-0.25315,1.76291a0.15073,0.15073,0,0,0,.111.19932,1.82343,1.82343,0,0,1,.34113.17015,0.24678,0.24678,0,0,1,.1321.35424H222.819Zm2.361,0.02709v0.00766c0.162,0,.324-0.00255.4859,0.001,0.09052,0.002.18866-.01118,0.1958-0.10841a0.28992,0.28992,0,0,0-.09059-0.22077,1.7455,1.7455,0,0,0-.39671-0.2169,0.14887,0.14887,0,0,1-.1143-0.19707c0.03589-.16773.06884-0.337,0.08788-0.50727,0.10029-.897.21238-1.79313,0.28571-2.69239a6.07563,6.07563,0,0,0-.02851-1.27528,4.63631,4.63631,0,0,0-.29109-0.95182,0.43173,0.43173,0,0,1,.17631-0.652,0.94987,0.94987,0,0,0,.07915-0.0659c0.11769-.11469.12319-0.18286,0.00771-0.29789a0.71517,0.71517,0,0,1-.229-0.34985,0.29073,0.29073,0,0,0-.12761-0.154,0.65981,0.65981,0,0,0-.80948.31069,0.54251,0.54251,0,0,0,.13517.61978c0.24889,0.196.24995,0.20291,0.10027,0.489-0.04776.0913-.09338,0.18375-0.1388,0.27625a1.147,1.147,0,0,0-.09135.60229c0.01709,0.25336.012,0.50873,0.00624,0.763-0.00728.32245-.04534,0.64546-0.03308,0.96681,0.01718,0.4502.087,0.89852,0.101,1.34868,0.02216,0.71122.01948,1.42331,0.02039,2.135a0.13854,0.13854,0,0,0,.1685.17115C224.84607,108.09382,225.01316,108.09942,225.18,108.09942Zm2.38963-7.91267c0.15032,0.02561.17833-.05532,0.16588-0.18108a2.12156,2.12156,0,0,0-1.93693-1.9233,0.20463,0.20463,0,0,0-.15708.04025,0.21234,0.21234,0,0,0,.15554.32742,1.72969,1.72969,0,0,1,1.56927,1.56989C227.38181,100.166,227.43958,100.20915,227.56963,100.18675Zm-0.61733.00175c0.0793-.00739.1946,0.02893,0.18194-0.11718a1.51,1.51,0,0,0-1.39373-1.39109,0.13017,0.13017,0,0,0-.10094.0385,0.2236,0.2236,0,0,0,.15175.3329,1.13769,1.13769,0,0,1,.96592.97043C226.77467,100.15413,226.81882,100.21062,226.9523,100.18849Zm-0.61206-.001c0.11353,0.00736.20448,0.00578,0.18207-.14969a0.90661,0.90661,0,0,0-.76415-0.7448,0.1521,0.1521,0,0,0-.11616.03133,0.24244,0.24244,0,0,0,.11455.3387,0.49733,0.49733,0,0,1,.38578.38051A0.15233,0.15233,0,0,0,226.34024,100.18745Zm-2.51975,7.55131a0.278,0.278,0,0,0-.26184-0.28284,0.2913,0.2913,0,0,0-.29055.27387,0.27817,0.27817,0,0,0,.26726.27771A0.26246,0.26246,0,0,0,223.82049,107.73876Z" transform="translate(-210.33333 -90.33333)" style="fill: #8c8c8c"/>
        <path d="M220.45528,104.24086c-0.15216,0-.30433.00155-0.45646-0.00043-0.16241-.00211-0.17086-0.02071-0.16043-0.19829,0.02356-.40116.05278-0.80256,0.05653-1.20408a1.45384,1.45384,0,0,1,.05379-0.67945q0.10854-.21708.22018-0.4326a0.21717,0.21717,0,0,0-.05319-0.32161,0.51567,0.51567,0,0,1-.24534-0.65459,0.53936,0.53936,0,0,1,.48451-0.37255,0.3642,0.3642,0,0,1,.4918.28627,0.83538,0.83538,0,0,0,.1772.22748,0.19048,0.19048,0,0,1-.01406.33275c-0.01456.01311-.0303,0.02494-0.04569,0.03711-0.31052.24573-.34559,0.32959-0.176,0.68479a4.12991,4.12991,0,0,1,.31635,2.144,0.1366,0.1366,0,0,1-.1633.1527C220.77938,104.23657,220.61725,104.24087,220.45528,104.24086Z" transform="translate(-210.33333 -90.33333)" style="fill: #8c8c8c"/>
      </g>
    </g>
  </g>
  <g id="copper1">
    <g id="copper0">
      <g>
        <path d="M216.31332,135.68766h-3.685V130.5853h3.685v5.10236Zm-1.84252-3.81609a1.08235,1.08235,0,1,0,1.08235,1.08235A1.08235,1.08235,0,0,0,214.4708,131.87158Zm1.08235,3.81609a1.08235,1.08235,0,0,0-2.16471,0" transform="translate(-210.33333 -90.33333)" style="fill: #f5bd18"/>
        <path d="M221.98261,135.68766h-3.685V133.8168h3.685v1.87087Zm-0.76017,0a1.08235,1.08235,0,0,0-2.16471,0" transform="translate(-210.33333 -90.33333)" style="fill: #f5bd18"/>
        <path d="M227.6519,135.68766h-3.685V133.8168h3.685v1.87087Zm-0.76017,0a1.08235,1.08235,0,1,0-2.16471,0" transform="translate(-210.33333 -90.33333)" style="fill: #f5bd18"/>
        <path d="M233.32119,135.68766h-3.685V133.8168h3.685v1.87087Zm-0.76017,0a1.08235,1.08235,0,0,0-2.16471,0" transform="translate(-210.33333 -90.33333)" style="fill: #f5bd18"/>
        <path d="M238.99049,135.68766h-3.685V133.8168h3.685v1.87087Zm-0.76017,0a1.08235,1.08235,0,0,0-2.16471,0" transform="translate(-210.33333 -90.33333)" style="fill: #f5bd18"/>
        <path d="M244.65978,135.68766h-3.685V133.8168h3.685v1.87087Zm-0.76017,0a1.08235,1.08235,0,0,0-2.16471,0" transform="translate(-210.33333 -90.33333)" style="fill: #f5bd18"/>
        <path d="M250.32907,135.68766h-3.685V133.8168h3.685v1.87087Zm-0.76017,0a1.08235,1.08235,0,0,0-2.16471,0" transform="translate(-210.33333 -90.33333)" style="fill: #f5bd18"/>
        <path d="M255.9439,135.68766h-3.685V133.8168h3.685v1.87087Zm-0.76017,0a1.08235,1.08235,0,0,0-2.16471,0" transform="translate(-210.33333 -90.33333)" style="fill: #f5bd18"/>
        <path d="M252.25886,90.33333h3.685V92.2042h-3.685V90.33333Zm0.76017,0a1.08235,1.08235,0,0,0,2.16471,0" transform="translate(-210.33333 -90.33333)" style="fill: #f5bd18"/>
        <path d="M246.644,90.33333h3.685V92.2042h-3.685V90.33333Zm0.76017,0a1.08235,1.08235,0,0,0,2.16471,0" transform="translate(-210.33333 -90.33333)" style="fill: #f5bd18"/>
        <path d="M240.97474,90.33333h3.685V92.2042h-3.685V90.33333Zm0.76017,0a1.08235,1.08235,0,0,0,2.16471,0" transform="translate(-210.33333 -90.33333)" style="fill: #f5bd18"/>
        <path d="M235.30545,90.33333h3.685V92.2042h-3.685V90.33333Zm0.76017,0a1.08235,1.08235,0,0,0,2.16471,0" transform="translate(-210.33333 -90.33333)" style="fill: #f5bd18"/>
        <path d="M229.63615,90.33333h3.685V92.2042h-3.685V90.33333Zm0.76017,0a1.08235,1.08235,0,0,0,2.16471,0" transform="translate(-210.33333 -90.33333)" style="fill: #f5bd18"/>
        <path d="M223.96686,90.33333h3.685V92.2042h-3.685V90.33333Zm0.76017,0a1.08235,1.08235,0,1,0,2.16471,0" transform="translate(-210.33333 -90.33333)" style="fill: #f5bd18"/>
        <path d="M218.29757,90.33333h3.685V92.2042h-3.685V90.33333Zm0.76017,0a1.08235,1.08235,0,0,0,2.16471,0" transform="translate(-210.33333 -90.33333)" style="fill: #f5bd18"/>
        <path d="M212.62828,90.33333h3.685V92.2042h-3.685V90.33333Zm0.76017,0a1.08235,1.08235,0,0,0,2.16471,0" transform="translate(-210.33333 -90.33333)" style="fill: #f5bd18"/>
      </g>
      <g>
        <path d="M216.31332,135.68766h-3.685V130.5853h3.685v5.10236Zm-1.84252-3.81609a1.08235,1.08235,0,1,0,1.08235,1.08235A1.08235,1.08235,0,0,0,214.4708,131.87158Zm1.08235,3.81609a1.08235,1.08235,0,0,0-2.16471,0" transform="translate(-210.33333 -90.33333)" style="fill: #f5bd18"/>
        <path d="M221.98261,135.68766h-3.685V133.8168h3.685v1.87087Zm-0.76017,0a1.08235,1.08235,0,0,0-2.16471,0" transform="translate(-210.33333 -90.33333)" style="fill: #f5bd18"/>
        <path d="M227.6519,135.68766h-3.685V133.8168h3.685v1.87087Zm-0.76017,0a1.08235,1.08235,0,1,0-2.16471,0" transform="translate(-210.33333 -90.33333)" style="fill: #f5bd18"/>
        <path d="M233.32119,135.68766h-3.685V133.8168h3.685v1.87087Zm-0.76017,0a1.08235,1.08235,0,0,0-2.16471,0" transform="translate(-210.33333 -90.33333)" style="fill: #f5bd18"/>
        <path d="M238.99049,135.68766h-3.685V133.8168h3.685v1.87087Zm-0.76017,0a1.08235,1.08235,0,0,0-2.16471,0" transform="translate(-210.33333 -90.33333)" style="fill: #f5bd18"/>
        <path d="M244.65978,135.68766h-3.685V133.8168h3.685v1.87087Zm-0.76017,0a1.08235,1.08235,0,0,0-2.16471,0" transform="translate(-210.33333 -90.33333)" style="fill: #f5bd18"/>
        <path d="M250.32907,135.68766h-3.685V133.8168h3.685v1.87087Zm-0.76017,0a1.08235,1.08235,0,0,0-2.16471,0" transform="translate(-210.33333 -90.33333)" style="fill: #f5bd18"/>
        <path d="M255.9439,135.68766h-3.685V133.8168h3.685v1.87087Zm-0.76017,0a1.08235,1.08235,0,0,0-2.16471,0" transform="translate(-210.33333 -90.33333)" style="fill: #f5bd18"/>
        <path d="M252.25886,90.33333h3.685V92.2042h-3.685V90.33333Zm0.76017,0a1.08235,1.08235,0,0,0,2.16471,0" transform="translate(-210.33333 -90.33333)" style="fill: #f5bd18"/>
        <path d="M246.644,90.33333h3.685V92.2042h-3.685V90.33333Zm0.76017,0a1.08235,1.08235,0,0,0,2.16471,0" transform="translate(-210.33333 -90.33333)" style="fill: #f5bd18"/>
        <path d="M240.97474,90.33333h3.685V92.2042h-3.685V90.33333Zm0.76017,0a1.08235,1.08235,0,0,0,2.16471,0" transform="translate(-210.33333 -90.33333)" style="fill: #f5bd18"/>
        <path d="M235.30545,90.33333h3.685V92.2042h-3.685V90.33333Zm0.76017,0a1.08235,1.08235,0,0,0,2.16471,0" transform="translate(-210.33333 -90.33333)" style="fill: #f5bd18"/>
        <path d="M229.63615,90.33333h3.685V92.2042h-3.685V90.33333Zm0.76017,0a1.08235,1.08235,0,0,0,2.16471,0" transform="translate(-210.33333 -90.33333)" style="fill: #f5bd18"/>
        <path d="M223.96686,90.33333h3.685V92.2042h-3.685V90.33333Zm0.76017,0a1.08235,1.08235,0,1,0,2.16471,0" transform="translate(-210.33333 -90.33333)" style="fill: #f5bd18"/>
        <path d="M218.29757,90.33333h3.685V92.2042h-3.685V90.33333Zm0.76017,0a1.08235,1.08235,0,0,0,2.16471,0" transform="translate(-210.33333 -90.33333)" style="fill: #f5bd18"/>
        <path d="M212.62828,90.33333h3.685V92.2042h-3.685V90.33333Zm0.76017,0a1.08235,1.08235,0,0,0,2.16471,0" transform="translate(-210.33333 -90.33333)" style="fill: #f5bd18"/>
      </g>
    </g>
  </g>
</svg>
